<?xml version="1.0" encoding="UTF-8"?>
<svg width="172px" height="165px" viewBox="0 0 172 165" version="1.1" xmlns="http://www.w3.org/2000/svg" xmlns:xlink="http://www.w3.org/1999/xlink">
    <!-- Generator: Sketch 48.1 (47250) - http://www.bohemiancoding.com/sketch -->
    <title>illustration</title>
    <desc>Created with Sketch.</desc>
    <defs></defs>
    <g id="2" stroke="none" stroke-width="1" fill="none" fill-rule="evenodd" transform="translate(-608.000000, -1533.000000)">
        <g id="Mail" transform="translate(548.000000, 1441.000000)">
            <g id="illustration" transform="translate(61.000000, 92.000000)">
                <g id="paper">
                    <path d="M5,109.9992 C3.897,109.9992 3,109.1022 3,107.9992 L3,5.9972 C3,4.8942 3.897,3.9972 5,3.9972 L64.166,3.9972 L78.994,17.8252 L78.994,107.9992 C78.994,109.1022 78.097,109.9992 76.994,109.9992 L5,109.9992 Z" id="Fill-1" fill="#F6F6F6"></path>
                    <path d="M63.496,1.4955 L63.496,13.4955 C63.496,15.7045 65.287,17.4955 67.496,17.4955 L79.496,17.4955" id="Fill-3" fill="#C2E9F9"></path>
                    <path d="M63.496,1.4955 L63.496,13.4955 C63.496,15.7045 65.287,17.4955 67.496,17.4955 L79.496,17.4955" id="Stroke-5" stroke="#545E65"></path>
                    <path d="M65.9962,13.4951 L65.9962,3.7021 L63.9962,1.7021 L63.9962,13.4951 C63.9962,15.4251 65.5662,16.9951 67.4962,16.9951 L69.4962,16.9951 C67.5662,16.9951 65.9962,15.4251 65.9962,13.4951" id="Fill-7" fill="#F6F6F6"></path>
                    <path d="M75.994,110.999 L4,110.999 C1.791,110.999 0,109.208 0,106.999 L0,4.997 C0,2.788 1.791,0.997 4,0.997 L63.994,0.997 L79.994,16.997 L79.994,106.999 C79.994,109.208 78.203,110.999 75.994,110.999 L75.994,110.999 Z" id="Stroke-9" stroke="#545E65" stroke-width="2"></path>
                </g>
                <g id="message" transform="translate(16.000000, 20.000000)">
                    <polygon id="Fill-11" fill="#F6F6F6" points="0.997 145 0.997 41.847 77.997 0.042 154.997 41.847 154.997 145"></polygon>
                    <polygon id="Stroke-13" stroke="#545E65" stroke-width="4" points="6.997 139.0001 6.997 45.4161 77.997 6.8691 148.997 45.4161 148.997 139.0001"></polygon>
                    <polygon id="Fill-15" fill="#F6F6F6" points="147.997 58.002 7.997 58.002 7.997 46.011 77.997 8.007 147.997 46.011"></polygon>
                    <polygon id="Fill-17" fill="#C2E9F9" points="12.9973 57.0021 12.9973 48.2001 80.9973 11.2821 148.9973 48.2001 148.9973 57.0021"></polygon>
                    <polygon id="Stroke-19" stroke="#545E65" stroke-width="2" points="147.997 58.002 7.997 58.002 7.997 46.011 77.997 8.007 147.997 46.011"></polygon>
                    <path d="M133.997,101.9964 L21.997,101.9964 C19.788,101.9964 17.997,100.2054 17.997,97.9964 L17.997,25.9984 C17.997,23.7894 19.788,21.9984 21.997,21.9984 L133.997,21.9984 C136.206,21.9984 137.997,23.7894 137.997,25.9984 L137.997,97.9964 C137.997,100.2054 136.206,101.9964 133.997,101.9964" id="Fill-21" fill="#F6F6F6"></path>
                    <path d="M24.9973,102.9965 C23.8943,102.9965 22.9973,102.0995 22.9973,100.9965 L22.9973,28.9985 C22.9973,27.8955 23.8943,26.9985 24.9973,26.9985 L136.9973,26.9985 C138.1003,26.9985 138.9973,27.8955 138.9973,28.9985 L138.9973,100.9965 C138.9973,102.0995 138.1003,102.9965 136.9973,102.9965 L24.9973,102.9965 Z" id="Fill-23" fill="#FCF9DE"></path>
                    <path d="M133.997,101.9964 L21.997,101.9964 C19.788,101.9964 17.997,100.2054 17.997,97.9964 L17.997,25.9984 C17.997,23.7894 19.788,21.9984 21.997,21.9984 L133.997,21.9984 C136.206,21.9984 137.997,23.7894 137.997,25.9984 L137.997,97.9964 C137.997,100.2054 136.206,101.9964 133.997,101.9964 L133.997,101.9964 Z" id="Stroke-25" stroke="#545E65" stroke-width="2"></path>
                    <polygon id="Fill-27" fill="#F6F6F6" points="17.998 58.002 147.997 127.999 147.997 138 7.997 138 7.997 58.002"></polygon>
                    <polygon id="Fill-29" fill="#C2E9F9" points="12.9973 138.0001 147.9973 138.0001 147.9973 133.6551 20.4943 65.0021 12.9973 65.0021"></polygon>
                    <polygon id="Stroke-31" stroke="#545E65" stroke-width="2" points="17.998 58.002 147.997 127.999 147.997 138 7.997 138 7.997 58.002"></polygon>
                    <polygon id="Fill-33" fill="#F6F6F6" points="137.996 58.002 7.997 127.999 7.997 138 147.997 138 147.997 58.002"></polygon>
                    <polygon id="Fill-35" fill="#C2E9F9" points="146.9972 137 11.9972 137 11.9972 132.655 139.5002 64.002 146.9972 64.002"></polygon>
                    <polygon id="Stroke-37" stroke="#545E65" stroke-width="2" points="137.996 58.002 7.997 127.999 7.997 138 147.997 138 147.997 58.002"></polygon>
                    <path d="M90.6335,97.1122 L136.8765,122.0112" id="Stroke-39" stroke="#545E65" stroke-width="2"></path>
                    <path d="M52.9972,46.0005 L73.9942,46.0005" id="Stroke-41" stroke="#545E65" stroke-width="4"></path>
                    <path d="M52.9972,58.0017 L103.9972,58.0017" id="Stroke-43" stroke="#545E65" stroke-width="4"></path>
                    <path d="M52.9972,70.0029 L83.9952,70.0029" id="Stroke-45" stroke="#545E65" stroke-width="4"></path>
                </g>
            </g>
        </g>
    </g>
</svg>