<?xml version="1.0" encoding="UTF-8"?>
<svg width="669px" height="808px" viewBox="0 0 669 808" version="1.1" xmlns="http://www.w3.org/2000/svg" xmlns:xlink="http://www.w3.org/1999/xlink">
    <!-- Generator: Sketch 48.1 (47250) - http://www.bohemiancoding.com/sketch -->
    <title>6</title>
    <desc>Created with Sketch.</desc>
    <defs></defs>
    <g id="Page-1" stroke="none" stroke-width="1" fill="none" fill-rule="evenodd">
        <g id="6">
            <polygon id="Shape" fill="#3CB2FD" fill-rule="nonzero" points="72 335 72 13 597 13 597 359 609 359 609 0 60 0 60 335"></polygon>
            <path d="M280.67,123.87 L391.34,124.45" id="Shape" stroke="#EDEDED" stroke-width="6"></path>
            <rect id="Rectangle-path" fill="#021867" fill-rule="nonzero" x="0" y="379" width="669" height="26"></rect>
            <path d="M476,372 L529,372 C531.761424,372 534,374.238576 534,377 L534,379 L476,379 L476,372 Z" id="Shape" fill="#F1EDE4" fill-rule="nonzero"></path>
            <rect id="Rectangle-path" fill="#EF75D8" fill-rule="nonzero" x="455" y="372" width="22" height="7"></rect>
            <path d="M382.65,88.08 C384.41,94.38 391.4,97.98 397.94,98.14 C404.48,98.3 410.75,95.83 416.94,93.74 C423.13,91.65 429.82,89.93 436.15,91.57 C441.7,93.01 446.41,96.93 452.03,98.01 C464.72,100.46 477.25,87.95 489.63,91.66" id="Shape" stroke="#EDEDED" stroke-width="6"></path>
            <polygon id="Shape" fill="#EF75D8" fill-rule="nonzero" points="629 88 569 88 569 38 629 45"></polygon>
            <polygon id="Shape" fill="#1075FD" fill-rule="nonzero" points="646 110 586 110 586 160 646 153"></polygon>
            <polygon id="Shape" fill="#EF75D8" fill-rule="nonzero" points="100 50 40 50 40 100 100 93"></polygon>
            <ellipse id="Oval" fill="#DDE9F2" fill-rule="nonzero" cx="226.65" cy="799.95" rx="53.54" ry="7.93"></ellipse>
            <ellipse id="Oval" fill="#DDE9F2" fill-rule="nonzero" transform="translate(399.590740, 781.995393) rotate(-5.140000) translate(-399.590740, -781.995393) " cx="399.59074" cy="781.995393" rx="53.54" ry="7.93"></ellipse>
            <path d="M315.29,478.5 L313.69,575.18 C313.43,579.36 312.97,583.56 312.33,587.76 C309.33,607.58 302.67,627.42 295.68,645.76 C286.98,668.64 275.88,693.91 257.07,710.41 C256.89,710.57 256.72,710.71 256.54,710.86 C248.34,718.02 239.68,724.61 230.84,730.92 C216.69,741.03 201.6,752.53 185.51,759.42 C174.29,764.23 158.27,735.42 161.51,733.78 C163.496824,732.266076 165.38717,730.629558 167.17,728.88 C185.17,712.3 239.17,658.59 243.23,640.88 C245.73,630.06 243.9,596.34 241.58,566.42 C239.42,538.73 236.82,475.3 236.82,475.3 L315.29,478.5 Z" id="Shape" fill="#1075FD" fill-rule="nonzero"></path>
            <path d="M187.1,791.49 C181.93,775.99 185.5,759.49 185.5,759.49 C185.5,759.49 172.68,725.84 158.26,735.49 C143.84,745.14 156.66,765.93 163.07,783.56 C169.48,801.19 177.13,807.3 183.9,804.39 C186.93,803 188.71,796.3 187.1,791.49 Z" id="Shape" fill="#021867" fill-rule="nonzero"></path>
            <path d="M380.98,769.06 C371.870063,769.369845 362.75102,768.834218 353.74,767.46 C353.74,767.46 313.68,759.46 318.16,781.53 C321.6,798.53 346.79,792 365.52,791.04 C384.25,790.08 392.34,784.56 391.52,777.24 C391.19,774 386.04,768.94 380.98,769.06 Z" id="Shape" fill="#021867" fill-rule="nonzero"></path>
            <path d="M245.12,377.08 L236.6,403.43 C236.6,403.43 187.91,351.15 189.3,329.19 C191.07,301.24 260.92,243.08 260.92,243.08 C263.276955,239.543063 266.944351,237.089272 271.112989,236.260047 C275.281626,235.430822 279.608897,236.294315 283.14,238.66 C286.676937,241.016955 289.130728,244.684351 289.959953,248.852989 C290.789178,253.021626 289.925685,257.348897 287.56,260.88 C287.56,260.88 225.02,311.47 222.5,336.23 C221.26,347.85 245.12,377.08 245.12,377.08 Z" id="Shape" fill="#FFDFB8" fill-rule="nonzero"></path>
            <path d="M323.3,642.48 C326.12,621.29 307.08,476.9 307.08,476.9 L390.59,480.1 L388.99,576.78 C387.49,600.72 380.47,624.41 374.18,647.38 C365.5,679.1 353.74,765.85 352.18,777.07 C350.62,788.29 318.53,777.07 318.53,773.87 C318.53,770.67 318.97,675.06 323.3,642.48 Z" id="Shape" fill="#1075FD" fill-rule="nonzero"></path>
            <path d="M316.65,312.89 L298.65,488.71 C298.65,488.71 312.54,490.4 316.65,490.21 C320.76,490.02 334.65,488.71 334.65,488.71 L316.65,312.89 Z" id="Shape" fill="#111B97" fill-rule="nonzero"></path>
            <path d="M395.32,501.39 C395.32,501.39 350.24,514.91 327.7,511.91 L314.7,370.77 L301.7,511.91 C279.16,514.91 234.08,501.39 234.08,501.39 C234.08,501.39 213.08,496.88 219.08,463.82 C223.9,437.27 225.92,406.94 239.17,382.88 C248.88,365.24 256.89,346.53 260.72,326.69 C264.45,307.38 261.53,287.39 259.77,268.01 C259.14,261.01 256.91,249.27 261.15,242.91 C267.15,233.91 282.15,229.39 298.72,232.39 L330.72,232.39 C347.25,229.39 362.28,233.89 368.29,242.91 C372.53,249.27 370.29,261 369.67,268.01 C367.91,287.39 365,307.38 368.72,326.69 C372.55,346.53 380.56,365.23 390.27,382.88 C403.5,406.94 405.5,437.27 410.34,463.82 C416.35,496.88 395.32,501.39 395.32,501.39 Z" id="Shape" fill="#CBDEF3" fill-rule="nonzero"></path>
            <rect id="Rectangle-path" fill="#111B97" fill-rule="nonzero" transform="translate(297.401999, 304.295972) rotate(-49.760000) translate(-297.401999, -304.295972) " x="201.901999" y="299.490972" width="191" height="9.61"></rect>
            <path d="M238.91,369.14 C242.21,370.24 244.79,378.56 245.16,381.38 C246.16,389.21 239.9,395.66 236.84,402.31 C232.61,411.49 235.36,420.22 234.75,429.75 C234.21,438.31 231.5,447 224.5,452.46 C218.42,457.19 211.69,463.39 204.02,465.27 C193.02,467.97 196.72,448.35 197.75,443.01 C200.37,429.47 202.46,415.07 207.26,402.14 C208.435478,398.871209 209.936346,395.728766 211.74,392.76 C214.44,388.42 217.9,384.44 220.62,380.03 C222.82,376.46 225.15,372.36 228.39,369.62 C231.4,367.08 235.35,367.95 238.91,369.14 Z" id="Shape" fill="#111B97" fill-rule="nonzero"></path>
            <path d="M207.69,402.6 C207.69,402.6 181.96,432.46 180.14,437.95 C178.32,443.44 186.02,451.47 190.77,448.17 C195.52,444.87 208.11,432.59 208.11,432.59 L207.69,402.6 Z" id="Shape" fill="#111B97" fill-rule="nonzero"></path>
            <path d="M463.5,109 C463.041499,113.243825 462.847791,117.51209 462.92,121.78 C462.82,127.25 462.77,132.78 462.7,138.2 C462.61,144.5 462.49,150.8 462.27,157.1 C462.05,163.4 461.73,169.75 461.2,176.1 C460.789183,181.68699 460.081517,187.248177 459.08,192.76 C458.449623,196.908029 457.241211,200.947287 455.49,204.76 C455.095871,205.545296 454.634128,206.294792 454.11,207 C439.05,226.85 372.21,263.83 372.21,263.83 C368.582801,268.144512 362.890489,270.136129 357.364649,269.024069 C351.838809,267.912009 347.360045,263.873491 345.684189,258.491754 C344.008333,253.110017 345.402451,247.242702 349.32,243.19 C349.32,243.19 417.32,204.06 432.87,183.69 C441.72,172.12 445.93,121.76 449.87,108.69 C448.62,106.51 445.01,101.95 444.06,100.06 C443.99,99.93 443.9,99.75 443.8,99.53 C442.077058,97.5421621 440.237127,95.6588204 438.29,93.89 C437.09,93.14 427.97,89.04 427.75,88.06 C427.75,88.06 423.29,81.89 431,84.26 C433.43,85.01 435.43,85.59 437.11,86.03 C437.11,86.03 437.11,86.03 437.11,86.03 C437.66,85.68 442.05,82.81 442.05,79.03 C442.05,75.03 431.05,77.03 431.05,77.03 C431.05,77.03 419.05,78.03 424.05,74.03 C429.05,70.03 442.05,71.03 448.05,73.03 C454.05,75.03 455.05,83.03 457.05,91.03 C457.938402,94.4381691 459.091917,97.7716605 460.5,101 C461.1,102.41 461.72,103.81 462.33,105.22 C462.825764,106.138332 463.202146,107.116252 463.45,108.13 C463.504026,108.416641 463.520832,108.709057 463.5,109 Z" id="Shape" fill="#FFDFB8" fill-rule="nonzero"></path>
            <path d="M436.037432,62.4576665 L442.367432,62.4576665 L442.367432,97.2776665 C442.367432,99.0284091 440.948174,100.447666 439.197432,100.447666 C437.446689,100.447666 436.027432,99.0284091 436.027432,97.2776665 L436.027432,62.4576665 L436.037432,62.4576665 Z" id="Shape" fill="#141D42" fill-rule="nonzero" transform="translate(439.197432, 81.452666) rotate(-82.520000) translate(-439.197432, -81.452666) "></path>
            <polygon id="Shape" fill="#5B50CE" fill-rule="nonzero" points="419.89 82.08 420.72 75.8 414.03 78.12"></polygon>
            <path d="M444,339 C435.26,357 384,343.26 364,345 C338.74,347.2 302,367 264,328 C229.5,292.54 231.27,186 231.89,166.93 C231.76,165.55 231.69,164.16 231.69,162.75 C231.69,137.58 252.69,117.17 278.49,117.17 C293.967856,117.099946 308.491822,124.640445 317.34,137.34 C329.17,147.28 338.71,202.16 365,220 C393,239 459.56,306.86 444,339 Z" id="Shape" fill="#111B97" fill-rule="nonzero"></path>
        </g>
    </g>
</svg>