<?xml version="1.0" encoding="UTF-8"?>
<svg width="775px" height="467px" viewBox="0 0 775 467" version="1.1" xmlns="http://www.w3.org/2000/svg" xmlns:xlink="http://www.w3.org/1999/xlink">
    <!-- Generator: Sketch 48.1 (47250) - http://www.bohemiancoding.com/sketch -->
    <title>5</title>
    <desc>Created with Sketch.</desc>
    <defs></defs>
    <g id="Page-1" stroke="none" stroke-width="1" fill="none" fill-rule="evenodd">
        <g id="5" transform="translate(0.000000, -1.000000)" fill-rule="nonzero">
            <rect id="Rectangle-path" fill="#021867" x="0" y="432" width="775" height="36"></rect>
            <polygon id="Shape" fill="#C5DEFE" points="115.42 338 55.47 338 64.56 432 106.33 432"></polygon>
            <polygon id="Shape" fill="#FAFAFA" points="379.25 215.27 341.56 338.32 302.81 212.28 319.8 200.02 311.48 182.1 369.72 178.26 360.76 201.3"></polygon>
            <polygon id="Shape" fill="#E9EDEC" points="380.68 213.82 365 199 362.76 203.58 378.12 218.94"></polygon>
            <polygon id="Shape" fill="#E9EDEC" points="303 209.76 318 194 320.08 199.23 305.05 215.28"></polygon>
            <polygon id="Shape" fill="#021867" points="343.46 423.74 342.84 425.98 339.47 424.74"></polygon>
            <polygon id="Shape" fill="#021867" points="327.5 382.84 269.89 172.42 287.81 158.34 340.98 338.46 394.85 161.24 412.77 175.31 354.49 384.22 343.46 423.74 339.47 424.74 338.91 424.54"></polygon>
            <polygon id="Shape" fill="#021867" points="339.47 424.74 339 424.86 338.91 424.54"></polygon>
            <polygon id="Shape" fill="#021867" points="364.6 418.46 343.46 423.74 354.49 384.22"></polygon>
            <polygon id="Shape" fill="#FAFAF9" points="286.53 226.18 318.52 194.18 294.2 135.31 281.41 163.46"></polygon>
            <path d="M507.34,260.69 C532.26,323.92 575,432 575,432 L505,432 L470.12,331 C460.12,381.91 446.88,432 446.88,432 L339,432 L410.67,173.6 L447.49,193.37 C474.776957,208.021628 495.983797,231.875336 507.34,260.69 Z" id="Shape" fill="#1075FD"></path>
            <polygon id="Shape" fill="#FAFAF9" points="394.04 227.46 362.04 196.74 387.64 136.59 399.15 164.74"></polygon>
            <path d="M269.89,172.32 L342.89,432 L233.68,432 C233.68,432 224.16,394.7 215.19,353.38 L186,432 L117,432 C117,432 169,296.58 191.75,237.07 C198.529414,219.330157 211.371766,204.56411 228,195.39 L269.89,172.32 Z" id="Shape" fill="#1075FD"></path>
            <path d="M387.64,137.31 L387.64,116.15 L294.21,114.83 L294.21,136 C294.21,136 307.01,174.35 319.81,200.8 C332.61,227.25 351.81,228.57 359.49,212.7 C367.17,196.83 387.64,137.31 387.64,137.31 Z" id="Shape" fill="#F7CFA4"></path>
            <path d="M392.76,107.79 C392.76,69.97 369.55,26.52 340.92,26.52 C312.29,26.52 289.09,70 289.09,107.79 C289.09,145.58 312.3,176.26 340.93,176.26 C369.56,176.26 392.76,145.61 392.76,107.79 Z" id="Shape" fill="#FFDFB8"></path>
            <path d="M389,82 L388.31,81.13 C388.10458,81.7945888 387.801247,82.424847 387.41,83 C382.26,90.55 368.9,89.68 362.8,84.15 C359.57,81.23 357.25,77.48 354.53,74.08 C352.94,72.08 351.2,70.2 349.67,68.16 C347.124218,64.6700045 345.027748,60.8735115 343.43,56.86 C342.09,53.64 341.3,47.72 339.03,45.3 C333.64,50.3 329.23,57.05 324.34,62.64 C320.51,67.01 316.62,71.35 312.48,75.43 C308.48,79.36 302.48,82.17 299.42,86.77 C296,91.84 296,97.68 293.58,103 C292.67,105 290.06,119.43 289,117 C287.94,114.57 281.74,102 281.74,102 C279.988719,98.5550024 279.077234,94.7445808 279.08,90.88 L279,91 L278,87 C278,87 256.84,1.81 333,1 C427,2.25375274e-14 389,82 389,82 Z" id="Shape" fill="#4EA5F8"></path>
            <rect id="Rectangle-path" fill="#BBE3FE" x="364.26" y="117.68" width="371.76" height="277.13" rx="14.99"></rect>
            <path d="M546,292 C565.329966,292 581,307.670034 581,327 L581,432 L511,432 L511,327 C511,307.670034 526.670034,292 546,292 Z" id="Shape" fill="#021867"></path>
            <ellipse id="Oval" fill="#021867" cx="547.5" cy="237" rx="19.5" ry="18"></ellipse>
            <rect id="Rectangle-path" fill="#1075FD" x="657" y="370" width="96" height="62" rx="6"></rect>
            <circle id="Oval" fill="#021867" cx="705" cy="401" r="18"></circle>
            <path d="M705,378 C692.297451,378 682,388.297451 682,401 C682,413.702549 692.297451,424 705,424 C717.702549,424 728,413.702549 728,401 C728,388.297451 717.702549,378 705,378 Z M705,419 C695.058875,419 687,410.941125 687,401 C687,391.058875 695.058875,383 705,383 C714.941125,383 723,391.058875 723,401 C723,410.941125 714.941125,419 705,419 Z" id="Shape" fill="#106CE7"></path>
            <path d="M669,389.81 L669,413.19 C669,416.951059 665.951059,420 662.19,420 L657,420 L657,383 L662.19,383 C665.951059,383 669,386.048941 669,389.81 Z" id="Shape" fill="#021867"></path>
            <rect id="Rectangle-path" fill="#021867" x="672" y="375" width="10" height="4" rx="2"></rect>
        </g>
    </g>
</svg>