<?xml version="1.0" encoding="UTF-8"?>
<svg width="220px" height="188px" viewBox="0 0 220 188" version="1.1" xmlns="http://www.w3.org/2000/svg" xmlns:xlink="http://www.w3.org/1999/xlink">
    <!-- Generator: Sketch 48 (47235) - http://www.bohemiancoding.com/sketch -->
    <title>illustration</title>
    <desc>Created with Sketch.</desc>
    <defs></defs>
    <g id="3" stroke="none" stroke-width="1" fill="none" fill-rule="evenodd" transform="translate(-240.000000, -1892.000000)">
        <g id="Golden-gate-bridge" transform="translate(200.000000, 1861.000000)">
            <g id="illustration" transform="translate(40.000000, 31.000000)">
                <g id="bridge" transform="translate(8.000000, 37.000000)">
                    <polygon id="Fill-3" fill="#F6F6F6" points="149.5001 88.9265 149.5001 52.7575 145.5001 48.7575 145.5001 10.7585 139.5011 10.7585 139.5011 48.7575 135.5011 52.7575 135.5011 88.9265 131.5001 92.9265 131.5001 142.9265 153.5001 142.9265 153.5001 92.9265"></polygon>
                    <polygon id="Fill-5" fill="#FF5C47" points="135.5005 139.9269 135.5005 92.7549 139.5005 88.7549 139.5005 52.5849 143.5015 48.5849 143.5015 11.7579 145.4995 11.7579 145.4995 48.5849 149.5005 52.5849 149.5005 88.7549 153.5005 92.7549 153.5005 139.9269"></polygon>
                    <path d="M142.5004,4.7595 L142.5004,10.7585" id="Stroke-7" stroke="#545E65" stroke-width="2"></path>
                    <polygon id="Stroke-9" stroke="#545E65" stroke-width="2" points="149.5001 88.9265 149.5001 52.7575 145.5001 48.7575 145.5001 10.7585 139.5011 10.7585 139.5011 48.7575 135.5011 52.7575 135.5011 88.9265 131.5001 92.9265 131.5001 142.9265 153.5001 142.9265 153.5001 92.9265"></polygon>
                    <polygon id="Fill-11" fill="#FF5C47" points="169.503 112.924 142.5 112.924 142.5 102.924 169.503 102.924"></polygon>
                    <polygon id="Stroke-13" stroke="#545E65" stroke-width="2" points="169.503 112.924 142.5 112.924 142.5 102.924 169.503 102.924"></polygon>
                    <polygon id="Fill-14" fill="#FF5C47" points="169.503 68.749 142.5 68.749 142.5 58.749 169.503 58.749"></polygon>
                    <polygon id="Stroke-15" stroke="#545E65" stroke-width="2" points="169.503 68.749 142.5 68.749 142.5 58.749 169.503 58.749"></polygon>
                    <polygon id="Fill-16" fill="#FF5C47" points="169.503 28.745 142.5 28.745 142.5 18.745 169.503 18.745"></polygon>
                    <polygon id="Stroke-17" stroke="#545E65" stroke-width="2" points="169.503 28.745 142.5 28.745 142.5 18.745 169.503 18.745"></polygon>
                    <path d="M142.5004,115.924 L142.5004,99.924" id="Stroke-18" stroke="#545E65" stroke-width="2"></path>
                    <path d="M142.5004,71.749 L142.5004,55.749" id="Stroke-19" stroke="#545E65" stroke-width="2"></path>
                    <path d="M142.5004,31.745 L142.5004,15.745" id="Stroke-20" stroke="#545E65" stroke-width="2"></path>
                    <path d="M154.5016,25.745 L154.5016,21.745" id="Stroke-21" stroke="#545E65"></path>
                    <path d="M154.5016,65.749 L154.5016,61.749" id="Stroke-22" stroke="#545E65"></path>
                    <path d="M154.5016,109.924 L154.5016,105.924" id="Stroke-23" stroke="#545E65"></path>
                    <path d="M150.5013,25.745 L150.5013,21.745" id="Stroke-24" stroke="#545E65"></path>
                    <path d="M150.5013,65.749 L150.5013,61.749" id="Stroke-25" stroke="#545E65"></path>
                    <path d="M150.5013,109.924 L150.5013,105.924" id="Stroke-26" stroke="#545E65"></path>
                    <path d="M146.5009,25.745 L146.5009,21.745" id="Stroke-27" stroke="#545E65"></path>
                    <path d="M146.5009,65.749 L146.5009,61.749" id="Stroke-28" stroke="#545E65"></path>
                    <path d="M146.5009,109.924 L146.5009,105.924" id="Stroke-29" stroke="#545E65"></path>
                    <path d="M158.502,25.745 L158.502,21.745" id="Stroke-30" stroke="#545E65"></path>
                    <path d="M158.502,65.749 L158.502,61.749" id="Stroke-31" stroke="#545E65"></path>
                    <path d="M158.502,109.924 L158.502,105.924" id="Stroke-32" stroke="#545E65"></path>
                    <path d="M162.5024,25.745 L162.5024,21.745" id="Stroke-33" stroke="#545E65"></path>
                    <path d="M162.5024,65.749 L162.5024,61.749" id="Stroke-34" stroke="#545E65"></path>
                    <path d="M162.5024,109.924 L162.5024,105.924" id="Stroke-35" stroke="#545E65"></path>
                    <path d="M139.5004,17.755 C139.5004,56.415 112.6374,87.755 79.5004,87.755 C65.9894,87.755 53.5204,82.545 43.4914,73.752" id="Stroke-36" stroke="#545E65" stroke-width="2"></path>
                    <path d="M31.4974,53.7492 L31.4974,50.6862 L35.4984,46.6862 L35.4984,33.7452 L24.4944,33.7452 L24.4944,46.6862 L28.4944,50.6862 L28.4944,53.7492 L31.4974,53.7492 Z M29.9954,88.3572 L31.4974,86.8552 L31.4974,73.7492 L28.4944,73.7492 L28.4944,86.8552 L29.9954,88.3572 Z M0.4944,147.9272 L0.4944,90.8552 L4.4954,86.8552 L4.4954,50.6862 L8.4954,46.6862 L8.4954,5.7582 L11.4944,5.7582 L11.4944,0.7602 L21.4944,0.7602 L21.4944,5.7582 L24.4944,5.7582 L24.4944,13.7452 L35.4984,13.7452 L35.4984,5.7582 L38.4974,5.7582 L38.4974,0.7602 L48.4974,0.7602 L48.4974,5.7582 L51.4964,5.7582 L51.4964,46.6862 L55.4974,50.6862 L55.4974,86.8552 L59.4974,90.8552 L59.4974,147.9272 L0.4944,147.9272 Z" id="Fill-37" fill="#F6F6F6"></path>
                    <path d="M106.5003,89.755 C72.3133,89.755 44.5003,57.456 44.5003,17.755 L48.5003,17.755 C48.5003,55.25 74.5193,85.755 106.5003,85.755 C138.4813,85.755 164.5003,55.25 164.5003,17.755 L168.5003,17.755 C168.5003,57.456 140.6873,89.755 106.5003,89.755 L106.5003,89.755 Z" id="Stroke-38" stroke="#F6F6F6" stroke-width="2"></path>
                    <path d="M166.5003,17.755 C166.5003,56.415 139.6373,87.755 106.5003,87.755 C73.3633,87.755 46.5003,56.415 46.5003,17.755" id="Stroke-39" stroke="#545E65" stroke-width="2"></path>
                    <polygon id="Fill-40" fill="#F6F6F6" points="23.4944 88.9265 23.4944 52.7575 19.4944 48.7575 19.4944 10.7585 13.4954 10.7585 13.4954 48.7575 9.4954 52.7575 9.4954 88.9265 5.4944 92.9265 5.4944 142.9265 27.4944 142.9265 27.4944 92.9265"></polygon>
                    <polygon id="Fill-41" fill="#FF5C47" points="9.4948 139.9269 9.4948 92.7549 13.4948 88.7549 13.4948 52.5849 17.4958 48.5849 17.4958 11.7579 19.4938 11.7579 19.4938 48.5849 23.4948 52.5849 23.4948 88.7549 27.4948 92.7549 27.4948 139.9269"></polygon>
                    <path d="M16.4948,4.7595 L16.4948,10.7585" id="Stroke-42" stroke="#545E65" stroke-width="2"></path>
                    <polygon id="Stroke-43" stroke="#545E65" stroke-width="2" points="23.4944 88.9265 23.4944 52.7575 19.4944 48.7575 19.4944 10.7585 13.4954 10.7585 13.4954 48.7575 9.4954 52.7575 9.4954 88.9265 5.4944 92.9265 5.4944 142.9265 27.4944 142.9265 27.4944 92.9265"></polygon>
                    <polygon id="Fill-44" fill="#FF5C47" points="43.497 112.924 16.494 112.924 16.494 102.924 43.497 102.924"></polygon>
                    <polygon id="Stroke-45" stroke="#545E65" stroke-width="2" points="43.497 112.924 16.494 112.924 16.494 102.924 43.497 102.924"></polygon>
                    <polygon id="Fill-46" fill="#FF5C47" points="43.497 68.749 16.494 68.749 16.494 58.749 43.497 58.749"></polygon>
                    <polygon id="Stroke-47" stroke="#545E65" stroke-width="2" points="43.497 68.749 16.494 68.749 16.494 58.749 43.497 58.749"></polygon>
                    <polygon id="Fill-48" fill="#FF5C47" points="43.497 28.745 16.494 28.745 16.494 18.745 43.497 18.745"></polygon>
                    <polygon id="Stroke-49" stroke="#545E65" stroke-width="2" points="43.497 28.745 16.494 28.745 16.494 18.745 43.497 18.745"></polygon>
                    <path d="M16.4948,115.924 L16.4948,99.924" id="Stroke-50" stroke="#545E65" stroke-width="2"></path>
                    <path d="M16.4948,71.749 L16.4948,55.749" id="Stroke-51" stroke="#545E65" stroke-width="2"></path>
                    <path d="M16.4948,31.745 L16.4948,15.745" id="Stroke-52" stroke="#545E65" stroke-width="2"></path>
                    <path d="M28.496,25.745 L28.496,21.745" id="Stroke-53" stroke="#545E65"></path>
                    <path d="M28.496,65.749 L28.496,61.749" id="Stroke-54" stroke="#545E65"></path>
                    <path d="M28.496,109.924 L28.496,105.924" id="Stroke-55" stroke="#545E65"></path>
                    <path d="M24.4955,25.745 L24.4955,21.745" id="Stroke-56" stroke="#545E65"></path>
                    <path d="M24.4955,65.749 L24.4955,61.749" id="Stroke-57" stroke="#545E65"></path>
                    <path d="M24.4955,109.924 L24.4955,105.924" id="Stroke-58" stroke="#545E65"></path>
                    <path d="M20.4951,25.745 L20.4951,21.745" id="Stroke-59" stroke="#545E65"></path>
                    <path d="M20.4951,65.749 L20.4951,61.749" id="Stroke-60" stroke="#545E65"></path>
                    <path d="M20.4951,109.924 L20.4951,105.924" id="Stroke-61" stroke="#545E65"></path>
                    <path d="M32.4964,25.745 L32.4964,21.745" id="Stroke-62" stroke="#545E65"></path>
                    <path d="M32.4964,65.749 L32.4964,61.749" id="Stroke-63" stroke="#545E65"></path>
                    <path d="M32.4964,109.924 L32.4964,105.924" id="Stroke-64" stroke="#545E65"></path>
                    <path d="M36.4967,25.745 L36.4967,21.745" id="Stroke-65" stroke="#545E65"></path>
                    <path d="M36.4967,65.749 L36.4967,61.749" id="Stroke-66" stroke="#545E65"></path>
                    <path d="M36.4967,109.924 L36.4967,105.924" id="Stroke-67" stroke="#545E65"></path>
                    <polygon id="Fill-68" fill="#F6F6F6" points="50.4971 88.9265 50.4971 52.7575 46.4971 48.7575 46.4971 10.7585 40.4981 10.7585 40.4981 48.7575 36.4981 52.7575 36.4981 88.9265 32.4971 92.9265 32.4971 142.9265 54.4971 142.9265 54.4971 92.9265"></polygon>
                    <polygon id="Fill-69" fill="#FF5C47" points="36.4975 139.9269 36.4975 92.7549 40.4975 88.7549 40.4975 52.5849 44.4985 48.5849 44.4985 11.7579 46.4965 11.7579 46.4965 48.5849 50.4975 52.5849 50.4975 88.7549 54.4975 92.7549 54.4975 139.9269"></polygon>
                    <path d="M43.4975,4.7595 L43.4975,10.7585" id="Stroke-70" stroke="#545E65" stroke-width="2"></path>
                    <polygon id="Stroke-71" stroke="#545E65" stroke-width="2" points="50.4971 88.9265 50.4971 52.7575 46.4971 48.7575 46.4971 10.7585 40.4981 10.7585 40.4981 48.7575 36.4981 52.7575 36.4981 88.9265 32.4971 92.9265 32.4971 142.9265 54.4971 142.9265 54.4971 92.9265"></polygon>
                    <polygon id="Fill-72" fill="#F6F6F6" points="176.5028 88.9265 176.5028 52.7575 172.5028 48.7575 172.5028 10.7585 166.5038 10.7585 166.5038 48.7575 162.5038 52.7575 162.5038 88.9265 158.5028 92.9265 158.5028 142.9265 180.5028 142.9265 180.5028 92.9265"></polygon>
                    <polygon id="Fill-73" fill="#FF5C47" points="162.5033 139.9269 162.5033 92.7549 166.5033 88.7549 166.5033 52.5849 170.5043 48.5849 170.5043 11.7579 172.5023 11.7579 172.5023 48.5849 176.5033 52.5849 176.5033 88.7549 180.5033 92.7549 180.5033 139.9269"></polygon>
                    <path d="M169.5031,4.7595 L169.5031,10.7585" id="Stroke-74" stroke="#545E65" stroke-width="2"></path>
                    <polygon id="Stroke-75" stroke="#545E65" stroke-width="2" points="176.5028 88.9265 176.5028 52.7575 172.5028 48.7575 172.5028 10.7585 166.5038 10.7585 166.5038 48.7575 162.5038 52.7575 162.5038 88.9265 158.5028 92.9265 158.5028 142.9265 180.5028 142.9265 180.5028 92.9265"></polygon>
                </g>
                <g id="clouds" transform="translate(0.000000, 131.000000)">
                    <path d="M209.467912,57 L10.0977628,57 C7.02931352,53.2618358 5.1875,48.4783765 5.1875,43.2648 C5.1875,31.3008 14.8865,21.6018 26.8505,21.6018 C32.7645,21.6018 38.1225,23.9748 42.0315,27.8158 C47.5165,20.3088 56.0975,15.2138 65.8975,14.4028 C72.5625,8.9858 81.0575,5.7358 90.3145,5.7358 C107.7455,5.7358 122.4855,17.2458 127.3555,33.0798 C129.2605,32.1698 131.2775,31.4608 133.3775,30.9638 C133.3635,30.6908 133.3355,30.4218 133.3355,30.1448 C133.3355,21.0458 140.7125,13.6688 149.8125,13.6688 C150.0935,13.6688 150.3675,13.6968 150.6445,13.7108 C157.3605,5.8468 167.3405,0.8538 178.4935,0.8538 C198.7145,0.8538 215.1075,17.2468 215.1075,37.4678 C215.1075,44.6489014 213.040049,51.3472234 209.467912,57 Z" id="Combined-Shape" fill="#F6F6F6"></path>
                    <path d="M218.860288,57 L0.125238982,57 C1.25388584,46.8827231 9.85946257,38.9895 20.2728,38.9895 C27.1318,38.9895 33.1958,42.4225 36.8658,47.6515 C42.1538,38.2875 51.9628,31.8015 63.3138,31.1915 C70.0488,25.4585 78.7658,21.9875 88.2838,21.9875 C106.8918,21.9875 122.4658,35.2295 126.0768,52.7845 C129.5308,50.5715 133.4708,49.0575 137.7028,48.4495 C137.4658,47.4035 137.3298,46.3185 137.3298,45.2015 C137.3298,37.0875 143.9298,30.4875 152.0438,30.4875 C152.7908,30.4875 153.5198,30.5615 154.2378,30.6695 C160.8878,22.2065 171.2058,16.7545 182.7798,16.7545 C202.7928,16.7545 219.0738,33.0355 219.0738,53.0495 C219.0738,54.3841725 219.001389,55.7022465 218.860288,57 Z" id="Combined-Shape" fill="#FFFFFF"></path>
                    <path d="M26.8505,21.6018 C32.7645,21.6018 38.1225,23.9748 42.0315,27.8158 C47.5165,20.3088 56.0975,15.2138 65.8975,14.4028 C72.5625,8.9858 81.0575,5.7358 90.3145,5.7358 C107.7455,5.7358 122.4855,17.2458 127.3555,33.0798 C129.2605,32.1698 131.2775,31.4608 133.3775,30.9638 C133.3635,30.6908 133.3355,30.4218 133.3355,30.1448 C133.3355,21.0458 140.7125,13.6688 149.8125,13.6688 C150.0935,13.6688 150.3675,13.6968 150.6445,13.7108 C157.3605,5.8468 167.3405,0.8538 178.4935,0.8538" id="Stroke-78" stroke="#545E65"></path>
                </g>
                <g id="sun" transform="translate(62.000000, 0.000000)">
                    <path d="M20.4994,13.0595 C20.4994,18.5825 16.0224,23.0595 10.4994,23.0595 C4.9764,23.0595 0.4994,18.5825 0.4994,13.0595 C0.4994,7.5365 4.9764,3.0595 10.4994,3.0595 C16.0224,3.0595 20.4994,7.5365 20.4994,13.0595" id="Fill-1" fill="#FF5C47"></path>
                    <path d="M88.8337,20.755 C86.0117,20.755 83.5227,22.16 82.0177,24.307 C80.5137,22.16 78.0247,20.755 75.2027,20.755 C73.4577,20.755 71.8387,21.293 70.5007,22.21 C70.9467,22.136 71.4017,22.088 71.8687,22.088 C75.9007,22.088 79.2627,24.951 80.0347,28.755 L80.5177,28.755 L83.5187,28.755 L84.0007,28.755 C84.7727,24.951 88.1357,22.088 92.1667,22.088 C92.6347,22.088 93.0897,22.136 93.5357,22.21 C92.1967,21.293 90.5787,20.755 88.8337,20.755" id="Fill-79" fill="#545E65"></path>
                    <path d="M107.0584,0.8388 C104.9714,0.8388 103.1304,1.8778 102.0184,3.4658 C100.9054,1.8778 99.0644,0.8388 96.9774,0.8388 C95.6874,0.8388 94.4904,1.2368 93.5004,1.9148 C93.8304,1.8598 94.1674,1.8248 94.5124,1.8248 C97.4944,1.8248 99.9804,3.9418 100.5514,6.7548 L100.9084,6.7548 L103.1284,6.7548 L103.4844,6.7548 C104.0554,3.9418 106.5424,1.8248 109.5234,1.8248 C109.8694,1.8248 110.2054,1.8598 110.5354,1.9148 C109.5454,1.2368 108.3494,0.8388 107.0584,0.8388" id="Fill-80" fill="#545E65"></path>
                </g>
            </g>
        </g>
    </g>
</svg>