<?xml version="1.0" encoding="UTF-8"?>
<svg width="736px" height="451px" viewBox="0 0 736 451" version="1.1" xmlns="http://www.w3.org/2000/svg" xmlns:xlink="http://www.w3.org/1999/xlink">
    <!-- Generator: Sketch 48.2 (47327) - http://www.bohemiancoding.com/sketch -->
    <title>2</title>
    <desc>Created with Sketch.</desc>
    <defs></defs>
    <g id="Page-1" stroke="none" stroke-width="1" fill="none" fill-rule="evenodd">
        <g id="2">
            <path d="M122.22,117 L492.78,117 C503.394913,117 512,125.605087 512,136.22 L512,391 L103,391 L103,136.22 C103,125.605087 111.605087,117 122.22,117 Z" id="Shape" fill="#3CB2FD" fill-rule="nonzero"></path>
            <path d="M189.64,60.5 L433.5,60.5 L433.5,447.5 L189.64,447.5 C185.144402,447.5 181.5,443.855598 181.5,439.36 L181.5,68.64 C181.5,64.1444021 185.144402,60.5 189.64,60.5 Z" id="Shape" fill="#EDF5FE" fill-rule="nonzero" transform="translate(307.500000, 254.000000) rotate(90.000000) translate(-307.500000, -254.000000) "></path>
            <rect id="Rectangle-path" fill="#1883EB" fill-rule="nonzero" x="54" y="391" width="505" height="9"></rect>
            <path d="M258,380 L357,380 L357,380.22 C357,383.412206 354.412206,386 351.22,386 L263.78,386 C260.587794,386 258,383.412206 258,380.22 L258,380 Z" id="Shape" fill="#0A6AC3" fill-rule="nonzero"></path>
            <path d="M54.34,400 L558.67,400 C558.67,407.731986 552.401986,414 544.67,414 L68.34,414 C60.6080135,414 54.34,407.731986 54.34,400 Z" id="Shape" fill="#3CB2FD" fill-rule="nonzero"></path>
            <path d="M33,94 C15.326888,94 1,108.326888 1,126 C1,143.673112 15.326888,158 33,158 C50.673112,158 65,143.673112 65,126 C65,108.326888 50.673112,94 33,94 Z M33,152.48 C22.2898398,152.48 12.6342709,146.028355 8.53566998,136.133457 C4.4370691,126.238559 6.7025855,114.849039 14.2758124,107.275812 C21.8490394,99.7025855 33.2385595,97.4370691 43.1334573,101.53567 C53.0283551,105.634271 59.48,115.28984 59.48,126 C59.4634673,140.617647 47.6176466,152.463467 33,152.48 Z" id="Shape" fill="#3CB2FD" fill-rule="nonzero"></path>
            <circle id="Oval" fill="#3CB2FD" fill-rule="nonzero" cx="33" cy="126" r="23"></circle>
            <polygon id="Shape" fill="#FFFFFF" fill-rule="nonzero" points="16.37 121.64 46.3 113.8 37.75 142.31"></polygon>
            <polygon id="Shape" fill="#EBF4FF" fill-rule="nonzero" points="46.12 113.98 25.1 130.01 26.53 137.85 28.31 132.86"></polygon>
            <polygon id="Shape" fill="#CFE7FF" fill-rule="nonzero" points="28.31 132.86 26.53 137.85 30.71 135.48"></polygon>
            <path d="M280,0 C262.326888,0 248,14.326888 248,32 C248,49.673112 262.326888,64 280,64 C297.673112,64 312,49.673112 312,32 C312,23.5130723 308.628581,15.3737471 302.627417,9.372583 C296.626253,3.37141889 288.486928,0 280,0 Z M280,58.48 C265.3755,58.48 253.52,46.6245002 253.52,32 C253.52,17.3754998 265.3755,5.52 280,5.52 C294.6245,5.52 306.48,17.3754998 306.48,32 C306.463467,46.6176466 294.617647,58.4634673 280,58.48 Z" id="Shape" fill="#3CB2FD" fill-rule="nonzero"></path>
            <circle id="Oval" fill="#3CB2FD" fill-rule="nonzero" cx="280" cy="32" r="23"></circle>
            <path d="M292.16,39 L271.54,39 L267,45 L267,20.84 C267,19.2715113 268.271511,18 269.84,18 L292.15,18 C292.904946,17.9973417 293.629883,18.2953812 294.164651,18.8282729 C294.699419,19.3611646 295.000005,20.0850494 295,20.84 L295,36.16 C295,37.7284887 293.728489,39 292.16,39 Z" id="Shape" fill="#FFFFFF" fill-rule="nonzero"></path>
            <path d="M540,30 C522.326888,30 508,44.326888 508,62 C508,79.673112 522.326888,94 540,94 C557.673112,94 572,79.673112 572,62 C572,53.5130723 568.628581,45.3737471 562.627417,39.372583 C556.626253,33.3714189 548.486928,30 540,30 Z M540,88.48 C525.3755,88.48 513.52,76.6245002 513.52,62 C513.52,47.3754998 525.3755,35.52 540,35.52 C554.6245,35.52 566.48,47.3754998 566.48,62 C566.463467,76.6176466 554.617647,88.4634673 540,88.48 Z" id="Shape" fill="#3CB2FD" fill-rule="nonzero"></path>
            <circle id="Oval" fill="#3CB2FD" fill-rule="nonzero" cx="540" cy="62" r="23"></circle>
            <path d="M556,59.11 C556,52.42 548.84,47 540,47 C531.16,47 524,52.42 524,59.11 C524,65.64 530.83,70.97 539.38,71.22 C539.59,71.22 538.72,77.12 538.9,77 C543.55,73.76 549.11,70.42 552.73,65.8 C554.14,64 556,61.58 556,59.11 Z" id="Shape" fill="#FFFFFF" fill-rule="nonzero"></path>
            <path d="M149,270 L172.66,255 L277.42,255 C279.949464,255 282,252.949464 282,250.42 L282,171.58 C282,169.050536 279.949464,167 277.42,167 L153.58,167 C152.365308,167 151.200368,167.482534 150.341451,168.341451 C149.482534,169.200368 149,170.365308 149,171.58 L149,251" id="Shape" fill="#0A55AB" fill-rule="nonzero"></path>
            <polygon id="Shape" fill="#FEFEFE" fill-rule="nonzero" points="440 294 280 294 280 340.29 290.18 329 440 329"></polygon>
            <path d="M635.84,148.68 C633.07,140.12 639.06,128.8 649.09,130.55 C661.64,132.73 657.72,144.26 659.09,153.12 C660.32,161.35 667.86,167.53 673.03,173.42 C680.29,181.7 685.58,188.65 682.91,200.12 C680.836135,208.694625 678.329595,217.158787 675.4,225.48 C673.31,231.58 669.04,239.71 670.4,246.4 C672.1,254.9 682.56,262.97 688.25,268.84 C701.31,282.3 713.83,299.02 708.6,318.93 C703.49,338.38 680.71,341.28 663.69,340.7 C661.45,340.62 659.22,340.48 656.99,340.3 C587.99,334.55 591.84,301.98 599.51,290.48 C607.18,278.98 632,265.56 632,256 C632,246.44 628.84,244.37 624.34,223.43 C622.29,213.9 625.34,199.43 640.63,187.98 C655.92,176.53 638.89,158.1 635.84,148.68 Z" id="Shape" fill="#1075FD" fill-rule="nonzero"></path>
            <path d="M661.67,327.46 C665.972163,305.740666 665.315851,283.330337 659.75,261.9 C657.46,253.12 654.33,244.16 655.81,235.21 C657.4,225.63 667.13,210.87 667.3,202.11 C667.66,183.72 646.44,146.59 647.69,131.21" id="Shape" stroke="#FFFFFF" stroke-width="1.51"></path>
            <polygon id="Shape" fill="#021867" fill-rule="nonzero" points="685.38 414 625.21 414 607.87 325 704.23 325"></polygon>
            <rect id="Rectangle-path" fill="#021867" fill-rule="nonzero" x="0" y="414" width="736" height="37"></rect>
        </g>
    </g>
</svg>