<?xml version="1.0" encoding="UTF-8"?>
<svg width="519px" height="890px" viewBox="0 0 519 890" version="1.1" xmlns="http://www.w3.org/2000/svg" xmlns:xlink="http://www.w3.org/1999/xlink">
    <!-- Generator: Sketch 48.1 (47250) - http://www.bohemiancoding.com/sketch -->
    <title>4</title>
    <desc>Created with Sketch.</desc>
    <defs></defs>
    <g id="Page-1" stroke="none" stroke-width="1" fill="none" fill-rule="evenodd">
        <g id="4">
            <g id="Layer_2" transform="translate(258.000000, 0.000000)">
                <rect id="Rectangle-path" fill="#1883EB" fill-rule="nonzero" x="12" y="11" width="238" height="494" rx="19.52"></rect>
                <path d="M230,0 L31,0 C13.8791728,-2.84217094e-14 -1.13686838e-13,13.8791728 -1.13686838e-13,31 L-1.13686838e-13,486 C-2.27373675e-13,503.120827 13.8791728,517 31,517 L230,517 C247.120827,517 261,503.120827 261,486 L261,31 C261,13.8791728 247.120827,-2.84217094e-14 230,0 Z M230.46,505 L31.54,505 C20.748356,505 12,496.251644 12,485.46 L12,30.54 C12,19.748356 20.748356,11 31.54,11 L230.46,11 C241.251644,11 250,19.748356 250,30.54 L250,485.46 C250,496.251644 241.251644,505 230.46,505 Z" id="Shape" fill="#3CB2FD" fill-rule="nonzero"></path>
                <circle id="Oval" fill="#0A55AB" fill-rule="nonzero" cx="130" cy="478" r="17"></circle>
                <rect id="Rectangle-path" fill="#BBE3FE" fill-rule="nonzero" x="23" y="68" width="216" height="383"></rect>
                <path d="M118.5,39.5 L160.5,39.5" id="Shape" stroke="#021867" stroke-width="3" stroke-linecap="round"></path>
                <circle id="Oval" fill="#021867" fill-rule="nonzero" cx="102.5" cy="39.5" r="3.5"></circle>
                <path d="M62.58,220.86 L85.7,206 L190.41,206 C192.944987,206 195,203.944987 195,201.41 L195,122.59 C195,120.055013 192.944987,118 190.41,118 L66.59,118 C64.055013,118 62,120.055013 62,122.59 L62,201" id="Shape" fill="#0A55AB" fill-rule="nonzero"></path>
                <polygon id="Shape" fill="#FEFEFE" fill-rule="nonzero" points="214 298 54 298 54 345.61 64.18 334 214 334"></polygon>
                <path d="M97.46,386 L47.54,386 C46.1371967,386 45,387.137197 45,388.54 L45,420.45 C45,421.852803 46.1371967,422.99 47.54,422.99 L75.81,422.99 L91.68,432.42 C91.9226467,432.563474 92.2296314,432.537004 92.4441361,432.35411 C92.6586408,432.171217 92.7333099,431.872277 92.63,431.61 L89.19,423 L97.45,423 C98.8528033,423 99.99,421.862803 99.99,420.46 L99.99,388.54 C99.9900108,387.141093 98.8588964,386.005508 97.46,386 Z" id="Shape" fill="#0A55AB" fill-rule="nonzero"></path>
                <rect id="Rectangle-path" fill="#FFFFFF" fill-rule="nonzero" x="54" y="396" width="37" height="6" rx="3"></rect>
                <rect id="Rectangle-path" fill="#FFFFFF" fill-rule="nonzero" x="54" y="407" width="37" height="6" rx="3"></rect>
            </g>
            <ellipse id="Oval" fill="#F0F5FF" fill-rule="nonzero" transform="translate(271.766245, 857.953590) rotate(-5.230000) translate(-271.766245, -857.953590) " cx="271.766245" cy="857.95359" rx="67.5" ry="13.04"></ellipse>
            <ellipse id="Oval" fill="#F0F5FF" fill-rule="nonzero" cx="84.5" cy="880" rx="67.5" ry="10"></ellipse>
            <path d="M36.23,873.22 C30.99,857.5 34.6,840.71 34.6,840.71 C34.6,840.71 21.6,806.58 6.97,816.33 C-7.66,826.08 5.34,847.21 11.85,865.09 C18.36,882.97 26.12,889.17 32.98,886.22 C36.06,884.9 37.86,878.09 36.23,873.22 Z" id="Shape" fill="#4EA5F8" fill-rule="nonzero"></path>
            <path d="M232.9,850.46 C223.659416,850.771825 214.409823,850.226156 205.27,848.83 C205.27,848.83 164.64,840.7 169.18,863.1 C172.67,880.33 198.18,873.72 217.18,872.75 C236.18,871.78 244.38,866.18 243.58,858.75 C243.26,855.43 238,850.34 232.9,850.46 Z" id="Shape" fill="#4EA5F8" fill-rule="nonzero"></path>
            <path d="M166.26,595.29 L164.63,653.8 C164.37,658.04 163.9,662.3 163.25,666.56 C160.25,686.67 153.45,706.79 146.36,725.41 C137.53,748.62 126.27,774.25 107.19,790.99 C107.01,791.15 106.83,791.3 106.65,791.45 C98.33,798.72 89.55,805.4 80.58,811.8 C66.23,822.06 50.92,833.73 34.58,840.71 C23.2,845.59 6.95,816.33 10.2,814.71 C12.2158103,813.164763 14.1328939,811.49483 15.94,809.71 C34.16,792.89 88.94,738.41 93.09,720.41 C95.63,709.41 93.77,675.23 91.42,644.88 C89.23,616.79 86.59,592.01 86.59,592.01 L166.26,595.29 Z" id="Shape" fill="#021867" fill-rule="nonzero"></path>
            <path d="M174.39,722.06 C177.25,700.56 163.01,593.66 163.01,593.66 L242.65,596.91 L241,655.42 C239.48,679.7 234.56,704.42 226,727.03 C226,727.03 205.26,847.21 203.64,858.58 C202.02,869.95 169.51,858.58 169.51,855.33 C169.51,852.08 170,755.11 174.39,722.06 Z" id="Shape" fill="#021867" fill-rule="nonzero"></path>
            <path d="M325.62,226.21 C324.71,236.31 318.85,296.21 307.08,311.68 C291.8,331.82 224,369.33 224,369.33 C220.330175,373.744785 214.537735,375.795889 208.907468,374.67427 C203.277201,373.55265 198.712982,369.43837 197.015137,363.954278 C195.317292,358.470187 196.75839,352.496693 200.77,348.39 C200.77,348.39 269.77,308.7 285.52,288.03 C295.95,274.4 311.79,224.58 313.07,220.55 L313.15,220.29 C313.42,219.37 314.34,216.29 314.74,215.03 C315.88,211.58 311.88,209.67 312.95,207.94 C313.63,206.85 318.21,209.32 319.71,209.94 C321.21,210.56 323.34,199.94 328.85,195.2 C334.36,190.46 335.48,194.59 334.85,196.09 C334.22,197.59 335.5,199.31 335.72,199.84 C338.22,205.94 326.71,224.48 325.62,226.21 Z" id="Shape" fill="#FAFDFF" fill-rule="nonzero"></path>
            <path d="M95.09,483.28 L86.45,510 C86.45,510 37.06,457 38.45,434.69 C40.25,406.34 111.1,347.34 111.1,347.34 C116.087147,339.878656 126.178628,337.872896 133.64,342.86 C141.101344,347.847147 143.107104,357.938628 138.12,365.4 C138.12,365.4 74.67,416.72 72.12,441.84 C70.88,453.62 95.09,483.28 95.09,483.28 Z" id="Shape" fill="#FAFDFF" fill-rule="nonzero"></path>
            <path d="M167.65,418.17 L149.35,596.51 C149.35,596.51 163.44,598.22 167.64,598.03 C171.84,597.84 185.93,596.51 185.93,596.51 L167.65,418.17 Z" id="Shape" fill="#4EA5F8" fill-rule="nonzero"></path>
            <path d="M247.44,609.38 C247.44,609.38 201.71,623.1 178.84,620.05 L165.67,476.88 L152.5,620 C129.63,623 83.9,609.33 83.9,609.33 C83.9,609.33 62.56,604.76 68.66,571.22 C73.55,544.28 75.6,513.52 89.04,489.12 C98.89,471.22 107.04,452.25 110.9,432.12 C114.68,412.53 111.72,392.26 109.9,372.59 C109.26,365.49 107,353.59 111.3,347.13 C117.4,337.98 132.64,333.41 149.41,336.46 L181.85,336.46 C198.62,333.46 213.85,337.98 219.96,347.13 C224.26,353.58 221.96,365.48 221.36,372.59 C219.58,392.25 216.62,412.53 220.36,432.12 C224.25,452.24 232.36,471.22 242.22,489.12 C255.66,513.52 257.71,544.29 262.6,571.22 C268.78,604.8 247.44,609.38 247.44,609.38 Z" id="Shape" fill="#ECF4FC" fill-rule="nonzero"></path>
            <path d="M210.4,334.65 C200.96,349.65 160.63,359.22 136.04,354.71 C135.46,354.6 134.85,354.48 134.28,354.35 C128,353 123,350.61 119.87,347.13 C110.25,336.22 123.46,310.02 131.87,289.48 C132.99,286.75 134.02,284.12 134.87,281.63 C136.116533,278.358513 137.037651,274.97215 137.62,271.52 C138.12283,267.942543 139.01823,264.431366 140.29,261.05 C144.01,251.18 150.82,243.24 159.88,239.53 C163.083683,238.227981 166.485578,237.480646 169.94,237.32 C179.883597,236.958113 189.473226,241.036545 196.11,248.45 C204.84,258.07 204.71,270.45 207.47,282.35 C209.76135,291.841145 211.431558,301.471563 212.47,311.18 C213.17,318.31 214.43,328.21 210.4,334.65 Z" id="Shape" fill="#4EA5F8" fill-rule="nonzero"></path>
            <rect id="Rectangle-path" fill="#4EA5F8" fill-rule="nonzero" transform="translate(148.122231, 412.485023) rotate(-49.760000) translate(-148.122231, -412.485023) " x="51.2472311" y="407.610023" width="193.75" height="9.75"></rect>
            <path d="M88.79,478.26 C92.13,479.37 94.79,487.81 95.13,490.67 C96.19,498.61 89.8,505.15 86.69,511.9 C82.4,521.21 85.19,530.07 84.57,539.73 C84.01,548.43 81.29,557.23 74.16,562.73 C67.99,567.53 61.16,573.82 53.39,575.73 C42.21,578.47 45.98,558.57 47.03,553.15 C49.69,539.42 51.81,524.81 56.68,511.69 C57.8738092,508.372209 59.3981402,505.18284 61.23,502.17 C63.97,497.77 67.48,493.73 70.23,489.26 C72.46,485.64 74.82,481.48 78.11,478.7 C81.16,476.17 85.17,477.06 88.79,478.26 Z" id="Shape" fill="#4EA5F8" fill-rule="nonzero"></path>
            <path d="M57.11,512.21 C57.11,512.21 31.01,542.5 29.17,548.07 C27.33,553.64 35.17,561.79 39.95,558.44 C44.73,555.09 57.54,542.64 57.54,542.64 L57.11,512.21 Z" id="Shape" fill="#4EA5F8" fill-rule="nonzero"></path>
        </g>
    </g>
</svg>