<?xml version="1.0" encoding="UTF-8"?>
<svg width="604px" height="548px" viewBox="0 0 604 548" version="1.1" xmlns="http://www.w3.org/2000/svg" xmlns:xlink="http://www.w3.org/1999/xlink">
    <!-- Generator: Sketch 48.1 (47250) - http://www.bohemiancoding.com/sketch -->
    <title>8</title>
    <desc>Created with Sketch.</desc>
    <defs></defs>
    <g id="Page-1" stroke="none" stroke-width="1" fill="none" fill-rule="evenodd">
        <g id="8">
            <path d="M514.18,480.6 C569.34,487.7 603.5,497.6 603.5,508.43 C603.5,530.06 468.5,547.6 302,547.6 C135.5,547.6 0.5,530.06 0.5,508.43 C0.5,497.6 34.66,487.7 89.82,480.6 L514.18,480.6 Z" id="Shape" fill="#DDE9F2" fill-rule="nonzero"></path>
            <g id="Group" transform="translate(127.000000, 145.000000)" fill="#EEF6FF" fill-rule="nonzero">
                <rect id="Rectangle-path" x="0.59" y="0.6" width="321.41" height="335"></rect>
            </g>
            <path d="M140.76,77.46 C140.2,78.74 135.57,79.46 135.57,79.46 C135.57,79.46 138.57,104.61 125.37,108.19 C123.049017,108.85351 120.653209,109.219769 118.24,109.28 L121.36,121.41 L88.25,125.17 C88.25,125.17 91.41,100.17 91.25,94.45 L90.89,94.24 L83.5,70.68 C83.5,70.68 80.5,56.46 89.77,64.83 L96.5,53.66 L125.69,47.44 C125.69,47.44 131.51,57.34 132.69,60.97 C133.11,62.31 133.25,65.24 133.96,66.45 C135.11,68.45 138.78,72.27 139.36,73.75 C139.94,75.23 141.16,76.55 140.76,77.46 Z" id="Shape" fill="#FCDFDC" fill-rule="nonzero"></path>
            <polygon id="Shape" fill="#F9C5BF" fill-rule="nonzero" points="118.23 109.34 102.23 102.7 119.93 115.87"></polygon>
            <path d="M135.27,45.6 C134.021878,46.7703967 132.630859,47.7783812 131.13,48.6 C131.026622,48.6714157 130.916013,48.7317483 130.8,48.78 C130.240792,49.0829038 129.66297,49.3501047 129.07,49.58 C128.97,49.58 128.86,49.65 128.75,49.7 C123.75,51.3 104.64,51.01 99.14,56.09 C96.64,58.39 96.02,67.53 92.66,68.01 C90.96,68.24 88.41,63.67 86.93,64.24 C85.45,64.81 83.93,65.4 84.79,71.92 C85.65,78.44 89.73,83.47 90.79,87.5 C91.7,90.79 90.96,101.1 90.96,101.1 C90.96,101.1 90.77,100.9 90.39,100.54 C87.56,97.73 74.82,84.8 66.85,72.03 C62.63,65.27 64.01,56.65 67.76,49.03 C63.05,45.64 55.76,42.1 48.94,39.03 C39.1,34.55 37.3,27.39 38.19,20.23 C38.7365033,16.1095729 40.5582345,12.2633075 43.4,9.23 C47.53,4.89 54.54,1.7 65.95,3.23 C79.44,4.98 85.25,20.23 87.64,30.47 C93.64,30.19 104.5,32.71 104.5,32.71 C112.22,15.18 120.96,13.5 125.7,12.51 C130.44,11.52 141.04,16.81 141.65,29.38 C142.114988,35.4777328 139.764631,41.4530913 135.27,45.6 Z" id="Shape" fill="#06038B" fill-rule="nonzero"></path>
            <path d="M90.43,100.5 C87.6,97.69 74.87,84.75 66.9,71.99 C62.68,65.23 64.06,56.61 67.81,48.99 C63.1,45.6 55.81,42.06 48.99,38.99 C39.15,34.52 37.36,27.36 38.25,20.19 C38.7893103,16.0674525 40.6120368,12.2190855 43.46,9.19 C43.86,8.77 54.33,15.51 55.38,16.19 C59.4319877,18.6439663 63.2541665,21.4587232 66.8,24.6 C71.9658286,29.3766373 75.6488852,35.538207 77.41,42.35 C78.3474849,45.7957467 78.8315674,49.3490466 78.85,52.92 C78.85,56.6 77.05,60.33 77.85,64 C78.85,68.49 80.56,72.8 81.85,77.2 C82.8494775,80.7538184 84.1889982,84.2030843 85.85,87.5 C87.44,90.5 89.42,93.7 89.85,97.18 C90.03,98.37 90.28,99.6 90.43,100.5 Z" id="Shape" fill="#00006D" fill-rule="nonzero"></path>
            <path d="M76.9547086,495.94194 C80.8207018,495.94194 83.9547086,499.075947 83.9547086,502.94194 L83.9547086,519.63194 L69.9847086,519.63194 L69.9847086,502.91194 C70.0011419,499.069343 73.1121113,495.958373 76.9547086,495.94194 Z" id="Shape" fill="#FCDFDC" fill-rule="nonzero" transform="translate(76.969709, 507.786940) rotate(-179.660000) translate(-76.969709, -507.786940) "></path>
            <path d="M109.3,525.01 C105.47,528.24 100.3,528.01 95,527.71 L93.29,527.63 C89.58,527.45 85.93,527.42 82.8,528.74 C77.37,531.03 70.8,530.51 69.87,526.32 C68.94,522.13 70.08,513.48 70.08,513.48 C70.08,513.48 78.87,525.63 84,511 C88.11,511.32 92.44,511.74 96.55,512.07 C100.66,512.4 106.35,511.43 109.62,514.2 C110.008578,514.52391 110.34575,514.904915 110.62,515.33 C110.876863,515.665957 111.091784,516.031994 111.26,516.42 C112.757794,519.382052 111.934379,522.990795 109.3,525.01 Z" id="Shape" fill="#06038B" fill-rule="nonzero"></path>
            <path d="M132.61,275.38 C132.61,275.38 126.74,341.07 121.92,359.75 C120.46,365.41 119.11,370.56 118.03,374.39 C117.47796,376.650704 116.776417,378.872257 115.93,381.04 C115.02,382.67 110.7,396.2 106.29,410.69 C105.47,413.37 104.65,416.07 103.85,418.76 C99.77,432.29 96.13,444.89 95.61,447.58 C94.54,453.17 87.67,489.7 87.92,501.11 C87.99,503.92 82.46,504.54 80.45,504.41 C78.6256651,504.132397 76.8241609,503.721293 75.06,503.18 C72.6079704,502.502092 70.0901743,502.089723 67.55,501.95 C66.6834515,501.870434 65.9677974,501.239688 65.78,500.39 C63.8774233,490.665586 62.6776533,480.816778 62.19,470.92 C61.6886075,462.138128 62.0234479,453.328476 63.19,444.61 C64.0743575,437.724899 65.9926202,431.012665 68.88,424.7 C71.88,418.57 74.17,410.52 75.96,401.46 C78.1569235,389.823764 79.5402744,378.048574 80.1,366.22 C81.44,341.45 79.86,272.63 76.17,268.22 L132.61,275.38 Z" id="Shape" fill="#FEE983" fill-rule="nonzero"></path>
            <path d="M106.29,410.69 C105.47,413.37 104.65,416.07 103.85,418.76 L102.97,420.1 C102.97,420.1 68.83,472.1 62.34,470.96 L62.19,470.96 C61.6886075,462.178128 62.0234479,453.368476 63.19,444.65 C65.1738755,442.988215 67.3823119,441.614675 69.75,440.57 C76.75,437.78 82.29,430.82 86.47,426.64 C90.65,422.46 97.62,412.71 101.8,411.31 C103.237884,410.795861 104.76659,410.58477 106.29,410.69 Z" id="Shape" fill="#EFD66C" fill-rule="nonzero"></path>
            <path d="M44.639169,479.755751 C48.5051623,479.755751 51.639169,482.889758 51.639169,486.755751 L51.639169,503.475751 L37.679169,503.475751 L37.679169,486.715751 C37.7010204,482.880937 40.8043548,479.777603 44.639169,479.755751 Z" id="Shape" fill="#FCDFDC" fill-rule="nonzero" transform="translate(44.659169, 491.615751) rotate(-99.680000) translate(-44.659169, -491.615751) "></path>
            <path d="M42.35,526.74 L42.11,526.91 C41.6766777,527.214603 41.2144539,527.47586 40.73,527.69 C38.2219386,528.788722 35.3012967,528.298022 33.29,526.44 C28.45,522.44 28.65,515.28 27.62,508.83 C27.49,508.02 27.34,507.21 27.17,506.42 C26.7697324,504.506459 26.0424036,502.676297 25.02,501.01 C21.8,496.06 21.19,489.56 25.15,487.86 C29.11,486.16 38.1,485.79 38.1,485.79 C38.1,485.79 27.4,496.62 42.7,499.11 C43.09,503.21 43.45,507.54 43.84,511.66 C44.27,516.4 46.93,523.29 42.35,526.74 Z" id="Shape" fill="#06038B" fill-rule="nonzero"></path>
            <path d="M139.33,407.1 C137.64,415.5 135.4,422.3 132.47,426.59 C124.22,438.59 106.18,456.16 88.97,471.69 C73.81,485.35 59.28,497.45 52.64,502.92 C50.24,504.92 48.86,501.83 48.86,501.83 C48.33,500.53 48.4,498.64 48.21,497.25 C47.8609013,494.51384 47.1895764,491.82854 46.21,489.25 C45.6,487.73 42.85,484.18 44.3,482.59 C44.66,482.2 45.11,481.7 45.62,481.13 C59.82,465.44 73.35,449.03 86.35,432.35 C90.35,427.22 94.29,422.05 97.94,416.66 C101.175226,412.074942 103.172925,406.732819 103.74,401.15 C104.24,395.38 102.93,389.43 102.65,383.66 C100.84,346.86 79.49,298.4 76.01,269.14 C84.24,269.5 112.01,274.02 120.25,274.37 L142.2,277.51 C142.2,277.51 148.09,363.6 139.33,407.1 Z" id="Shape" fill="#FEF7D8" fill-rule="nonzero"></path>
            <path d="M139.33,407.1 C137.64,415.5 135.4,422.3 132.47,426.59 C124.22,438.59 106.18,456.16 88.97,471.69 C88.7482885,471.420738 88.5664291,471.121007 88.43,470.8 C87.06,467.27 91.6,464.74 93.79,462.93 C100.79,457.13 105.63,448.25 111.13,441.06 C115.66,435.14 120.58,429.53 125.34,423.79 C129.94,418.26 133.73,411.6 139.33,407.1 Z" id="Shape" fill="#FEF7D8" fill-rule="nonzero"></path>
            <path d="M93.03,279.78 C97.25,288.36 102.1,296.87 109.26,303.21 C116.42,309.55 126.26,313.46 135.65,311.43" id="Shape" stroke="#111B97" stroke-linecap="round"></path>
            <path d="M155.43,275.67 C155.43,275.67 173.04,276.49 171.52,271.13 C170,265.77 144.6,196.2 144.6,196.2 C144.6,196.2 156.02,272.6 155.43,275.67 Z" id="Shape" fill="#CBE2EF" fill-rule="nonzero"></path>
            <path d="M93.09,117.26 C93.09,117.26 119.4,129.1 119.93,115.87 L122.72,122.87 C122.72,122.87 125.51,129.87 126.9,134.02 C128.54,138.95 141.74,163.85 145.01,174.43 C145.64,176.43 146.4,185.58 146.4,185.58 C146.4,185.58 133.86,160.5 131.07,156.32 C128.28,152.14 93.09,117.26 93.09,117.26 Z" id="Shape" fill="#CBE2EF" fill-rule="nonzero"></path>
            <path d="M153.26,280 C146.17,280.54 94.9,273.3 94.9,273.3 L71.5,269.85 L65.81,269.01 L63.19,268.62 C62.7971972,268.558729 62.485413,268.256975 62.4113356,267.866385 C62.3372581,267.475794 62.5169074,267.080837 62.86,266.88 C65.3881416,265.376632 67.2693125,262.98954 68.14,260.18 C71.9398443,247.824642 73.8052412,234.955765 73.67,222.03 C73.67,218.03 73.41,214.03 73,210.03 C72.85,208.51 72.67,207.03 72.47,205.47 C70.47,189.7 66.62,174.1 66.47,158.33 C66.2060686,147.736525 69.4705025,137.355765 75.75,128.82 C77.14,126.82 86.19,112.82 89.34,114.43 C114.57,127.56 126.81,139.73 139.78,165.43 C144.57,174.91 146.45,185.86 148.78,196.18 C152.844144,214.295911 155.918696,232.61971 157.99,251.07 C158.27,253.61 159.68,260.28 159.83,266.58 C159.92,273.31 158.69,279.6 153.26,280 Z" id="Shape" fill="#06038B" fill-rule="nonzero"></path>
            <path d="M211.2,153.72 C210.68,154.93 208.43,155.72 207.38,156.2 C206.57,156.6 205.62,157.04 204.61,157.47 C206.32,156.85 208.05,156.3 209.78,155.84 C210.17,155.74 210.58,155.54 210.86,155.84 C211.14,156.14 203.06,161.22 202.35,161.59 C199.22,163.28 194.89,165.4 195.35,165.79 C196.9,167.27 207.65,163.57 207.72,165.79 C207.72,166.56 204.14,167.46 203.6,167.64 C200.44,168.64 197.37,169.89 194.16,170.82 C191.69,171.54 189.16,172.2 186.76,173.03 L179.66,175.78 L156.31,194.78 C151.289912,199.847893 145.988171,204.628808 140.43,209.1 C133.43,214.94 126.08,222.01 117.13,224.48 C114.23,225.29 108.38,227.36 105.48,225.66 C102.8,224.08 99.08,213.21 97.22,207.77 C95.36,202.33 80.13,155.77 79.78,152.66 C79.43,149.55 77.71,134.08 92.44,131.18 C107.17,128.28 113.02,152.71 113.02,152.71 C113.02,152.71 121.78,191.87 123.29,194.21 C124.42,195.95 146.83,182.06 158.15,174.9 L158.81,174.47 L173.21,164.96 C174.3,161.64 177.95,150.44 178.91,148.73 C180.05,146.73 183.48,141.41 183.46,140.61 C183.44,139.81 185.89,142.13 185.17,144.55 C184.45,146.97 181.81,152.23 183.04,153.39 C184.27,154.55 185.48,154.91 189.42,153.2 C193.36,151.49 198.09,149.75 199.28,149.32 C200.47,148.89 204.79,146.75 205.64,148.32 C206.49,149.89 194.64,155.84 194.29,156.25 C193.94,156.66 193.94,157.46 194.73,157.42 C195.52,157.38 203.43,154.77 204.61,154.34 C205.61,153.98 206.61,153.68 207.61,153.39 C208.27,153.15 212.01,151.86 211.2,153.72 Z" id="Shape" fill="#FCDFDC" fill-rule="nonzero"></path>
            <path d="M454.5,131.99 C441.5,139.16 417.39,152.21 407.5,156.14 C402.338314,158.392553 396.345502,157.520378 392.04,153.89 C387.58,150.13 385.94,144.68 383.11,139.89 C381.11,136.44 378.92,133.07 376.82,129.67 C372.33,122.39 367.25,114.98 364.12,107 C364.06,106.83 363.46,104.93 363.3,104.46 C363.3,104.46 363.3,104.46 363.3,104.46 C362.45,104.14 347.25,99.74 344.83,98.29 C342.41,96.84 337.25,91.58 336.24,91.58 C335.23,91.58 338.24,88.58 341.24,89.58 C344.24,90.58 350.77,94.04 352.24,92.58 C353.71,91.12 354.24,89.58 352.24,84.58 C350.24,79.58 348.18,73.58 347.68,72.09 C347.18,70.6 344.68,65.09 346.68,64.09 C348.68,63.09 355.76,78.09 356.26,78.57 C356.76,79.05 357.77,79.06 357.76,78.06 C357.75,77.06 354.7,67.06 354.2,65.56 C353.78,64.31 353.44,63.03 353.1,61.76 C352.88,60.84 351.37,56.1 353.69,57.18 C355.19,57.87 356.07,60.72 356.69,62.05 C357.17,63.05 357.69,64.28 358.2,65.56 C357.47,63.4 356.83,61.22 356.32,59.03 C356.21,58.54 355.97,58.03 356.32,57.68 C356.84,57.18 362.82,67.68 363.26,68.53 C365.26,72.53 367.8,78.02 368.26,77.53 C370.16,75.63 365.86,62.02 368.69,62.01 C369.69,62.01 370.69,66.55 370.88,67.23 C372.1,71.23 373.51,75.13 374.57,79.23 C375.39,82.35 376.14,85.52 377.1,88.59 C377.44,89.59 377.1,92.28 378.1,94.37 L378.46,95.1 C378.57,95.6 378.7,96.31 378.87,97.2 C378.87,97.31 378.93,97.44 378.95,97.56 C380.19,103.94 385.95,110.23 389.73,115.26 C394.61,121.7 399.85,127.87 404.8,134.26 L440.95,110.39 L441.16,110.25 C444.444471,108.081033 448.541352,107.535623 452.278873,108.769765 C456.016393,110.003907 458.982927,112.881682 460.33,116.58 L460.45,116.93 C462.373194,122.728438 459.86701,129.071822 454.5,131.99 Z" id="Shape" fill="#9A5720" fill-rule="nonzero"></path>
            <path d="M429.68,117.49 L439.23,140.41 L455.53,131.41 C457.682104,130.553696 460.136771,131.047766 461.79,132.67 C464.57,135.45 465.96,142.41 465.96,146.58 C465.96,150.75 457.61,214.35 457.61,214.35 L518.81,214.35 C518.81,214.35 521.5,157.6 520.57,142.19 C519.69,127.3 511.79,93.43 511.79,93.43 L478.58,93.43 C478.58,93.43 440.69,102.3 429.68,117.49 Z" id="Shape" fill="#20E8DD" fill-rule="nonzero"></path>
            <polygon id="Shape" fill="#35F6EB" fill-rule="nonzero" points="429.7 117.5 422.48 122.31 431.5 144.43 439.25 140.38"></polygon>
            <path d="M464.87,129.92 C470.361191,137.575371 473.054939,146.885218 472.5,156.29" id="Shape" fill="#20E8DD" fill-rule="nonzero"></path>
            <path d="M518.232022,474.248573 L531.942022,474.248573 L531.942022,491.078573 C531.942022,494.867246 528.870696,497.938573 525.082022,497.938573 C521.293349,497.938573 518.222022,494.867246 518.222022,491.078573 L518.222022,474.248573 L518.232022,474.248573 Z" id="Shape" fill="#9A5720" fill-rule="nonzero" transform="translate(525.082022, 486.093573) rotate(-2.580000) translate(-525.082022, -486.093573) "></path>
            <path d="M532.75,498.81 C532.75,499.17 532.75,499.54 532.75,499.9 C532.75,500.04 532.75,500.17 532.75,500.31 C532.75,500.67 532.75,501.03 532.75,501.38 C532.728219,502.178129 532.648004,502.973591 532.51,503.76 C531.73,507.99 525.25,508.82 519.71,506.76 C511.48,503.76 500.28,509.76 493.06,504.28 C492.551711,503.900728 492.09164,503.460806 491.69,502.97 C491.486006,502.735829 491.302026,502.484948 491.14,502.22 C491.004564,502.019205 490.884232,501.808626 490.78,501.59 C490.657147,501.34722 490.550254,501.096689 490.46,500.84 C489.88775,499.190843 489.962805,497.385952 490.67,495.79 C492.89,490.24 500.35,491.37 505.19,490.79 L518.48,488.73 C524.29,503.1 532.25,491.44 532.25,491.44 C532.25,491.44 532.68,495.11 532.75,498.81 Z" id="Shape" fill="#322C73" fill-rule="nonzero"></path>
            <path d="M532.75,499.9 C532.75,500.04 532.75,500.17 532.75,500.31 C532.75,500.67 532.75,501.03 532.75,501.38 C530.439683,502.134986 528.051004,502.624799 525.63,502.84 C521.513103,503.226622 517.361069,502.732332 513.45,501.39 C512.82,501.17 512.18,500.92 511.56,500.68 C508.031316,498.700124 503.751395,498.595279 500.13,500.4 C499.52,500.62 498.91,500.84 498.28,501.04 C495.968235,501.773616 493.564573,502.177593 491.14,502.24 C491.004564,502.039205 490.884232,501.828626 490.78,501.61 C490.657147,501.36722 490.550254,501.116689 490.46,500.86 C492.959942,500.851827 495.444422,500.467525 497.83,499.72 C498.43,499.53 499.02,499.31 499.62,499.09 C503.588959,497.162143 508.244716,497.270157 512.12,499.38 L513.95,500.08 C520.059992,502.127069 526.680324,502.063683 532.75,499.9 Z" id="Shape" fill="#F9F7F7" fill-rule="nonzero"></path>
            <path d="M400.205242,508.396079 L414.169329,508.396079 L414.169329,525.156992 C414.169329,529.032446 411.027653,532.174121 407.1522,532.174121 C403.276747,532.174121 400.135071,529.032446 400.135071,525.156992 L400.135071,508.396079 L400.205242,508.396079 Z" id="Shape" fill="#9A5720" fill-rule="nonzero" transform="translate(407.152200, 520.285100) rotate(4.004173) translate(-407.152200, -520.285100) "></path>
            <path d="M413.71,528.12 C413.693195,530.562185 413.553016,533.001961 413.29,535.43 C413.29,535.5 413.29,535.57 413.29,535.65 C413.29,536.05 413.19,536.46 413.14,536.86 C413.14,536.95 413.14,537.04 413.14,537.12 C412.995473,538.090722 412.781592,539.049843 412.5,539.99 C410.69,545.65 402.61,542.34 398.98,541.17 C395.584389,540.099528 392.084813,539.392239 388.54,539.06 C385.99,538.8 381.73,539.49 379.54,538.67 C376.985621,537.818483 374.761714,536.189017 373.18,534.01 C373.153382,533.979091 373.129931,533.94559 373.11,533.91 C372.842133,533.470243 372.627302,533.000301 372.47,532.51 L372.47,532.42 C372.005711,530.688131 372.280932,528.841251 373.23,527.32 C376.1,522.15 383.01,524.15 387.83,524.15 L400.28,524.26 C404.02,538.78 413.71,528.12 413.71,528.12 Z" id="Shape" fill="#322C73" fill-rule="nonzero"></path>
            <path d="M413.27,535.6 C413.27,536 413.17,536.41 413.12,536.81 C413.12,536.9 413.12,536.99 413.12,537.07 C411.211496,537.461666 409.268278,537.659338 407.32,537.66 C403.351572,537.682739 399.427445,536.82551 395.83,535.15 C395.24,534.87 394.67,534.58 394.08,534.27 C392.312507,533.197558 390.346471,532.493459 388.3,532.2 C386.575848,532.174397 384.86035,532.44847 383.23,533.01 C382.62,533.17 382.02,533.34 381.42,533.48 C378.722193,534.118286 375.933671,534.280724 373.18,533.96 C373.153382,533.929091 373.129931,533.89559 373.11,533.86 C372.842133,533.420243 372.627302,532.950301 372.47,532.46 C375.340823,532.911096 378.272008,532.799011 381.1,532.13 C381.68,531.99 382.27,531.82 382.85,531.67 C384.637829,531.06962 386.514214,530.775484 388.4,530.8 C390.639886,531.103679 392.792129,531.869904 394.72,533.05 C395.3,533.33 395.85,533.62 396.42,533.9 C401.696189,536.306823 407.619383,536.904415 413.27,535.6 Z" id="Shape" fill="#F9F7F7" fill-rule="nonzero"></path>
            <path d="M518.89,243.14 C518.89,243.14 517.5,346.26 520.29,378.3 C523.08,410.34 534.22,475.84 534.22,475.84 L516.11,480.02 C516.11,480.02 486.85,385.27 484.11,364.37 C481.37,343.47 474.36,301.67 474.36,301.67 L470.18,264.05 L518.89,243.14 Z" id="Shape" fill="#2C11A8" fill-rule="nonzero"></path>
            <path d="M498.04,282.6 C481.85,300.91 469.92,314.94 460.84,331.01 C451.94,346.73 445.74,364.38 440.91,389.9 C437.59,407.42 433.91,427.01 430.61,445.26 C430.51,445.82 430.4,446.37 430.3,446.93 C424.41,478.93 419.45,506.5 418.71,510.59 C418.64,510.92 418.61,511.11 418.61,511.11 L396.32,509.72 C396.32,509.72 398.83,485.85 402.12,455.28 C402.18,454.67 402.25,454.04 402.32,453.41 C407.87,401.92 415.5,332.71 417.23,325.79 C420.02,314.64 457.64,214.32 457.64,214.32 L518.83,214.32 C518.83,214.32 530.09,246.4 498.04,282.6 Z" id="Shape" fill="#4322D2" fill-rule="nonzero"></path>
            <path d="M461.83,233.12 C462.74,241.86 465.5,250.77 471.64,257.05 C477.78,263.33 487.88,266.26 495.71,262.28" id="Shape" stroke="#2C11A8" stroke-linecap="round"></path>
            <path d="M507.9,73.35 L508.71,73.35 L505.85,93.35 L478.71,93.35 L478.71,76.27 C467.92,75.35 459.62,61.65 460.94,51.74 C461.02,51.15 461.21,49.29 461.56,47.57 C461.91,45.85 462.43,44.28 463.16,44.28 C461.566832,44.281516 460.073229,43.5052523 459.158938,42.2005455 C458.244648,40.8958387 458.024796,39.2269769 458.57,37.73 L467.34,13.63 C484.06,13.63 497.99,38.71 497.99,38.71 L509.14,61 L507.9,73.35 Z" id="Shape" fill="#9A5720" fill-rule="nonzero"></path>
            <path d="M542.89,81.6 C541.34,77.6 539.4,73.68 538.63,69.26 C536.82,58.79 539.54,48.01 537.2,37.59 C535.59,30.41 533.32,24.02 529.84,18.59 C525.41,11.71 519.01,6.44 509.5,3.2 C495.5,-1.56 476.5,1.51 464,9.27 C457,13.6 464.76,13.59 467.23,18.7 C468.46,21.23 468.93,24.06 469.85,26.7 C471.78,32.27 476.1,37.87 481.5,40.48 C487.5,43.38 490.8,45.3 494.43,51.33 C496.95,55.5 499.52,59.82 500.24,64.64 C501.34,72.05 497.98,79.04 496.08,86.02 C494.79,90.75 493.24,100.51 500.98,100.51 C500.98,100.51 499.59,113.05 510.73,114.44 C521.87,115.83 537.2,117.23 539.99,111.65 C543.33566,105.216683 545.052473,98.0610069 544.99,90.81 C544.814925,87.6434662 544.104887,84.5294431 542.89,81.6 Z" id="Shape" fill="#001128" fill-rule="nonzero"></path>
            <polygon id="Shape" fill="#F0FAFC" fill-rule="nonzero" points="332.36 44.86 389.44 14.01 424.32 105.08 368.78 135.93"></polygon>
            <path d="M348.5,52.67 C359.548351,73.3295294 367.627911,95.4439587 372.5,118.36 L417.1,98.83" id="Shape" stroke="#D8E5ED" stroke-width="1.39"></path>
            <path d="M354.5,63.82 L394.58,46.82" id="Shape" stroke="#D8E5ED" stroke-width="1.39"></path>
            <path d="M360.65,79.33 L399.74,62.79" id="Shape" stroke="#D8E5ED" stroke-width="1.39"></path>
            <path d="M366.87,94.07 C379.99,88.49 393.236667,83.2233333 406.61,78.27" id="Shape" stroke="#D8E5ED" stroke-width="1.39"></path>
            <path d="M370.66,106.98 C384.3035,102.126472 397.502507,96.1041114 410.11,88.98" id="Shape" stroke="#D8E5ED" stroke-width="1.39"></path>
            <path d="M363.06,50.21 C371.781131,70.6230055 379.457726,91.466631 386.06,112.66" id="Shape" stroke="#D8E5ED" stroke-width="1.39"></path>
            <path d="M377.5,46.48 C387.028936,65.7147287 394.861954,85.7439678 400.91,106.34" id="Shape" stroke="#D8E5ED" stroke-width="1.39"></path>
            <path d="M388.27,45.28 L411.21,101.39" id="Shape" stroke="#D8E5ED" stroke-width="1.39"></path>
            <path d="M372.89,115.86 C373.440061,108.142846 372.809472,100.386939 371.02,92.86 C370.48,90.6 369.84,88.24 370.44,86.01 C371.04,83.78 373.44,81.84 375.62,82.67 C376.855448,83.31359 377.820151,84.3776002 378.34,85.67 C380.507157,89.7760427 382.053953,94.1805374 382.93,98.74 C384.68322,97.4054474 385.705766,95.3233076 385.69,93.12 C385.65734,90.9482381 385.282748,88.7951793 384.58,86.74 L380.63,72.91 C380.066104,71.3872639 379.864116,69.7542392 380.04,68.14 C380.34,66.55 381.65,65.03 383.26,65.05 C385.41,65.05 386.57,67.52 387.26,69.56 L391.91,83.76 C393.745562,83.0550839 395.069952,81.4300424 395.39,79.49 C395.680751,77.5786561 395.533722,75.6262435 394.96,73.78 C393.59,68.46 391.11,63.49 389.57,58.21 C388.03,52.93 387.51,47.03 390.01,42.13" id="Shape" stroke="#FC83A0" stroke-width="2.79" stroke-linecap="round" stroke-linejoin="round"></path>
            <path d="M464.37,97.75 L461.31,99.1 L459.92,99.7 L458.03,100.43 L447.19,104.6 L440.5,98.43 C439.642916,97.7115638 438.722485,97.0722824 437.75,96.52 C436.755554,96.1439896 435.736497,95.8366022 434.7,95.6 C432.519314,95.0171511 430.386422,94.2682987 428.32,93.36 C428.32,93.36 428.32,93.36 428.32,93.36 L427.09,93.05 C426.127691,92.7832769 425.18536,92.449117 424.27,92.05 C423.155731,91.5939374 421.995765,91.2586872 420.81,91.05 C421.049637,91.2945812 421.176476,91.6279845 421.16,91.97 C421.084966,92.3665919 420.835163,92.708234 420.48,92.9 C419.48,93.51 418.53,92.9 417.55,92.45 C417.181772,92.2932985 416.885635,92.0042967 416.72,91.64 C416.04,93.03 414.38,94.26 412.82,93.58 C412.549639,93.4647294 412.327183,93.2599287 412.19,93 C411.433365,94.0088598 410.111486,94.4131041 408.92,94 C407.92,93.56 407.92,92.27 408.24,91 L405.96,91.52 C404.51,91.85 401.56,92.52 401.37,89.93 C401.26,88.39 404.63,87.38 404.63,87.38 C404.63,87.38 413.21,85.03 415.85,83.3 C415.85,83.3 416.08,83.05 416.29,82.83 L414.29,80.83 C413.817803,80.3835994 413.39534,79.8873729 413.03,79.35 C412.63,78.71 411.97,79.06 411.34,79.21 C409.156357,79.8797266 407.120129,80.9589274 405.34,82.39 C404.176681,83.20401 403.088962,84.1210404 402.09,85.13 C401.65,85.57 401.2,86.24 400.69,86.77 C400.300185,87.2512732 399.756238,87.5832922 399.15,87.71 C398.528044,87.7624523 397.931812,87.450697 397.62,86.91 C397.11,85.91 397.92,84.35 398.33,83.44 C398.928218,82.1927589 399.662693,81.0155872 400.52,79.93 C402.03,77.93 403.99,75.85 406.35,74.93 C409.56,73.67 417.61,69.74 419.02,71.4 C419.96,72.53 427.75,77.86 432.59,81.14 L438.83,84.77 L444.83,88.26 L464.37,97.75 Z" id="Shape" fill="#9A5720" fill-rule="nonzero"></path>
            <polygon id="Shape" fill="#F97148" fill-rule="nonzero" points="399.53 83.36 401.76 88.5 395.51 88.16 395.51 88.16"></polygon>
            <path d="M418.27,77.27 L431.12,71.7 L429.26,67.42 L416.41,72.99 L418.27,77.27 Z M428.78,68.6 L429.89,71.17 L418.75,76 L417.64,73.43 L428.78,68.6 Z" id="Shape" fill="#322C73" fill-rule="nonzero"></path>
            <path d="M429.975997,69.6700071 L435.575997,69.6700071 L435.575997,71.5400071 C435.575997,73.0864044 434.322394,74.3400071 432.775997,74.3400071 C431.2296,74.3400071 429.975997,73.0864044 429.975997,71.5400071 L429.975997,69.6700071 Z" id="Shape" fill="#322C73" fill-rule="nonzero" transform="translate(432.775997, 72.005007) rotate(-113.430000) translate(-432.775997, -72.005007) "></path>
            <rect id="Rectangle-path" fill="#322C73" fill-rule="nonzero" transform="translate(415.638718, 79.427376) rotate(-113.430000) translate(-415.638718, -79.427376) " x="412.838718" y="63.0823762" width="5.6" height="32.69"></rect>
            <path d="M478.71,76.18 C478.71,76.18 487.89,74.5 489.09,73.28 C490.29,72.06 478.86,86.71 478.86,86.71 L478.71,76.18 Z" id="Shape" fill="#774011" fill-rule="nonzero"></path>
        </g>
    </g>
</svg>