<?xml version="1.0" encoding="UTF-8"?>
<svg width="620px" height="940px" viewBox="0 0 620 940" version="1.1" xmlns="http://www.w3.org/2000/svg" xmlns:xlink="http://www.w3.org/1999/xlink">
    <!-- Generator: Sketch 48.1 (47250) - http://www.bohemiancoding.com/sketch -->
    <title>Group</title>
    <desc>Created with Sketch.</desc>
    <defs></defs>
    <g id="Page-1" stroke="none" stroke-width="1" fill="none" fill-rule="evenodd">
        <g id="Group">
            <g id="Group-2">
                <rect id="Rectangle" fill="#CF649A" x="0" y="0" width="300" height="300" rx="10"></rect>
                <path d="M222.118764,161.559987 C215.168646,161.599203 209.150388,163.268396 204.102816,165.753743 C202.239097,162.065133 200.375378,158.842064 200.065147,156.435149 C199.715699,153.639571 199.288597,151.930774 199.715699,148.591999 C200.142413,145.252448 202.083787,140.515496 202.083787,140.127221 C202.044571,139.777774 201.656297,138.069365 197.657455,138.030537 C193.658613,137.99171 190.20258,138.807087 189.814305,139.855429 C189.42603,140.903771 188.649481,143.311074 188.144724,145.796032 C187.445829,149.445815 180.146264,162.375364 175.991724,169.170172 C174.632762,166.529904 173.467938,164.200256 173.234585,162.336149 C172.885526,159.540959 172.458036,157.832161 172.885526,154.493387 C173.312628,151.153836 175.254002,146.417272 175.254002,146.028997 C175.215175,145.67955 174.8269,143.971141 170.828058,143.932314 C166.82844,143.893486 163.373183,144.708863 162.984908,145.757205 C162.596633,146.805547 162.169531,149.290505 161.315327,151.697809 C160.499562,154.105112 150.792693,175.693188 148.268907,181.323172 C146.9876,184.196405 145.861992,186.487226 145.046226,188.040325 C144.23085,189.593424 145.007399,188.156808 144.929744,188.312118 C144.23085,189.632252 143.842575,190.369974 143.842575,190.369974 L143.842575,190.409189 C143.29899,191.379876 142.716578,192.311347 142.444397,192.311347 C142.25026,192.311347 141.861985,189.709907 142.522052,186.138167 C143.958669,178.644076 147.453142,166.957395 147.414702,166.530292 C147.414702,166.336155 148.074381,164.277911 145.162321,163.229957 C142.327915,162.181615 141.318789,163.928852 141.085436,163.928852 C140.852471,163.928852 140.658334,164.550091 140.658334,164.550091 C140.658334,164.550091 143.803359,151.387965 134.640075,151.387965 C128.893609,151.387965 120.972804,157.639189 117.051229,163.346828 C114.56627,164.705789 109.285734,167.578634 103.694577,170.646393 C101.559066,171.811217 99.3459002,173.053696 97.2492166,174.179693 L96.8225026,173.712987 C85.7178448,161.870607 65.1781106,153.483873 66.032315,137.564608 C66.3429348,131.779314 68.3619635,116.520116 105.481418,98.0382383 C135.883331,82.8955231 160.228157,87.0500629 164.459964,96.2910019 C170.478223,109.492343 151.45276,134.031308 119.847584,137.564608 C107.811066,138.923569 101.4818,134.264272 99.8902614,132.517036 C98.22068,130.692145 97.9877151,130.61449 97.3664755,130.963937 C96.3569612,131.507522 96.9782008,133.138276 97.3664755,134.108963 C98.2983349,136.555093 102.181082,140.903771 108.781753,143.078109 C114.566659,144.980656 128.700248,146.028997 145.784337,139.428327 C164.926282,132.012279 179.87486,111.433717 175.487355,94.2331458 C171.022195,76.7219546 141.979244,70.9754883 114.528219,80.7211845 C98.1814642,86.5453057 80.4761357,95.6309349 67.7407239,107.55097 C52.5980087,121.684171 50.1907052,134.031308 51.2002196,139.156534 C54.7339081,157.444275 79.932551,169.36431 90.0276945,178.178147 C89.5229373,178.449551 89.0570076,178.721343 88.6299054,178.954696 C83.5823337,181.439266 64.3627336,191.49597 59.5481267,202.13431 C54.1122802,214.170828 60.4023311,222.829743 64.5956984,223.994567 C77.5640751,227.605522 90.8430715,221.121334 98.0261543,210.443778 C105.170021,199.766223 104.316205,185.904814 101.01587,179.575936 L100.898999,179.342971 L104.859402,177.013322 C107.422403,175.499051 109.946189,174.101262 112.158967,172.897222 C110.916876,176.275212 110.023456,180.274442 109.557914,186.098563 C109.01433,192.932587 111.809908,201.784863 115.498518,205.279336 C117.129272,206.793219 119.070646,206.832435 120.274297,206.832435 C124.54532,206.832435 126.486693,203.298746 128.622205,199.06694 C131.262473,193.902886 133.592121,187.923454 133.592121,187.923454 C133.592121,187.923454 130.680061,204.114512 138.639693,204.114512 C141.551754,204.114512 144.463814,200.348246 145.783949,198.406873 L145.783949,198.4457 C145.783949,198.4457 145.861603,198.329218 146.016913,198.057425 C146.179828,197.816536 146.335213,197.57064 146.482843,197.320092 L146.482843,197.242437 C147.647667,195.223408 150.249108,190.602939 154.131856,182.953926 C159.140212,173.091747 163.955207,160.74461 163.955207,160.74461 C163.955207,160.74461 164.421136,163.773153 165.857753,168.74307 C166.711569,171.694347 168.575288,174.916639 170.011905,178.061664 C168.84708,179.692418 168.148186,180.624666 168.148186,180.624666 L168.187013,180.663493 C167.255542,181.905972 166.206812,183.226495 165.120031,184.546241 C161.159629,189.283193 156.422677,194.6806 155.801437,196.233699 C155.063715,198.058202 155.219025,199.417164 156.655641,200.504721 C157.703983,201.281271 159.567702,201.436192 161.547903,201.281271 C165.120031,201.047918 167.604989,200.155274 168.847469,199.611301 C170.788842,198.912406 173.002008,197.864065 175.13752,196.310966 C179.020267,193.438121 181.388743,189.361236 181.155778,183.925389 C181.039296,180.935674 180.068609,177.984786 178.864957,175.189208 C179.214404,174.68445 179.56424,174.179305 179.913299,173.636109 C186.04804,164.666574 190.784992,154.804783 190.784992,154.804783 C190.784992,154.804783 191.250922,157.833326 192.687538,162.803243 C193.424872,165.327029 194.900704,168.084168 196.220838,170.802091 C190.474372,175.500216 186.863417,180.936062 185.620938,184.50819 C183.330117,191.108861 185.116181,194.098576 188.494171,194.797471 C190.008054,195.10809 192.182781,194.409196 193.813147,193.710301 C195.832175,193.050234 198.278306,191.923849 200.530688,190.254656 C204.413436,187.381423 208.140873,183.382193 207.946736,177.985174 C207.830253,175.500216 207.170186,173.054085 206.277154,170.724436 C211.169416,168.705408 217.497906,167.540583 225.535582,168.51127 C242.813808,170.530299 246.230626,181.324337 245.570947,185.828324 C244.91088,190.332699 241.299925,192.817269 240.095885,193.593819 C238.892233,194.331541 238.503959,194.603722 238.620441,195.146918 C238.775751,195.962683 239.319336,195.923467 240.367677,195.768546 C241.804294,195.535193 249.453307,192.079936 249.763926,183.771244 C250.229856,173.092136 240.095885,161.443893 222.118764,161.559987 Z M88.8628703,206.483376 C83.1552314,212.734599 75.1179441,215.103075 71.7011263,213.084047 C68.0125162,210.948535 69.4487445,201.746424 76.4769058,195.106926 C80.747928,191.068868 86.3002569,187.341431 89.9500396,185.05061 C90.7654165,184.545852 92.0078957,183.808519 93.4833398,182.915099 C93.7163046,182.760177 93.8716145,182.682134 93.8716145,182.682134 C94.1434069,182.526824 94.4540267,182.332686 94.7646465,182.138549 C97.3660873,191.612453 94.8811289,199.921533 88.8628703,206.483376 Z M130.602406,178.100492 C128.622205,182.953926 124.428837,195.417545 121.905051,194.718651 C119.730325,194.136239 118.410579,184.701162 121.477561,175.382568 C123.03066,170.684056 126.330995,165.093288 128.272369,162.918561 C131.417783,159.424088 134.834212,158.259264 135.688805,159.69588 C136.698319,161.559987 131.844885,175.071949 130.602406,178.100492 Z M165.042376,194.563341 C164.188172,194.990831 163.411622,195.301063 163.062175,195.068486 C162.790383,194.913177 163.411234,194.330764 163.411234,194.330764 C163.411234,194.330764 167.721084,189.710295 169.429492,187.574784 C170.400179,186.332693 171.565004,184.896076 172.807483,183.264934 L172.807483,183.730864 C172.807871,189.321632 167.44968,193.049069 165.042376,194.563341 Z M191.599981,188.506255 C190.978741,188.040325 191.056784,186.603709 193.15308,182.099722 C193.968845,180.313658 195.832175,177.323942 199.054856,174.489536 C199.443131,175.654361 199.676484,176.779969 199.637268,177.828699 C199.598829,184.817645 194.628912,187.419086 191.599981,188.506255 Z" id="Shape" fill="#FFFFFF" fill-rule="nonzero"></path>
            </g>
            <g id="Group-2" transform="translate(0.000000, 320.000000)">
                <rect id="Rectangle" fill="#D34A47" x="0" y="0" width="300" height="300" rx="10"></rect>
                <g id="gulp" transform="translate(95.000000, 28.000000)" fill="#FFFFFF" fill-rule="nonzero">
                    <path d="M84.8666316,236.634764 L87.2103742,197.575517 L93.6819024,186.5268 C93.6819024,186.5268 78.9526438,192.553059 54.2934655,192.553059 C29.6338552,192.553059 15.1278719,186.638237 15.1278719,186.638237 L22.3806476,198.690756 L24.94637,236.634764 C24.94637,240.702662 38.3597296,244 54.9067167,244 C71.4528401,244 84.8666316,240.702662 84.8666316,236.634764 M77.4734991,54.2337403 L82.392897,34.7861833 L109.635504,6.11653204 L102.455282,0 L73.6134711,30.5403313 L67.9015971,53.7750328 C63.6027205,53.6309704 59.3017209,53.5594042 55.0004319,53.5603646 C24.624629,53.5603646 0,57.0226992 0,61.2927392 C0,65.5632111 24.624629,69.0251138 55.0004319,69.0251138 C85.3758029,69.0251138 110,65.5632111 110,61.2927392 C110,58.1483035 96.6449424,55.4418428 77.4734991,54.2337403" id="Shape"></path>
                    <path d="M75.4919686,65.7381588 C75.4919686,65.7381588 74.3597989,65.9842904 71.0293751,65.998088 C67.6980335,66.0114405 65.3327304,65.9771691 64.3905559,65.1448614 C64.1372289,64.921429 63.9986334,64.47768 64.0000102,64.177248 C64.0027637,63.6053147 64.421304,63.2683858 64.9545756,63.0574159 L65.458935,63.8247413 C65.2395685,63.8981802 65.1142818,63.9849716 65.1138228,64.0775492 C65.1119871,64.5119515 68.5199694,64.8092678 71.1266674,64.7772217 C73.7338243,64.7460658 76.8838903,64.5377663 76.8866438,64.1095952 C76.8866438,63.9800757 76.6484614,63.8581226 76.2340515,63.7619844 L76.7361162,63 C77.4116548,63.2034035 78.0013744,63.596413 77.9999976,64.2765018 C77.9935726,65.4328309 76.4763643,65.6086392 75.4919686,65.7381588" id="Shape"></path>
                    <path d="M110.788104,6.51801954 C111.476749,5.72334715 110.431624,3.69068623 108.453831,1.97858365 C106.47517,0.267348622 104.312842,-0.476138536 103.622894,0.318533852 C102.933815,1.11320624 103.979374,3.14586717 105.958035,4.85710219 C107.935828,6.568771 110.099025,7.3131257 110.788104,6.51801954 M84.6217582,142.150638 C83.9726255,135.911245 98.2826375,126.874883 94.6101527,126.585557 C86.7041934,127.037114 82.7694503,135.841408 78.7917211,145.062557 C77.3341033,148.442084 72.3464191,162.852895 69.0751374,161.078763 C65.8047242,159.305498 73.3151249,147.45525 75.4201387,140.417714 C72.9912099,142.197052 64.0835454,149.110962 61.7879168,142.63603 C58.0971955,145.767438 50.2107753,147.463925 51.1004563,139.238285 C49.1369925,142.712808 44.7302713,147.563693 39.4408163,145.547949 C32.4944446,142.901499 43.4658736,120.795986 46.1939679,121.911217 C48.9224965,123.026014 45.6433992,128.061687 44.7845466,130.017136 C42.8957657,134.320599 40.7138981,139.730618 42.1715159,140.838041 C44.6686145,142.735364 51.4638838,133.660396 51.6149862,133.460861 C52.885897,131.78346 56.5067117,120.809433 59.4249867,122.069544 C62.3432618,123.329655 52.1460159,137.81898 55.9587481,140.694462 C56.7277208,141.27485 59.8739521,140.336599 61.7879168,138.267935 C63.0262623,136.929745 62.6003097,133.965773 66.7282729,124.131268 C70.8562361,114.297197 74.535234,102.050047 77.3662343,102.983093 C80.1972347,103.915705 77.8638304,110.201511 76.8482307,112.544754 C72.082424,123.542638 63.8412604,141.712093 67.7278071,140.336599 C71.6143537,138.961538 73.6381716,138.880856 77.4439566,134.431645 C81.2497415,129.982434 81.0743237,122.653837 83.6109348,122.809561 C86.1484142,122.96572 85.7224616,125.315469 85.1071966,127.104783 C87.603861,124.250556 96.9418201,118.239328 99.1961996,124.192864 C101.866545,131.241244 85.8362226,141.422333 89.8330567,140.903107 C93.7300242,140.396893 100.043329,136.402276 102.738858,132.770294 L110.15851,66.1314619 C110.15851,66.1314619 102.692398,72.3040536 55.1932491,72.3040536 C7.69366585,72.3040536 1,66.2598587 1,66.2598587 L7.31677807,127.085263 C10.6696898,117.565244 18.6316612,98.309187 31.1818505,98.955509 C36.890745,99.2496072 44.5118674,110.231442 37.9836327,110.603619 C35.220368,110.760645 34.9398732,105.122028 31.6677231,104.293955 C29.3065298,103.696216 26.0191827,105.613927 23.8946298,107.6917 C19.6576817,111.834233 10.5450737,128.178372 11.7491173,136.3268 C13.2831547,146.715233 26.0986417,132.71694 28.267049,128.560959 C29.7941392,125.633425 30.8258044,116.959697 34.1656901,117.869753 C37.50601,118.779809 33.8743402,127.731151 31.453227,135.645342 C28.7333825,144.532053 27.3035537,153.906324 23.8946298,152.827964 C20.4852717,151.750471 26.0387218,140.278039 25.837686,138.267935 C22.6332715,141.221496 16.7298542,148.698877 9.17733581,144.997925 L13.1003555,182.770022 C13.1003555,182.770022 23.5268603,191 54.935767,191 C86.3446738,191 97.1571846,182.898419 97.1571846,182.898419 L102.028503,139.149362 C98.0429577,143.026426 85.4293749,149.911273 84.6217582,142.150638" id="Shape"></path>
                </g>
            </g>
            <g id="Group-2" transform="translate(0.000000, 640.000000)">
                <rect id="Rectangle" fill="#FBDE34" x="0" y="0" width="300" height="300" rx="10"></rect>
                <path d="M63,189.659281 L111.078216,189.659281 L111.078216,176.579188 L77.8481718,176.579188 L77.8481718,156.311366 L108.486262,156.311366 L108.486262,143.231272 L77.8481718,143.231272 L77.8481718,124.258812 L111.078216,124.258812 L111.078216,111.178719 L63,111.178719 L63,189.659281 Z M175.299966,168.330613 C175.299966,152.657338 174.239119,149.240281 153.146194,144.173019 C139.594613,140.873834 139.358869,140.638091 139.358869,131.682284 C139.358869,124.848172 141.126947,122.726478 151.1436,122.726478 C157.977713,122.726478 165.636928,123.669453 172.118653,125.083916 L173.768859,112.593181 C165.990544,110.825103 157.741969,110 150.906629,110 C130.992422,110 124.511925,117.071084 124.511925,131.328669 C124.511925,147.944919 127.103878,151.597719 146.076338,155.839878 C160.217278,158.903319 160.453022,159.609322 160.453022,168.330613 C160.453022,175.871956 158.684944,178.111522 147.96106,178.111522 C140.183972,178.111522 133.114116,176.697059 125.808516,174.457494 L123.215335,186.124353 C128.400469,188.598435 138.770738,190.838 147.726544,190.838 C170.939935,190.838 175.299966,183.177556 175.299966,168.330613 Z M202.638872,139.106984 C202.638872,127.086509 208.413366,124.729072 222.317335,124.729072 C224.792644,124.729072 229.977778,125.083916 233.394835,125.791147 L234.33781,113.770672 C230.801654,112.946797 225.14626,112.357437 220.786228,112.357437 C199.339688,112.357437 188.262188,118.955806 188.262188,139.695116 L188.262188,168.330613 C188.262188,181.882194 192.268603,190.836772 212.536425,190.836772 C231.037397,190.836772 236.694019,181.64645 236.694019,169.391459 L236.694019,163.734838 C236.694019,150.183256 230.919525,144.290891 216.661941,144.290891 C211.594678,144.290891 206.76316,144.998122 202.638872,146.412584 L202.638872,139.106984 Z M214.422375,156.664981 C219.60751,156.664981 222.317335,158.433059 222.317335,164.088453 L222.317335,169.862947 C222.317335,175.871956 219.959897,178.465137 212.537653,178.465137 C205.112954,178.465137 202.638872,176.343444 202.638872,169.862947 L202.638872,159.139063 C205.938057,157.7246 210.180216,156.664981 214.422375,156.664981 Z" id="Shape" fill="#222222" fill-rule="nonzero"></path>
            </g>
            <g id="Group-2" transform="translate(320.000000, 460.000000)">
                <rect id="Rectangle" fill="#E44D26" x="0" y="0" width="300" height="300" rx="10"></rect>
                <g id="Group-3" transform="translate(70.000000, 60.000000)" fill="#FFFFFF" fill-rule="nonzero">
                    <path d="M34.903,31.937 L80.083,31.937 L80.083,0 L0,0 L0.764,8.568 L8.614,96.578 L80.083,96.578 L80.083,64.641 L37.822,64.641 L34.903,31.937 Z M42.101,112.547 L10.041,112.547 L14.515,162.693 L79.936,180.853 L80.083,180.813 L80.083,147.585 L79.943,147.622 L44.375,138.018 L42.101,112.547 Z" id="Shape"></path>
                    <path d="M79.973,96.578 L119.3,96.578 L115.592,137.998 L79.972,147.612 L79.972,180.838 L145.445,162.693 L145.925,157.297 L153.431,73.217 L154.21,64.641 L79.973,64.641 L79.973,96.578 Z M79.973,31.859 L79.973,31.937 L157.116,31.937 L157.756,24.759 L159.212,8.568 L159.975,0 L79.973,0 L79.973,31.86 L79.973,31.859 Z" id="Shape"></path>
                </g>
            </g>
            <g id="Group-2" transform="translate(320.000000, 140.000000)">
                <rect id="Rectangle" fill="#563D7C" x="0" y="0" width="300" height="300" rx="10"></rect>
                <path d="M119.083,135.738 L119.083,99.485 L150.994,99.485 C154.034,99.485 156.964,99.738 159.786,100.245 C162.608,100.751 165.105,101.655 167.276,102.958 C169.446,104.261 171.183,106.07 172.486,108.385 C173.788,110.701 174.44,113.668 174.44,117.285 C174.44,123.798 172.486,128.502 168.578,131.396 C164.671,134.291 159.678,135.738 153.599,135.738 L119.083,135.738 Z M85,73 L85,228 L160.112,228 C167.059,228 173.825,227.132 180.41,225.395 C186.995,223.658 192.856,220.981 197.994,217.363 C203.131,213.745 207.22,209.077 210.259,203.361 C213.299,197.644 214.818,190.878 214.818,183.063 C214.818,173.366 212.466,165.081 207.763,158.207 C203.059,151.332 195.931,146.52 186.379,143.77 C193.326,140.442 198.573,136.172 202.119,130.962 C205.664,125.752 207.437,119.24 207.437,111.424 C207.437,104.188 206.243,98.11 203.855,93.189 C201.467,88.269 198.102,84.325 193.76,81.358 C189.419,78.391 184.209,76.256 178.13,74.954 C172.052,73.651 165.322,73 157.941,73 L85,73 Z M119.083,201.515 L119.083,158.966 L156.204,158.966 C163.585,158.966 169.519,160.666 174.006,164.068 C178.492,167.469 180.736,173.149 180.736,181.109 C180.736,185.162 180.048,188.49 178.673,191.095 C177.298,193.7 175.453,195.763 173.137,197.282 C170.822,198.802 168.144,199.887 165.105,200.539 C162.065,201.189 158.882,201.515 155.553,201.515 L119.083,201.515 Z" id="Shape" fill="#FFFFFF" fill-rule="nonzero"></path>
            </g>
        </g>
    </g>
</svg>