<?xml version="1.0" encoding="UTF-8"?>
<svg width="230px" height="197px" viewBox="0 0 230 197" version="1.1" xmlns="http://www.w3.org/2000/svg" xmlns:xlink="http://www.w3.org/1999/xlink">
    <!-- Generator: Sketch 48.1 (47250) - http://www.bohemiancoding.com/sketch -->
    <title>illustration</title>
    <desc>Created with Sketch.</desc>
    <defs></defs>
    <g id="3" stroke="none" stroke-width="1" fill="none" fill-rule="evenodd" transform="translate(-926.000000, -1913.000000)">
        <g id="Bike" transform="translate(898.000000, 1861.000000)">
            <g id="illustration" transform="translate(28.000000, 52.000000)">
                <g id="road">
                    <path d="M36.7799,30.0008 C43.4439,12.7088 60.2079,0.4338 79.8479,0.4338 C105.3369,0.4338 125.9999,21.0968 125.9999,46.5868 C125.9999,72.0758 105.3369,92.7388 79.8479,92.7388 L37.3839,92.7388 C20.0509,92.7388 5.9999,78.6878 5.9999,61.3548 C5.9999,44.2248 19.7289,30.3258 36.7799,30.0008" id="Fill-1" fill="#FFFFFF"></path>
                    <path d="M115.3784,35.6056 C119.7904,24.1566 130.8894,16.0306 143.8924,16.0306 C160.7684,16.0306 174.4484,29.7106 174.4484,46.5866 C174.4484,63.4626 160.7684,77.1426 143.8924,77.1426 L115.7784,77.1426 C104.3024,77.1426 95.0004,67.8396 95.0004,56.3636 C95.0004,45.0236 104.0894,35.8206 115.3784,35.6056" id="Fill-4" fill="#FFFFFF"></path>
                    <path d="M78,98 L60,98" id="Stroke-6" stroke="#545E65" stroke-width="2"></path>
                    <path d="M35,132 L0,132" id="Stroke-8" stroke="#545E65" stroke-width="2"></path>
                    <path d="M60,82 L47,82" id="Stroke-10" stroke="#545E65" stroke-width="2"></path>
                    <polygon id="Fill-12" fill="#DDE0E2" points="126.998 196 22 196 44 169 148.998 169"></polygon>
                    <polygon id="Fill-14" fill="#DDE0E2" points="195 196 158 196 180 169 217 169"></polygon>
                    <path d="M173,196 L11,196" id="Fill-16" fill="#DDE0E2"></path>
                    <path d="M173,196 L11,196" id="Stroke-18" stroke="#545E65" stroke-width="2"></path>
                    <path d="M86,169 L230,169" id="Fill-20" fill="#DDE0E2"></path>
                    <path d="M86,169 L230,169" id="Stroke-22" stroke="#545E65" stroke-width="2"></path>
                </g>
                <g id="bike" transform="translate(52.000000, 70.000000)">
                    <polygon id="Fill-24" fill="#545E65" points="76.4139 0.6599 68.5019 8.6599 48.4139 8.6599 45.1439 0.6599"></polygon>
                    <polygon id="Stroke-26" stroke="#545E65" stroke-width="2" points="76.4139 0.6599 68.5019 8.6599 48.4139 8.6599 45.1439 0.6599"></polygon>
                    <path d="M34.5967,45.7969 C17.7397,45.7969 4.0247,59.5119 4.0247,76.3689 C4.0247,93.2269 17.7397,106.9419 34.5967,106.9419 C51.4537,106.9419 65.1687,93.2269 65.1687,76.3689 C65.1687,59.5119 51.4537,45.7969 34.5967,45.7969 M34.5967,110.9419 C15.5337,110.9419 0.0247,95.4329 0.0247,76.3689 C0.0247,57.3059 15.5337,41.7969 34.5967,41.7969 C53.6597,41.7969 69.1687,57.3059 69.1687,76.3689 C69.1687,95.4329 53.6597,110.9419 34.5967,110.9419" id="Fill-28" fill="#545E65"></path>
                    <path d="M138.4482,45.7969 C121.5912,45.7969 107.8762,59.5119 107.8762,76.3689 C107.8762,93.2269 121.5912,106.9419 138.4482,106.9419 C155.3052,106.9419 169.0202,93.2269 169.0202,76.3689 C169.0202,59.5119 155.3052,45.7969 138.4482,45.7969 M138.4482,110.9419 C119.3852,110.9419 103.8762,95.4329 103.8762,76.3689 C103.8762,57.3059 119.3852,41.7969 138.4482,41.7969 C157.5112,41.7969 173.0202,57.3059 173.0202,76.3689 C173.0202,95.4329 157.5112,110.9419 138.4482,110.9419" id="Fill-30" fill="#545E65"></path>
                    <path d="M109.7187,16.6599 L118.3607,16.6599 L130.4477,16.6599 C134.8667,16.6599 138.4477,13.0779 138.4477,8.6599 L106.4477,8.6599 L109.7187,16.6599 Z" id="Fill-32" fill="#DDE0E2"></path>
                    <path d="M109.7187,16.6599 L118.3607,16.6599 L130.4477,16.6599 C134.8667,16.6599 138.4477,13.0779 138.4477,8.6599 L106.4477,8.6599 L109.7187,16.6599 L109.7187,16.6599 Z" id="Stroke-34" stroke="#545E65" stroke-width="2"></path>
                    <path d="M82.9141,66.6257 L67.9401,29.9967 L112.3721,29.9967 L82.9141,66.6257 Z M40.9741,72.3687 L59.1171,34.8417 L74.4581,72.3687 L40.9741,72.3687 Z M109.7191,16.6597 L111.0831,19.9967 L63.8521,19.9967 L59.2171,8.6597 L48.4141,8.6597 L55.0461,24.8817 L28.2201,80.3687 L77.7281,80.3687 L81.4951,80.3687 L84.6951,80.3687 L118.5521,38.2687 L134.7461,77.8827 L142.1501,74.8547 L118.3601,16.6597 L109.7191,16.6597 Z" id="Fill-36" fill="#F6F6F6"></path>
                    <path d="M84.3469,71.5232 L118.5469,28.9972 L66.9619,28.9972 L84.3469,71.5232 Z M39.7849,75.3692 L79.4369,75.3692 L61.2709,30.9302 L39.7849,75.3692 Z M33.4089,79.3692 L59.2349,25.9502 L53.3929,11.6602 L59.8749,11.6602 L64.5099,22.9972 L116.0619,22.9972 L114.6979,19.6602 L119.0179,19.6602 L141.5419,74.7602 L137.8409,76.2742 L121.1199,35.3722 L85.7379,79.3692 L33.4089,79.3692 Z" id="Fill-38" fill="#FF5C47"></path>
                    <path d="M82.9141,66.6257 L67.9401,29.9967 L112.3721,29.9967 L82.9141,66.6257 L82.9141,66.6257 Z M40.9741,72.3687 L59.1171,34.8417 L74.4581,72.3687 L40.9741,72.3687 L40.9741,72.3687 Z M118.3601,16.6597 L109.7191,16.6597 L111.0831,19.9967 L63.8521,19.9967 L59.2171,8.6597 L48.4141,8.6597 L55.0461,24.8817 L29.8561,76.9837 L32.3521,80.3687 L77.7281,80.3687 L81.4951,80.3687 L84.6951,80.3687 L118.5521,38.2687 L134.7461,77.8827 L142.1501,74.8547 L118.3601,16.6597 L118.3601,16.6597 Z" id="Stroke-40" stroke="#545E65" stroke-width="2"></path>
                    <path d="M95.3668,76.3688 C95.3668,83.5488 89.5468,89.3688 82.3668,89.3688 C75.1868,89.3688 69.3668,83.5488 69.3668,76.3688 C69.3668,69.1888 75.1868,63.3688 82.3668,63.3688 C89.5468,63.3688 95.3668,69.1888 95.3668,76.3688" id="Fill-42" fill="#545E65"></path>
                    <path d="M95.3668,76.3688 C95.3668,83.5488 89.5468,89.3688 82.3668,89.3688 C75.1868,89.3688 69.3668,83.5488 69.3668,76.3688 C69.3668,69.1888 75.1868,63.3688 82.3668,63.3688 C89.5468,63.3688 95.3668,69.1888 95.3668,76.3688 L95.3668,76.3688 Z" id="Stroke-44" stroke="#F6F6F6" stroke-width="2"></path>
                    <path d="M40.5967,76.3688 C40.5967,79.6828 37.9107,82.3688 34.5967,82.3688 C31.2827,82.3688 28.5967,79.6828 28.5967,76.3688 C28.5967,73.0548 31.2827,70.3688 34.5967,70.3688 C37.9107,70.3688 40.5967,73.0548 40.5967,76.3688" id="Fill-46" fill="#545E65"></path>
                    <path d="M40.5967,76.3688 C40.5967,79.6828 37.9107,82.3688 34.5967,82.3688 C31.2827,82.3688 28.5967,79.6828 28.5967,76.3688 C28.5967,73.0548 31.2827,70.3688 34.5967,70.3688 C37.9107,70.3688 40.5967,73.0548 40.5967,76.3688 L40.5967,76.3688 Z" id="Stroke-48" stroke="#F6F6F6" stroke-width="2"></path>
                    <path d="M142.4482,76.3688 C142.4482,78.5778 140.6572,80.3688 138.4482,80.3688 C136.2392,80.3688 134.4482,78.5778 134.4482,76.3688 C134.4482,74.1598 136.2392,72.3688 138.4482,72.3688 C140.6572,72.3688 142.4482,74.1598 142.4482,76.3688" id="Fill-50" fill="#545E65"></path>
                    <path d="M142.4482,76.3688 C142.4482,78.5778 140.6572,80.3688 138.4482,80.3688 C136.2392,80.3688 134.4482,78.5778 134.4482,76.3688 C134.4482,74.1598 136.2392,72.3688 138.4482,72.3688 C140.6572,72.3688 142.4482,74.1598 142.4482,76.3688 L142.4482,76.3688 Z" id="Stroke-52" stroke="#F6F6F6" stroke-width="2"></path>
                    <path d="M96.3682,73.3688 L96.3672,73.3688 L83.6272,71.5488 C83.2222,71.4428 82.8052,71.3688 82.3672,71.3688 C79.6052,71.3688 77.3672,73.6078 77.3672,76.3688 C77.3672,79.1298 79.6052,81.3688 82.3672,81.3688 L82.3672,81.3688 L82.3712,81.3688 C82.8072,81.3678 83.2232,81.2948 83.6262,81.1888 L96.3682,79.3688 C98.0252,79.3688 99.3682,78.0258 99.3682,76.3688 C99.3682,74.7118 98.0252,73.3688 96.3682,73.3688" id="Fill-54" fill="#545E65"></path>
                    <path d="M96.3682,73.3688 L96.3672,73.3688 L83.6272,71.5488 C83.2222,71.4428 82.8052,71.3688 82.3672,71.3688 C79.6052,71.3688 77.3672,73.6078 77.3672,76.3688 C77.3672,79.1298 79.6052,81.3688 82.3672,81.3688 L82.3672,81.3688 L82.3712,81.3688 C82.8072,81.3678 83.2232,81.2948 83.6262,81.1888 L96.3682,79.3688 C98.0252,79.3688 99.3682,78.0258 99.3682,76.3688 C99.3682,74.7118 98.0252,73.3688 96.3682,73.3688 L96.3682,73.3688 Z" id="Stroke-56" stroke="#F6F6F6" stroke-width="2"></path>
                </g>
            </g>
        </g>
    </g>
</svg>