<?xml version="1.0" encoding="UTF-8"?>
<svg width="204px" height="223px" viewBox="0 0 204 223" version="1.1" xmlns="http://www.w3.org/2000/svg" xmlns:xlink="http://www.w3.org/1999/xlink">
    <!-- Generator: Sketch 48.1 (47250) - http://www.bohemiancoding.com/sketch -->
    <title>illustration</title>
    <desc>Created with Sketch.</desc>
    <defs></defs>
    <g id="3" stroke="none" stroke-width="1" fill="none" fill-rule="evenodd" transform="translate(-248.000000, -1060.000000)">
        <g id="Fingerprint-scanning" transform="translate(200.000000, 1021.000000)">
            <g id="illustration" transform="translate(48.000000, 39.000000)">
                <path d="M112,118 C112,148.928 86.928,174 56,174 C25.072,174 0,148.928 0,118 C0,87.072 25.072,62 56,62 C86.928,62 112,87.072 112,118" id="Fill-1" fill="#FF5C47"></path>
                <path d="M204,167 C204,197.928 178.928,223 148,223 C117.072,223 92,197.928 92,167 C92,136.072 117.072,111 148,111 C178.928,111 204,136.072 204,167" id="Fill-3" fill="#C2E9F9"></path>
                <g id="circle" transform="translate(19.000000, 49.000000)">
                    <path d="M85,170 C38.131,170 0,131.869 0,85 C0,38.131 38.131,0 85,0 C131.869,0 170,38.131 170,85 C170,131.869 131.869,170 85,170" id="Fill-5" fill="#F6F6F6"></path>
                    <path d="M155,85 C155,123.66 123.66,155 85,155 C46.34,155 15,123.66 15,85 C15,46.34 46.34,15 85,15 C123.66,15 155,46.34 155,85" id="Fill-7" fill="#545E65"></path>
                    <path d="M87,15 C47.299,15 15,47.299 15,87 C15,126.701 47.299,159 87,159 C126.701,159 159,126.701 159,87 C159,47.299 126.701,15 87,15 M87,165 C43.99,165 9,130.01 9,87 C9,43.99 43.99,9 87,9 C130.01,9 165,43.99 165,87 C165,130.01 130.01,165 87,165" id="Fill-9" fill="#DDE0E2"></path>
                    <path d="M85,15 C46.402,15 15,46.402 15,85 C15,123.598 46.402,155 85,155 C123.598,155 155,123.598 155,85 C155,46.402 123.598,15 85,15 L85,15 Z M85,165 C40.888,165 5,129.112 5,85 C5,40.888 40.888,5 85,5 C129.112,5 165,40.888 165,85 C165,129.112 129.112,165 85,165 L85,165 Z" id="Stroke-55" stroke="#545E65" stroke-width="2"></path>
                </g>
                <g id="fingerprint" transform="translate(50.000000, 80.000000)" fill="#F6F6F6">
                    <path d="M10.7486,24.384 C11.0276,24.587 11.3506,24.685 11.6706,24.685 C12.1546,24.685 12.6306,24.462 12.9376,24.042 C20.4426,13.758 31.4546,6.707 43.9466,4.189 C55.0296,1.954 66.2376,3.399 76.3606,8.368 C77.1386,8.749 78.0766,8.428 78.4576,7.652 C78.8386,6.875 78.5176,5.936 77.7416,5.555 C66.9936,0.279 55.0936,-1.256 43.3266,1.118 C30.0666,3.791 18.3746,11.277 10.4066,22.195 C9.8966,22.894 10.0496,23.874 10.7486,24.384" id="Fill-11"></path>
                    <path d="M106.9254,43.3498 C106.9034,43.2428 106.8714,43.1408 106.8304,43.0448 C104.0284,29.5488 96.2874,17.7688 85.0014,9.8498 C84.2934,9.3528 83.3154,9.5248 82.8194,10.2318 C82.3224,10.9398 82.4934,11.9168 83.2014,12.4138 C93.9134,19.9308 101.2384,31.1398 103.8264,43.9748 C103.8454,44.0678 103.8724,44.1578 103.9054,44.2438 C104.6044,47.8098 104.9264,51.4428 104.8574,55.0468 C104.8414,55.9118 105.5294,56.6268 106.3944,56.6428 C106.4044,56.6438 106.4144,56.6438 106.4244,56.6438 C107.2754,56.6438 107.9734,55.9618 107.9904,55.1068 C108.0654,51.1838 107.7074,47.2278 106.9254,43.3498" id="Fill-13"></path>
                    <path d="M4.6745,66.2352 C4.4985,65.5232 4.3345,64.7932 4.1885,64.0652 C4.1705,63.9782 4.1415,63.8962 4.1105,63.8152 C1.8885,52.5062 3.4815,41.1232 8.7275,30.8802 C9.1215,30.1102 8.8175,29.1662 8.0465,28.7722 C7.2775,28.3772 6.3325,28.6812 5.9385,29.4522 C0.3265,40.4102 -1.3505,52.5952 1.0885,64.6902 C1.1095,64.7932 1.1415,64.8902 1.1805,64.9832 C1.3205,65.6562 1.4705,66.3282 1.6335,66.9872 C1.8095,67.7012 2.4495,68.1782 3.1525,68.1782 C3.2775,68.1782 3.4035,68.1632 3.5295,68.1322 C4.3695,67.9242 4.8825,67.0752 4.6745,66.2352" id="Fill-15"></path>
                    <path d="M55.5426,53.7105 C55.3716,52.8625 54.5496,52.3115 53.6976,52.4845 C52.8496,52.6555 52.3006,53.4815 52.4716,54.3295 C56.0446,72.0515 51.2396,90.0185 39.2876,103.6215 C38.7166,104.2715 38.7806,105.2615 39.4306,105.8325 C39.7276,106.0945 40.0966,106.2225 40.4636,106.2225 C40.8986,106.2225 41.3316,106.0425 41.6416,105.6895 C54.2446,91.3455 59.3106,72.3995 55.5426,53.7105" id="Fill-17"></path>
                    <path d="M45.6245,83.2419 C44.8195,82.9289 43.9105,83.3259 43.5955,84.1319 C41.0915,90.5499 37.3815,96.3059 32.5685,101.2409 C31.9645,101.8609 31.9775,102.8519 32.5965,103.4559 C32.9015,103.7529 33.2955,103.9019 33.6905,103.9019 C34.0975,103.9019 34.5045,103.7439 34.8115,103.4289 C39.9195,98.1909 43.8565,92.0819 46.5145,85.2709 C46.8285,84.4649 46.4305,83.5569 45.6245,83.2419" id="Fill-19"></path>
                    <path d="M62.2275,53.7937 L62.2615,53.7827 L61.9845,52.4097 C61.5545,50.2747 60.3185,48.4357 58.5055,47.2307 C56.6915,46.0257 54.5185,45.5997 52.3825,46.0297 C47.9765,46.9177 45.1155,51.2257 46.0035,55.6317 L46.3025,57.1147 L46.3275,57.1107 C47.4295,63.5247 47.3005,69.9787 45.9425,76.3167 C45.7615,77.1627 46.2995,77.9957 47.1455,78.1767 C47.9915,78.3587 48.8245,77.8187 49.0055,76.9727 C50.5595,69.7227 50.5985,62.3317 49.1205,55.0047 L48.9845,54.3297 C48.8305,51.8677 50.5175,49.6017 53.0015,49.1007 C55.5595,48.5867 58.0675,50.1247 58.8015,52.5797 L58.8935,53.0347 C62.5905,71.3697 58.0975,90.3477 46.5665,105.1027 C46.0335,105.7847 46.1545,106.7687 46.8365,107.3017 C47.1225,107.5257 47.4625,107.6337 47.7995,107.6337 C48.2655,107.6337 48.7265,107.4277 49.0345,107.0327 C60.8415,91.9247 65.6135,72.5957 62.2275,53.7937" id="Fill-21"></path>
                    <path d="M43.2135,59.3503 C43.0965,58.4933 42.3045,57.8923 41.4505,58.0083 C40.5935,58.1243 39.9925,58.9133 40.1085,59.7713 C42.0305,73.9503 36.9165,88.2743 26.4285,98.0863 C25.7965,98.6773 25.7635,99.6683 26.3545,100.3003 C26.6635,100.6303 27.0805,100.7963 27.4995,100.7963 C27.8825,100.7963 28.2665,100.6563 28.5695,100.3743 C39.7965,89.8703 45.2715,74.5343 43.2135,59.3503" id="Fill-23"></path>
                    <path d="M68.4006,51.1159 C67.6246,47.2679 65.3966,43.9519 62.1266,41.7789 C58.8576,39.6069 54.9376,38.8369 51.0886,39.6139 C45.3146,40.7779 40.8056,45.2559 39.6026,51.0219 C39.4256,51.8689 39.9696,52.6989 40.8166,52.8749 C41.6676,53.0519 42.4926,52.5089 42.6696,51.6619 C43.6166,47.1249 47.1646,43.6009 51.7076,42.6849 C54.7366,42.0739 57.8196,42.6789 60.3936,44.3889 C62.7956,45.9849 64.4836,48.3659 65.1936,51.1409 L65.3146,51.7409 C66.2336,56.2999 66.7066,60.9469 66.7196,65.5529 C66.7216,66.4169 67.4226,67.1149 68.2856,67.1149 L68.2896,67.1149 C69.1556,67.1129 69.8546,66.4099 69.8526,65.5439 C69.8406,61.1809 69.4336,56.7839 68.6416,52.4519 L68.6686,52.4429 L68.4006,51.1159 Z" id="Fill-25"></path>
                    <path d="M68.0029,72.3015 C67.1419,72.2035 66.3669,72.8205 66.2689,73.6805 C64.9759,85.0275 60.8619,96.0365 54.3749,105.5165 C53.8859,106.2305 54.0689,107.2055 54.7829,107.6945 C55.0529,107.8795 55.3609,107.9685 55.6659,107.9685 C56.1659,107.9685 56.6569,107.7295 56.9599,107.2865 C63.7349,97.3855 68.0309,85.8875 69.3819,74.0355 C69.4799,73.1755 68.8629,72.3995 68.0029,72.3015" id="Fill-27"></path>
                    <path d="M36.2781,57.5945 L36.1011,56.8115 C34.6131,47.3035 40.8891,38.1895 50.4141,36.2685 C52.0661,35.9355 53.7471,35.8325 55.4111,35.9625 C56.2811,36.0325 57.0271,35.3845 57.0941,34.5225 C57.1611,33.6595 56.5171,32.9055 55.6541,32.8385 C53.7031,32.6865 51.7321,32.8075 49.7951,33.1975 C38.3131,35.5125 30.8551,46.7385 33.1711,58.2205 L33.3891,59.1845 C35.6621,72.2085 30.9211,85.5725 20.8801,94.2685 C20.2261,94.8345 20.1551,95.8235 20.7211,96.4775 C21.0311,96.8355 21.4671,97.0185 21.9061,97.0185 C22.2701,97.0185 22.6351,96.8935 22.9311,96.6365 C34.0741,86.9865 39.1881,72.0265 36.2781,57.5945" id="Fill-29"></path>
                    <path d="M75.048,51.0689 L75.066,51.0609 L74.817,49.8229 C73.587,43.7259 69.765,38.4919 64.329,35.4619 C63.574,35.0399 62.62,35.3109 62.198,36.0669 C61.777,36.8229 62.048,37.7769 62.804,38.1979 C67.264,40.6839 70.45,44.9109 71.618,49.8579 L71.736,50.4459 C75.487,69.0469 72.268,88.3009 62.671,104.6599 C62.234,105.4059 62.484,106.3659 63.23,106.8039 C63.479,106.9499 63.752,107.0189 64.021,107.0189 C64.559,107.0189 65.082,106.7419 65.374,106.2449 C75.147,89.5839 78.565,70.0399 75.048,51.0689" id="Fill-31"></path>
                    <path d="M28.2187,78.0838 C28.5317,77.2768 28.1327,76.3698 27.3257,76.0568 C26.5177,75.7428 25.6117,76.1438 25.2987,76.9498 C23.3447,81.9788 20.1077,86.4428 15.9377,89.8598 C15.2687,90.4078 15.1707,91.3948 15.7187,92.0638 C16.0287,92.4418 16.4777,92.6378 16.9317,92.6378 C17.2807,92.6378 17.6317,92.5218 17.9237,92.2828 C22.5107,88.5258 26.0707,83.6158 28.2187,78.0838" id="Fill-33"></path>
                    <path d="M81.8117,79.7557 C83.4627,69.7307 83.3307,59.5587 81.4197,49.5047 L81.4287,49.4987 L81.2327,48.5287 C78.2047,33.5087 63.5187,23.7527 48.5017,26.7817 C33.4817,29.8097 23.7257,44.4937 26.7547,59.5147 L26.9517,60.4017 C27.4427,63.2567 27.5377,66.1477 27.2317,69.0067 C27.1397,69.8667 27.7627,70.6387 28.6227,70.7307 C29.4777,70.8227 30.2547,70.2007 30.3467,69.3397 C30.7187,65.8637 30.5537,62.3477 29.8557,58.8887 L29.6727,58.0647 C27.4997,45.0317 36.0707,32.4847 49.1217,29.8527 C62.2927,27.1977 75.1777,35.6247 78.0657,48.6937 L78.1577,49.1507 C80.1737,59.1487 80.3627,69.2737 78.7197,79.2467 C78.5797,80.0997 79.1577,80.9057 80.0107,81.0467 C80.0977,81.0607 80.1837,81.0677 80.2677,81.0677 C81.0207,81.0677 81.6847,80.5227 81.8117,79.7557" id="Fill-35"></path>
                    <path d="M78.91,86.1449 C78.076,85.9199 77.215,86.4169 76.992,87.2529 C75.613,92.4009 73.727,97.4479 71.386,102.2539 C71.007,103.0319 71.33,103.9689 72.108,104.3479 C72.329,104.4559 72.563,104.5069 72.793,104.5069 C73.373,104.5069 73.931,104.1829 74.202,103.6259 C76.631,98.6409 78.588,93.4049 80.018,88.0629 C80.242,87.2279 79.746,86.3689 78.91,86.1449" id="Fill-37"></path>
                    <path d="M87.5366,46.6776 L87.5306,46.6726 C86.5076,41.9916 84.5676,37.6686 81.7596,33.8146 C81.2506,33.1156 80.2716,32.9616 79.5716,33.4706 C78.8726,33.9806 78.7176,34.9596 79.2276,35.6596 C81.8796,39.2996 83.6796,43.4026 84.5776,47.8546 L84.6456,48.1846 C87.9436,64.8556 86.4926,82.0116 80.4446,97.8226 C80.1356,98.6306 80.5396,99.5366 81.3486,99.8456 C81.5316,99.9166 81.7216,99.9496 81.9076,99.9496 C82.5376,99.9496 83.1326,99.5666 83.3706,98.9426 C89.6706,82.4726 91.1506,64.5926 87.6506,47.2376 L87.5366,46.6776 Z" id="Fill-39"></path>
                    <path d="M47.2078,20.3654 C44.5978,20.8914 42.0588,21.7154 39.6608,22.8144 C38.8748,23.1754 38.5298,24.1054 38.8898,24.8914 C39.2508,25.6774 40.1808,26.0234 40.9668,25.6624 C43.1458,24.6644 45.4538,23.9154 47.8278,23.4364 C57.0398,21.5794 66.4998,23.9324 73.7778,29.8944 C74.0688,30.1324 74.4198,30.2484 74.7688,30.2484 C75.2228,30.2484 75.6718,30.0524 75.9818,29.6744 C76.5298,29.0054 76.4318,28.0184 75.7628,27.4704 C67.7538,20.9104 57.3458,18.3214 47.2078,20.3654" id="Fill-41"></path>
                    <path d="M23.4342,60.1835 L23.2502,59.3415 C21.3182,48.2035 25.5202,36.9435 34.3422,29.7795 C35.0132,29.2345 35.1162,28.2475 34.5702,27.5765 C34.0242,26.9045 33.0382,26.8025 32.3672,27.3475 C22.4152,35.4295 17.8052,48.2505 20.3382,60.8085 L20.5092,61.5905 C21.9962,70.4095 18.6292,79.2925 11.6072,84.9335 C10.9332,85.4755 10.8252,86.4615 11.3672,87.1365 C11.6772,87.5215 12.1312,87.7215 12.5902,87.7215 C12.9342,87.7215 13.2802,87.6085 13.5692,87.3765 C21.7172,80.8305 25.4972,70.4115 23.4342,60.1835" id="Fill-43"></path>
                    <path d="M17.0128,61.4783 L16.8318,60.6343 C16.5298,58.9403 16.3418,57.2223 16.2718,55.5143 C16.2368,54.6713 15.5438,54.0123 14.7078,54.0123 C14.6858,54.0123 14.6638,54.0123 14.6428,54.0133 C13.7778,54.0483 13.1058,54.7783 13.1408,55.6423 C13.2298,57.8013 13.4928,59.9753 13.9218,62.1023 L14.0608,62.7513 C15.0878,69.0183 12.7528,75.3933 7.8768,79.5253 C7.2158,80.0843 7.1348,81.0733 7.6938,81.7333 C8.0038,82.0983 8.4458,82.2863 8.8898,82.2863 C9.2478,82.2863 9.6078,82.1643 9.9018,81.9153 C15.8188,76.9023 18.5438,69.0703 17.0128,61.4783" id="Fill-45"></path>
                    <path d="M90.994,46.5613 L91.142,47.2733 C91.419,48.7033 91.666,50.1463 91.877,51.5713 C91.993,52.3493 92.661,52.9083 93.425,52.9083 C93.502,52.9083 93.579,52.9023 93.657,52.8903 C94.513,52.7643 95.104,51.9673 94.977,51.1113 C94.723,49.3973 94.418,47.6583 94.072,45.9423 L93.831,44.7833 L93.814,44.7813 C88.848,23.3473 67.624,9.5713 45.914,13.9493 C37.68,15.6093 30.269,19.6833 24.482,25.7293 C18.828,31.6383 15.102,39.0023 13.707,47.0283 C13.559,47.8803 14.13,48.6913 14.982,48.8403 C15.835,48.9903 16.646,48.4173 16.794,47.5653 C18.082,40.1543 21.523,33.3533 26.746,27.8963 C32.088,22.3143 38.93,18.5533 46.534,17.0203 C66.931,12.9073 86.88,26.1593 90.994,46.5613" id="Fill-47"></path>
                    <path d="M94.1993,58.0305 C93.3353,58.0845 92.6803,58.8295 92.7343,59.6925 C93.3903,70.0895 92.3623,80.4655 89.6783,90.5325 C89.4553,91.3685 89.9523,92.2265 90.7883,92.4495 C90.9233,92.4855 91.0593,92.5025 91.1933,92.5025 C91.8853,92.5025 92.5193,92.0405 92.7063,91.3395 C95.4773,80.9445 96.5383,70.2305 95.8613,59.4955 C95.8073,58.6315 95.0653,57.9785 94.1993,58.0305" id="Fill-49"></path>
                    <path d="M10.591,62.7729 L10.419,61.9569 C8.349,50.6229 10.71,39.1329 17.102,29.5119 C23.649,19.6579 33.642,12.9429 45.24,10.6049 C50.109,9.6229 55.051,9.4589 59.928,10.1179 C60.785,10.2349 61.574,9.6329 61.69,8.7749 C61.806,7.9179 61.204,7.1289 60.347,7.0129 C55.125,6.3069 49.833,6.4819 44.62,7.5339 C32.203,10.0369 21.503,17.2269 14.493,27.7779 C7.482,38.3289 5.001,50.9779 7.505,63.3959 L7.608,63.8829 C8.154,67.3679 7.067,70.9529 4.651,73.5589 C4.063,74.1939 4.1,75.1849 4.735,75.7729 C5.037,76.0529 5.419,76.1909 5.8,76.1909 C6.22,76.1909 6.64,76.0219 6.949,75.6889 C10.162,72.2229 11.523,67.3949 10.591,62.7729" id="Fill-51"></path>
                    <path d="M100.2122,43.3145 L100.1922,43.3155 C96.4322,27.0885 84.3722,13.9505 68.4342,8.8415 C67.6092,8.5765 66.7282,9.0305 66.4642,9.8545 C66.2002,10.6785 66.6542,11.5605 67.4782,11.8245 C82.7692,16.7275 94.2382,29.5425 97.4102,45.2675 L97.6022,46.1785 C99.6612,56.8735 100.0282,67.7285 98.6922,78.4605 C98.5852,79.3185 99.1942,80.1015 100.0532,80.2085 C100.1192,80.2165 100.1842,80.2205 100.2482,80.2205 C101.0272,80.2205 101.7022,79.6405 101.8012,78.8475 C103.2172,67.4755 102.7772,55.9685 100.4942,44.6475 L100.2122,43.3145 Z" id="Fill-53"></path>
                </g>
                <polygon id="Fill-57" fill="#545E65" points="112 7 116 7 114 0.334"></polygon>
                <polygon id="Fill-59" fill="#D8F0C8" points="178 58 186 58 182 44.667"></polygon>
                <polygon id="Fill-61" fill="#FF5C47" points="135 37 141 37 138 27"></polygon>
            </g>
        </g>
    </g>
</svg>