<?xml version="1.0" encoding="UTF-8"?>
<svg width="1440px" height="792px" viewBox="0 0 1440 792" version="1.1" xmlns="http://www.w3.org/2000/svg" xmlns:xlink="http://www.w3.org/1999/xlink">
    <!-- Generator: Sketch 48.1 (47250) - http://www.bohemiancoding.com/sketch -->
    <title>Artboard 2</title>
    <desc>Created with Sketch.</desc>
    <defs></defs>
    <g id="Landings" stroke="none" stroke-width="1" fill="none" fill-rule="evenodd">
        <g id="Artboard-2">
            <g id="Style-1" transform="translate(-206.000000, 343.000000)" stroke="#FFFFFF" stroke-linecap="round" stroke-linejoin="round" stroke-width="4">
                <path d="M471,219.5 C471,217.566613 472.567236,216 474.499599,216 C476.432764,216 478,217.566613 478,219.5 C478,221.432584 476.432764,223 474.499599,223 C472.567236,223 471,221.432584 471,219.5 Z" id="Stroke-1"></path>
                <path d="M483,237 C483,234.238477 485.238477,232 488,232 C490.761523,232 493,234.238477 493,237 C493,239.761523 490.761523,242 488,242 C485.238477,242 483,239.761523 483,237 Z" id="Stroke-5"></path>
                <path d="M558.550538,190.286513 L505.257089,190.286513 C496.172293,190.286513 488.807627,182.933536 488.807627,173.863985 L488.807627,170.609835 C488.807627,161.540284 481.44296,154.187307 472.358165,154.187307 L278.103317,154.187307 C269.018521,154.187307 261.653855,146.83433 261.653855,137.763954 C261.653855,137.437301 261.623286,137.117248 261.604283,136.793895 L453.664768,137.802723 C463.798826,137.855515 472.04256,129.668585 472.04256,119.548962 C472.04256,109.468108 463.857486,101.296026 453.760606,101.296026 L319.897013,101.296026 C314.911777,101.296026 310.870877,97.2615398 310.870877,92.2842162 L310.870877,87.2112065 C310.870877,82.2347078 314.911777,78.1985719 319.897013,78.1985719 L370.682973,78.1985719 C382.94282,78.1985719 392.881072,68.2769199 392.881072,56.0365313 C392.881072,43.7961427 382.94282,33.8736658 370.682973,33.8736658 L322.826687,33.8736658 C316.223768,33.8736658 310.870877,28.5292708 310.870877,21.9368329 C310.870877,15.3452199 305.517986,10 298.915068,10 L103.243302,10 C93.8883421,10 86.3047352,17.57157 86.3047352,26.910857 C86.3047352,36.2509688 93.8883421,43.8225388 103.243302,43.8225388 L178.800119,43.8225388 C186.148262,43.8225388 192.105099,49.7699208 192.105099,57.1064001 C192.105099,64.4428794 186.148262,70.3910863 178.800119,70.3910863 L147.355291,70.3910863 C142.370055,70.3910863 138.329154,74.4255725 138.329154,79.4028961 C138.329154,84.3802197 134.287428,88.4147059 129.303018,88.4147059 L52.9340556,88.4147059 C39.8554525,88.4147059 29.2537699,98.9995611 29.2537699,112.057405 C29.2537699,125.066582 39.7794429,135.630815 52.8093008,135.69928 L131.363538,136.110895 C131.30901,136.655315 131.279267,137.206335 131.279267,137.763954 L131.279267,202.483183 C131.279267,211.51974 123.967477,218.859518 114.916555,218.906536 L16.3627122,219.139977 C7.3117901,219.186996 0,226.525949 0,235.562506 L0,258.576647 C0,267.647023 7.36384014,275 16.4486361,275 L508.553591,275 C517.638387,275 525.003053,267.647023 525.003053,258.576647 L525.003053,246.32306 C525.003053,237.253509 532.36772,229.899707 541.452516,229.899707 L558.550538,229.899707 C567.635334,229.899707 575,222.54673 575,213.477179 L575,206.709042 C575,197.63949 567.635334,190.286513 558.550538,190.286513 Z" id="Stroke-7"></path>
                <path d="M243,0 L313,0" id="Stroke-9"></path>
                <path d="M332,0 L348,0" id="Stroke-11"></path>
                <path d="M540,275 L555,275" id="Stroke-13"></path>
            </g>
            <g id="Style-2" transform="translate(1354.000000, 249.000000) scale(1, -1) translate(-1354.000000, -249.000000) translate(1173.000000, 115.000000)">
                <path d="M28,209 L28,195 L28,209 Z" id="Fill-6" fill="#FFFFFF"></path>
                <path d="M28,195 L28,209" id="Stroke-7" stroke="#FFFFFF" stroke-width="4" stroke-linecap="round" stroke-linejoin="round"></path>
                <path d="M21,202 L35,202 L21,202 Z" id="Fill-8" fill="#FFFFFF"></path>
                <path d="M21,202 L35,202" id="Stroke-9" stroke="#FFFFFF" stroke-width="4" stroke-linecap="round" stroke-linejoin="round"></path>
                <g id="Group-22" transform="translate(0.000000, 11.000000)">
                    <path d="M205.766533,252.990143 C205.87628,255.092124 204.266117,256.884555 202.169465,256.994581 C200.073633,257.104606 198.284927,255.490351 198.17518,253.38837 C198.065433,251.28721 199.675596,249.493958 201.772248,249.383932 C203.8689,249.274728 205.656786,250.888162 205.766533,252.990143" id="Fill-10" fill="#FFFFFF"></path>
                    <path d="M205.766533,252.990143 C205.87628,255.092124 204.266117,256.884555 202.169465,256.994581 C200.073633,257.104606 198.284927,255.490351 198.17518,253.38837 C198.065433,251.28721 199.675596,249.493958 201.772248,249.383932 C203.8689,249.274728 205.656786,250.888162 205.766533,252.990143 Z" id="Stroke-12" stroke="#FFFFFF" stroke-width="4" stroke-linecap="round" stroke-linejoin="round"></path>
                    <path d="M223.144007,26.4544962 C223.217718,27.861838 222.139089,29.0630872 220.736134,29.136985 C219.33236,29.2100617 218.134157,28.1286911 218.060446,26.7213492 C217.987555,25.3140073 219.066184,24.1135792 220.469138,24.0405026 C221.872912,23.9666048 223.070297,25.0471543 223.144007,26.4544962" id="Fill-14" fill="#FFFFFF"></path>
                    <path d="M223.144007,26.4544962 C223.217718,27.861838 222.139089,29.0630872 220.736134,29.136985 C219.33236,29.2100617 218.134157,28.1286911 218.060446,26.7213492 C217.987555,25.3140073 219.066184,24.1135792 220.469138,24.0405026 C221.872912,23.9666048 223.070297,25.0471543 223.144007,26.4544962 Z" id="Stroke-16" stroke="#FFFFFF" stroke-width="4" stroke-linecap="round" stroke-linejoin="round"></path>
                    <path d="M74.8657769,18.5740387 L74.8657769,18.938601 C74.8657769,28.9106936 82.9288765,36.9951089 92.8756864,36.9951089 L128.93318,36.9951089 C134.282098,36.9951089 138.619546,41.3419396 138.619546,46.7060962 L138.619546,46.9023358 C138.619546,52.2648502 134.282098,56.613323 128.93318,56.613323 L115.772596,56.613323 C106.172225,56.613323 98.3892249,64.4152847 98.3892249,74.0408789 L98.3892249,74.3923038 C98.3892249,84.0178981 106.172225,91.8206808 115.772596,91.8206808 L197.871248,91.8206808 C206.665718,91.8206808 213.795152,98.9674157 213.795152,107.78424 L213.795152,113.830719 C213.795152,122.863489 221.099035,130.186758 230.109723,130.186758 L346.877655,130.186758 C355.130763,130.186758 361.82203,123.479304 361.82203,115.204396 L361.82203,114.901416 C361.82203,106.626508 355.130763,99.9190546 346.877655,99.9190546 L295.467922,99.9190546 C291.926546,99.9190546 289.056754,97.0411473 289.056754,93.4915914 L289.056754,78.0781601 C289.056754,69.6809109 282.267207,62.8741058 273.891248,62.8741058 L246.264587,62.8741058 C242.72403,62.8741058 239.854238,59.9961984 239.854238,56.4474636 L239.854238,56.3177319 C239.854238,52.768176 242.72403,49.8902687 246.264587,49.8902687 L303.665338,49.8902687 C309.757094,49.8902687 314.695691,44.9391185 314.695691,38.8318789 L314.695691,35.5836617 C314.695691,29.475601 309.757094,24.5252719 303.665338,24.5252719 L259.80437,24.5252719 C256.262994,24.5252719 253.393202,21.6473645 253.393202,18.0978086 L253.393202,13.8330866 C253.393202,6.48025911 247.447229,0.519172843 240.113044,0.519172843 L92.8756864,0.519172843 C82.9288765,0.519172843 74.8657769,8.60194601 74.8657769,18.5740387 Z" id="Stroke-18" stroke="#FFFFFF" stroke-width="4" stroke-linecap="round" stroke-linejoin="round"></path>
                    <path d="M47.4855548,185.604907 L47.4855548,196.911265 C47.4855548,205.026882 40.9228715,211.605425 32.8286498,211.605425 L14.6573964,211.605425 C6.56235566,211.605425 -0.00032760181,218.184789 -0.00032760181,226.300406 L-0.00032760181,226.597639 C-0.00032760181,234.713256 6.56235566,241.291799 14.6573964,241.291799 L171.747378,241.291799 C183.369871,241.291799 192.790881,231.846022 192.790881,220.194808 L192.790881,219.826962 C192.790881,211.330361 199.66151,204.442268 208.135749,204.442268 L267.886224,204.442268 C278.852695,204.442268 287.74217,195.530198 287.74217,184.535853 L287.74217,183.725441 C287.74217,172.731096 278.852695,163.819026 267.886224,163.819026 L69.2170208,163.819026 C57.2145095,163.819026 47.4855548,173.57353 47.4855548,185.604907 Z" id="Stroke-20" stroke="#FFFFFF" stroke-width="4" stroke-linecap="round" stroke-linejoin="round"></path>
                </g>
            </g>
        </g>
    </g>
</svg>