<?xml version="1.0" encoding="UTF-8"?>
<svg width="205px" height="215px" viewBox="0 0 205 215" version="1.1" xmlns="http://www.w3.org/2000/svg" xmlns:xlink="http://www.w3.org/1999/xlink">
    <!-- Generator: Sketch 48.1 (47250) - http://www.bohemiancoding.com/sketch -->
    <title>Illustration</title>
    <desc>Created with Sketch.</desc>
    <defs></defs>
    <g id="1" stroke="none" stroke-width="1" fill="none" fill-rule="evenodd" transform="translate(-243.000000, -652.000000)">
        <g id="Work-Process" transform="translate(200.000000, 601.000000)">
            <g id="Illustration" transform="translate(44.000000, 51.000000)">
                <g id="notebook" transform="translate(0.000000, 32.000000)">
                    <polygon id="Fill-1" fill="#DDE0E2" points="8 30 129.001 30 129.001 111.001 8 111.001"></polygon>
                    <path d="M67.0004,66 C69.7614,66 72.0004,68.239 72.0004,71 C72.0004,73.761 69.7614,76 67.0004,76" id="Stroke-2" stroke="#545E65" stroke-width="2"></path>
                    <path d="M67.0004,72 C64.2394,72 62.0004,69.761 62.0004,67 C62.0004,64.239 64.2394,62 67.0004,62" id="Stroke-4" stroke="#545E65" stroke-width="2"></path>
                    <path d="M0,34.9996 L0,14.9996 C0,6.7156 6.716,-0.0004 15,-0.0004 L15,-0.0004 C23.284,-0.0004 30,6.7156 30,14.9996 L30,20.9996" id="Stroke-6" stroke="#545E65" stroke-width="2"></path>
                    <path d="M127.0008,113.0004 L6.9998,113.0004 C4.7908,113.0004 2.9998,111.2094 2.9998,109.0004 L2.9998,28.9994 C2.9998,26.7904 4.7908,24.9994 6.9998,24.9994 L127.0008,24.9994 C129.2098,24.9994 131.0008,26.7904 131.0008,28.9994 L131.0008,109.0004 C131.0008,111.2094 129.2098,113.0004 127.0008,113.0004 L127.0008,113.0004 Z" id="Stroke-8" stroke="#545E65" stroke-width="4"></path>
                </g>
                <g id="note" transform="translate(153.000000, 114.000000)">
                    <polygon id="Fill-10" fill="#FCF9DE" points="4.001 8 49.001 8 49.001 73 4.001 73"></polygon>
                    <path d="M48.0009,73.9998 L2.0009,73.9998 C0.8959,73.9998 0.0009,73.1048 0.0009,71.9998 L0.0009,5.9998 C0.0009,4.8948 0.8959,3.9998 2.0009,3.9998 L48.0009,3.9998 C49.1059,3.9998 50.0009,4.8948 50.0009,5.9998 L50.0009,71.9998 C50.0009,73.1048 49.1059,73.9998 48.0009,73.9998 L48.0009,73.9998 Z" id="Stroke-12" stroke="#545E65" stroke-width="2"></path>
                    <path d="M4.001,18.4998 L49.001,18.4998" id="Stroke-13" stroke="#545E65"></path>
                    <path d="M4.001,32.4998 L49.001,32.4998" id="Stroke-14" stroke="#545E65"></path>
                    <path d="M4.001,46.4998 L49.001,46.4998" id="Stroke-15" stroke="#545E65"></path>
                    <path d="M4.001,60.4998 L49.001,60.4998" id="Stroke-16" stroke="#545E65"></path>
                    <path d="M8.9993,-0.0002 L8.9993,7.9998" id="Stroke-17" stroke="#545E65" stroke-width="2"></path>
                    <path d="M17.0001,-0.0002 L17.0001,7.9998" id="Stroke-18" stroke="#545E65" stroke-width="2"></path>
                    <path d="M25.0009,-0.0002 L25.0009,7.9998" id="Stroke-19" stroke="#545E65" stroke-width="2"></path>
                    <path d="M33.0017,-0.0002 L33.0017,7.9998" id="Stroke-20" stroke="#545E65" stroke-width="2"></path>
                    <path d="M41.0025,-0.0002 L41.0025,7.9998" id="Stroke-21" stroke="#545E65" stroke-width="2"></path>
                    <path d="M6.9991,-0.0002 L6.9991,7.9998" id="Stroke-22" stroke="#F6F6F6" stroke-width="2"></path>
                    <path d="M14.9999,-0.0002 L14.9999,7.9998" id="Stroke-23" stroke="#F6F6F6" stroke-width="2"></path>
                    <path d="M23.0007,-0.0002 L23.0007,7.9998" id="Stroke-24" stroke="#F6F6F6" stroke-width="2"></path>
                    <path d="M31.0015,-0.0002 L31.0015,7.9998" id="Stroke-25" stroke="#F6F6F6" stroke-width="2"></path>
                    <path d="M39.0023,-0.0002 L39.0023,7.9998" id="Stroke-26" stroke="#F6F6F6" stroke-width="2"></path>
                </g>
                <g id="note" transform="translate(95.000000, 148.000000)">
                    <path d="M53.0068,67 L53.0068,60.998 L8.9958,60.998 C4.5848,60.998 0.9958,57.409 0.9958,52.998 L0.9958,9 C0.9958,4.589 4.5848,1 8.9958,1 L53.0078,1 L53.0088,0 L63.0068,0 L63.0068,1 L79.9988,1 C84.4098,1 87.9988,4.589 87.9988,9 L87.9988,52.998 C87.9988,57.409 84.4098,60.998 79.9988,60.998 L63.0068,60.998 L63.0068,67 L53.0068,67 Z" id="Fill-27" fill="#F6F6F6"></path>
                    <path d="M8.9957,55.9981 L79.9987,55.9981 C81.6557,55.9981 82.9987,54.6551 82.9987,52.9981 L82.9987,9.0001 C82.9987,7.3431 81.6557,6.0001 79.9987,6.0001 L8.9957,6.0001 C7.3387,6.0001 5.9957,7.3431 5.9957,9.0001 L5.9957,52.9981 C5.9957,54.6551 7.3387,55.9981 8.9957,55.9981" id="Fill-28" fill="#F6F6F6"></path>
                    <path d="M8.9957,55.9981 L79.9987,55.9981 C81.6557,55.9981 82.9987,54.6551 82.9987,52.9981 L82.9987,9.0001 C82.9987,7.3431 81.6557,6.0001 79.9987,6.0001 L8.9957,6.0001 C7.3387,6.0001 5.9957,7.3431 5.9957,9.0001 L5.9957,52.9981 C5.9957,54.6551 7.3387,55.9981 8.9957,55.9981 L8.9957,55.9981 Z" id="Stroke-29" stroke="#545E65" stroke-width="2"></path>
                    <path d="M52.9999,14.0005 C52.9999,14.5525 52.5519,15.0005 51.9999,15.0005 C51.4479,15.0005 50.9999,14.5525 50.9999,14.0005 C50.9999,13.4485 51.4479,13.0005 51.9999,13.0005 C52.5519,13.0005 52.9999,13.4485 52.9999,14.0005" id="Fill-30" fill="#545E65"></path>
                    <path d="M59.0005,14.0005 C59.0005,14.5525 58.5525,15.0005 58.0005,15.0005 C57.4485,15.0005 57.0005,14.5525 57.0005,14.0005 C57.0005,13.4485 57.4485,13.0005 58.0005,13.0005 C58.5525,13.0005 59.0005,13.4485 59.0005,14.0005" id="Fill-31" fill="#545E65"></path>
                    <path d="M65.0011,14.0005 C65.0011,14.5525 64.5531,15.0005 64.0011,15.0005 C63.4491,15.0005 63.0011,14.5525 63.0011,14.0005 C63.0011,13.4485 63.4491,13.0005 64.0011,13.0005 C64.5531,13.0005 65.0011,13.4485 65.0011,14.0005" id="Fill-32" fill="#545E65"></path>
                    <path d="M71.0017,14.0005 C71.0017,14.5525 70.5537,15.0005 70.0017,15.0005 C69.4497,15.0005 69.0017,14.5525 69.0017,14.0005 C69.0017,13.4485 69.4497,13.0005 70.0017,13.0005 C70.5537,13.0005 71.0017,13.4485 71.0017,14.0005" id="Fill-33" fill="#545E65"></path>
                    <path d="M77.0023,14.0005 C77.0023,14.5525 76.5543,15.0005 76.0023,15.0005 C75.4503,15.0005 75.0023,14.5525 75.0023,14.0005 C75.0023,13.4485 75.4503,13.0005 76.0023,13.0005 C76.5543,13.0005 77.0023,13.4485 77.0023,14.0005" id="Fill-34" fill="#545E65"></path>
                    <path d="M52.9999,20.0011 C52.9999,20.5531 52.5519,21.0011 51.9999,21.0011 C51.4479,21.0011 50.9999,20.5531 50.9999,20.0011 C50.9999,19.4491 51.4479,19.0011 51.9999,19.0011 C52.5519,19.0011 52.9999,19.4491 52.9999,20.0011" id="Fill-35" fill="#545E65"></path>
                    <path d="M59.0005,20.0011 C59.0005,20.5531 58.5525,21.0011 58.0005,21.0011 C57.4485,21.0011 57.0005,20.5531 57.0005,20.0011 C57.0005,19.4491 57.4485,19.0011 58.0005,19.0011 C58.5525,19.0011 59.0005,19.4491 59.0005,20.0011" id="Fill-36" fill="#545E65"></path>
                    <path d="M65.0011,20.0011 C65.0011,20.5531 64.5531,21.0011 64.0011,21.0011 C63.4491,21.0011 63.0011,20.5531 63.0011,20.0011 C63.0011,19.4491 63.4491,19.0011 64.0011,19.0011 C64.5531,19.0011 65.0011,19.4491 65.0011,20.0011" id="Fill-37" fill="#545E65"></path>
                    <path d="M71.0017,20.0011 C71.0017,20.5531 70.5537,21.0011 70.0017,21.0011 C69.4497,21.0011 69.0017,20.5531 69.0017,20.0011 C69.0017,19.4491 69.4497,19.0011 70.0017,19.0011 C70.5537,19.0011 71.0017,19.4491 71.0017,20.0011" id="Fill-38" fill="#545E65"></path>
                    <path d="M77.0023,20.0011 C77.0023,20.5531 76.5543,21.0011 76.0023,21.0011 C75.4503,21.0011 75.0023,20.5531 75.0023,20.0011 C75.0023,19.4491 75.4503,19.0011 76.0023,19.0011 C76.5543,19.0011 77.0023,19.4491 77.0023,20.0011" id="Fill-39" fill="#545E65"></path>
                    <path d="M52.9999,26.0017 C52.9999,26.5537 52.5519,27.0017 51.9999,27.0017 C51.4479,27.0017 50.9999,26.5537 50.9999,26.0017 C50.9999,25.4497 51.4479,25.0017 51.9999,25.0017 C52.5519,25.0017 52.9999,25.4497 52.9999,26.0017" id="Fill-40" fill="#545E65"></path>
                    <path d="M59.0005,26.0017 C59.0005,26.5537 58.5525,27.0017 58.0005,27.0017 C57.4485,27.0017 57.0005,26.5537 57.0005,26.0017 C57.0005,25.4497 57.4485,25.0017 58.0005,25.0017 C58.5525,25.0017 59.0005,25.4497 59.0005,26.0017" id="Fill-41" fill="#545E65"></path>
                    <path d="M65.0011,26.0017 C65.0011,26.5537 64.5531,27.0017 64.0011,27.0017 C63.4491,27.0017 63.0011,26.5537 63.0011,26.0017 C63.0011,25.4497 63.4491,25.0017 64.0011,25.0017 C64.5531,25.0017 65.0011,25.4497 65.0011,26.0017" id="Fill-42" fill="#545E65"></path>
                    <path d="M71.0017,26.0017 C71.0017,26.5537 70.5537,27.0017 70.0017,27.0017 C69.4497,27.0017 69.0017,26.5537 69.0017,26.0017 C69.0017,25.4497 69.4497,25.0017 70.0017,25.0017 C70.5537,25.0017 71.0017,25.4497 71.0017,26.0017" id="Fill-43" fill="#545E65"></path>
                    <path d="M77.0023,26.0017 C77.0023,26.5537 76.5543,27.0017 76.0023,27.0017 C75.4503,27.0017 75.0023,26.5537 75.0023,26.0017 C75.0023,25.4497 75.4503,25.0017 76.0023,25.0017 C76.5543,25.0017 77.0023,25.4497 77.0023,26.0017" id="Fill-44" fill="#545E65"></path>
                    <path d="M52.9999,32.0023 C52.9999,32.5543 52.5519,33.0023 51.9999,33.0023 C51.4479,33.0023 50.9999,32.5543 50.9999,32.0023 C50.9999,31.4503 51.4479,31.0023 51.9999,31.0023 C52.5519,31.0023 52.9999,31.4503 52.9999,32.0023" id="Fill-45" fill="#545E65"></path>
                    <path d="M59.0005,32.0023 C59.0005,32.5543 58.5525,33.0023 58.0005,33.0023 C57.4485,33.0023 57.0005,32.5543 57.0005,32.0023 C57.0005,31.4503 57.4485,31.0023 58.0005,31.0023 C58.5525,31.0023 59.0005,31.4503 59.0005,32.0023" id="Fill-46" fill="#545E65"></path>
                    <path d="M65.0011,32.0023 C65.0011,32.5543 64.5531,33.0023 64.0011,33.0023 C63.4491,33.0023 63.0011,32.5543 63.0011,32.0023 C63.0011,31.4503 63.4491,31.0023 64.0011,31.0023 C64.5531,31.0023 65.0011,31.4503 65.0011,32.0023" id="Fill-47" fill="#545E65"></path>
                    <path d="M71.0017,32.0023 C71.0017,32.5543 70.5537,33.0023 70.0017,33.0023 C69.4497,33.0023 69.0017,32.5543 69.0017,32.0023 C69.0017,31.4503 69.4497,31.0023 70.0017,31.0023 C70.5537,31.0023 71.0017,31.4503 71.0017,32.0023" id="Fill-48" fill="#545E65"></path>
                    <path d="M77.0023,32.0023 C77.0023,32.5543 76.5543,33.0023 76.0023,33.0023 C75.4503,33.0023 75.0023,32.5543 75.0023,32.0023 C75.0023,31.4503 75.4503,31.0023 76.0023,31.0023 C76.5543,31.0023 77.0023,31.4503 77.0023,32.0023" id="Fill-49" fill="#545E65"></path>
                    <path d="M52.9999,38.0029 C52.9999,38.5549 52.5519,39.0029 51.9999,39.0029 C51.4479,39.0029 50.9999,38.5549 50.9999,38.0029 C50.9999,37.4509 51.4479,37.0029 51.9999,37.0029 C52.5519,37.0029 52.9999,37.4509 52.9999,38.0029" id="Fill-50" fill="#545E65"></path>
                    <path d="M59.0005,38.0029 C59.0005,38.5549 58.5525,39.0029 58.0005,39.0029 C57.4485,39.0029 57.0005,38.5549 57.0005,38.0029 C57.0005,37.4509 57.4485,37.0029 58.0005,37.0029 C58.5525,37.0029 59.0005,37.4509 59.0005,38.0029" id="Fill-51" fill="#545E65"></path>
                    <path d="M65.0011,38.0029 C65.0011,38.5549 64.5531,39.0029 64.0011,39.0029 C63.4491,39.0029 63.0011,38.5549 63.0011,38.0029 C63.0011,37.4509 63.4491,37.0029 64.0011,37.0029 C64.5531,37.0029 65.0011,37.4509 65.0011,38.0029" id="Fill-52" fill="#545E65"></path>
                    <path d="M71.0017,38.0029 C71.0017,38.5549 70.5537,39.0029 70.0017,39.0029 C69.4497,39.0029 69.0017,38.5549 69.0017,38.0029 C69.0017,37.4509 69.4497,37.0029 70.0017,37.0029 C70.5537,37.0029 71.0017,37.4509 71.0017,38.0029" id="Fill-53" fill="#545E65"></path>
                    <path d="M77.0023,38.0029 C77.0023,38.5549 76.5543,39.0029 76.0023,39.0029 C75.4503,39.0029 75.0023,38.5549 75.0023,38.0029 C75.0023,37.4509 75.4503,37.0029 76.0023,37.0029 C76.5543,37.0029 77.0023,37.4509 77.0023,38.0029" id="Fill-54" fill="#545E65"></path>
                    <path d="M52.9999,44.0035 C52.9999,44.5555 52.5519,45.0035 51.9999,45.0035 C51.4479,45.0035 50.9999,44.5555 50.9999,44.0035 C50.9999,43.4515 51.4479,43.0035 51.9999,43.0035 C52.5519,43.0035 52.9999,43.4515 52.9999,44.0035" id="Fill-55" fill="#545E65"></path>
                    <path d="M59.0005,44.0035 C59.0005,44.5555 58.5525,45.0035 58.0005,45.0035 C57.4485,45.0035 57.0005,44.5555 57.0005,44.0035 C57.0005,43.4515 57.4485,43.0035 58.0005,43.0035 C58.5525,43.0035 59.0005,43.4515 59.0005,44.0035" id="Fill-56" fill="#545E65"></path>
                    <path d="M65.0011,44.0035 C65.0011,44.5555 64.5531,45.0035 64.0011,45.0035 C63.4491,45.0035 63.0011,44.5555 63.0011,44.0035 C63.0011,43.4515 63.4491,43.0035 64.0011,43.0035 C64.5531,43.0035 65.0011,43.4515 65.0011,44.0035" id="Fill-57" fill="#545E65"></path>
                    <path d="M71.0017,44.0035 C71.0017,44.5555 70.5537,45.0035 70.0017,45.0035 C69.4497,45.0035 69.0017,44.5555 69.0017,44.0035 C69.0017,43.4515 69.4497,43.0035 70.0017,43.0035 C70.5537,43.0035 71.0017,43.4515 71.0017,44.0035" id="Fill-58" fill="#545E65"></path>
                    <path d="M77.0023,44.0035 C77.0023,44.5555 76.5543,45.0035 76.0023,45.0035 C75.4503,45.0035 75.0023,44.5555 75.0023,44.0035 C75.0023,43.4515 75.4503,43.0035 76.0023,43.0035 C76.5543,43.0035 77.0023,43.4515 77.0023,44.0035" id="Fill-59" fill="#545E65"></path>
                    <path d="M52.9999,50.0041 C52.9999,50.5561 52.5519,51.0041 51.9999,51.0041 C51.4479,51.0041 50.9999,50.5561 50.9999,50.0041 C50.9999,49.4521 51.4479,49.0041 51.9999,49.0041 C52.5519,49.0041 52.9999,49.4521 52.9999,50.0041" id="Fill-60" fill="#545E65"></path>
                    <path d="M59.0005,50.0041 C59.0005,50.5561 58.5525,51.0041 58.0005,51.0041 C57.4485,51.0041 57.0005,50.5561 57.0005,50.0041 C57.0005,49.4521 57.4485,49.0041 58.0005,49.0041 C58.5525,49.0041 59.0005,49.4521 59.0005,50.0041" id="Fill-61" fill="#545E65"></path>
                    <path d="M65.0011,50.0041 C65.0011,50.5561 64.5531,51.0041 64.0011,51.0041 C63.4491,51.0041 63.0011,50.5561 63.0011,50.0041 C63.0011,49.4521 63.4491,49.0041 64.0011,49.0041 C64.5531,49.0041 65.0011,49.4521 65.0011,50.0041" id="Fill-62" fill="#545E65"></path>
                    <path d="M71.0017,50.0041 C71.0017,50.5561 70.5537,51.0041 70.0017,51.0041 C69.4497,51.0041 69.0017,50.5561 69.0017,50.0041 C69.0017,49.4521 69.4497,49.0041 70.0017,49.0041 C70.5537,49.0041 71.0017,49.4521 71.0017,50.0041" id="Fill-63" fill="#545E65"></path>
                    <path d="M77.0023,50.0041 C77.0023,50.5561 76.5543,51.0041 76.0023,51.0041 C75.4503,51.0041 75.0023,50.5561 75.0023,50.0041 C75.0023,49.4521 75.4503,49.0041 76.0023,49.0041 C76.5543,49.0041 77.0023,49.4521 77.0023,50.0041" id="Fill-64" fill="#545E65"></path>
                    <path d="M43.5064,9.999 L43.5064,56" id="Stroke-65" stroke="#545E65"></path>
                    <path d="M58.0066,3.9999 L58.0066,62.9999" id="Stroke-66" stroke="#FF5C47" stroke-width="2"></path>
                    <path d="M56.0064,5 L56.0064,9.995" id="Stroke-67" stroke="#F6F6F6" stroke-width="2"></path>
                </g>
                <g id="pencil" transform="translate(73.000000, 167.000000)">
                    <polygon id="Fill-68" fill="#FF5C47" points="7.5005 0 4.0385 6 10.9625 6"></polygon>
                    <polygon id="Fill-69" fill="#FF5C47" points="3 37 15 37 15 13 3 13"></polygon>
                    <path d="M7.5005,37 L7.5005,13" id="Fill-70" fill="#F6F6F6"></path>
                    <path d="M7.5005,37 L7.5005,13" id="Stroke-71" stroke="#545E65"></path>
                    <polygon id="Stroke-73" stroke="#545E65" stroke-width="2" points="7.5005 0 0.0005 13 0.0005 37 15.0005 37 15.0005 13"></polygon>
                </g>
                <g id="flower" transform="translate(135.000000, 0.000000)">
                    <path d="M30.4984,55.002 C15.8864,55.002 3.9984,43.114 3.9984,28.502 C3.9984,13.89 15.8864,2.002 30.4984,2.002 C45.1104,2.002 56.9984,13.89 56.9984,28.502 C56.9984,43.114 45.1104,55.002 30.4984,55.002" id="Fill-74" fill="#FF5C47"></path>
                    <path d="M29.9984,0.002 C14.5344,0.002 1.9984,12.538 1.9984,28.002 C1.9984,43.466 14.5344,56.002 29.9984,56.002 C45.4624,56.002 57.9984,43.466 57.9984,28.002 C57.9984,12.538 45.4624,0.002 29.9984,0.002 M29.9984,1.002 C44.8864,1.002 56.9984,13.114 56.9984,28.002 C56.9984,42.89 44.8864,55.002 29.9984,55.002 C15.1104,55.002 2.9984,42.89 2.9984,28.002 C2.9984,13.114 15.1104,1.002 29.9984,1.002" id="Fill-75" fill="#545E65"></path>
                    <path d="M52.9984,28.002 C52.9984,40.705 42.7014,51.002 29.9984,51.002 C17.2954,51.002 6.9984,40.705 6.9984,28.002 C6.9984,15.299 17.2954,5.002 29.9984,5.002 C42.7014,5.002 52.9984,15.299 52.9984,28.002" id="Fill-76" fill="#545E65"></path>
                    <path d="M60.9982,27.502 C57.7142,22.672 52.2242,19.502 45.9982,19.502 C45.9052,19.502 45.8132,19.509 45.7202,19.511 C46.6582,17.144 46.9052,14.559 46.4312,12.069 C43.5442,11.519 40.5322,11.939 37.8792,13.288 C37.5012,8.397 34.8662,4.132 30.9982,1.502 C27.7622,3.702 25.3922,7.049 24.4802,10.947 C20.7112,8.226 16.0442,7.287 11.6252,8.129 C10.8792,12.046 11.5272,16.158 13.5782,19.667 C8.3632,20.37 3.8492,23.309 0.9982,27.502 C3.6522,31.405 7.7482,34.223 12.5082,35.161 C9.8052,39.19 8.9012,44.079 9.7852,48.715 C15.2632,49.759 21.0912,48.304 25.4392,44.337 C26.4862,47.267 28.4502,49.77 30.9982,51.502 C33.5462,49.77 35.5102,47.267 36.5572,44.337 C40.9052,48.304 46.7332,49.759 52.2112,48.715 C53.0952,44.079 52.1912,39.19 49.4882,35.161 C54.2482,34.223 58.3442,31.405 60.9982,27.502" id="Fill-77" fill="#F6F6F6"></path>
                    <path d="M59.5093,28.5029 C56.4413,24.7239 51.8583,22.5039 46.9403,22.5039 C46.9373,22.5039 43.7593,22.5579 43.7593,22.5579 L44.8613,19.7739 C45.4843,18.2009 45.7493,16.5239 45.6443,14.8569 C45.4103,14.8419 45.1753,14.8349 44.9413,14.8349 C43.1593,14.8349 41.3763,15.2619 39.7853,16.0699 L37.1163,17.4269 L36.9983,14.2509 C36.7133,10.5589 36.0473,6.3339 33.2063,3.9599 C30.6653,5.3349 28.1063,9.5029 27.4273,12.4019 L26.7443,15.3259 L24.3103,13.5679 C21.8283,11.7769 18.8813,10.8309 15.7863,10.8309 C15.3213,10.8309 14.8563,10.8529 14.3923,10.8969 C14.1023,13.9559 14.7643,17.0219 16.3053,19.6589 C16.3053,19.6589 22.9983,20.2509 26.0613,23.3139 C24.8733,22.7509 20.4363,21.3139 14.8453,22.6489 C10.8663,23.5999 7.0853,25.3049 4.4883,28.5029 C6.8823,31.4609 10.1753,33.4649 13.8953,34.1979 L16.8433,34.7789 L15.1693,37.2749 C13.0573,40.4229 12.1453,44.1699 12.5443,47.9539 C13.1103,48.0129 13.6783,48.0429 14.2443,48.0429 C18.2823,48.0429 22.1343,46.5569 25.0923,43.8599 L25.6713,43.3309 L25.1943,41.1249 L25.0923,39.5329 L27.0613,39.5639 C27.0613,39.5639 27.3113,42.4699 28.3223,44.6649 C29.2323,46.6379 30.3383,48.5599 31.9983,49.9869 C33.6593,48.5599 34.9423,46.7109 35.6743,44.6649 L35.4983,42.5009 L38.3733,45.2949 C41.3303,47.9919 45.7103,48.7149 49.7483,48.7149 C50.3153,48.7149 50.8863,48.0129 51.4523,47.9539 C51.8513,44.1699 52.2353,40.2119 50.1233,37.0639 L48.4983,34.5849 L50.1013,34.1979 C53.8213,33.4649 57.1143,31.4619 59.5093,28.5029" id="Fill-78" fill="#D8F0C8"></path>
                    <path d="M60.9982,27.502 C57.7142,22.672 52.2242,19.502 45.9982,19.502 C45.9052,19.502 45.8132,19.509 45.7202,19.511 C46.6582,17.144 46.9052,14.559 46.4312,12.069 C43.5442,11.519 40.5322,11.939 37.8792,13.288 C37.5012,8.397 34.8662,4.132 30.9982,1.502 C27.7622,3.702 25.3922,7.049 24.4802,10.947 C20.7112,8.226 16.0442,7.287 11.6252,8.129 C10.8792,12.046 11.5272,16.158 13.5782,19.667 C8.3632,20.37 3.8492,23.309 0.9982,27.502 C3.6522,31.405 7.7482,34.223 12.5082,35.161 C9.8052,39.19 8.9012,44.079 9.7852,48.715 C15.2632,49.759 21.0912,48.304 25.4392,44.337 C26.4862,47.267 28.4502,49.77 30.9982,51.502 C33.5462,49.77 35.5102,47.267 36.5572,44.337 C40.9052,48.304 46.7332,49.759 52.2112,48.715 C53.0952,44.079 52.1912,39.19 49.4882,35.161 C54.2482,34.223 58.3442,31.405 60.9982,27.502 L60.9982,27.502 Z" id="Stroke-79" stroke="#545E65" stroke-width="2"></path>
                    <path d="M25.098,39.5019 C25.098,44.1259 27.409,48.4579 31.28,51.0879" id="Stroke-80" stroke="#545E65"></path>
                    <path d="M42.4559,23.6152 C45.4359,20.6352 46.7389,16.3542 45.9399,12.1632" id="Stroke-81" stroke="#545E65"></path>
                    <path d="M47.2617,32.4518 C42.8597,28.0498 36.7347,26.4088 30.9987,27.5018 C29.9047,33.2388 31.5457,39.3628 35.9477,43.7658 C40.3507,48.1678 46.4747,49.8088 52.2117,48.7148 C53.3047,42.9788 51.6637,36.8538 47.2617,32.4518 L47.2617,32.4518 Z" id="Stroke-82" stroke="#545E65" stroke-width="2"></path>
                    <path d="M15.9982,19.502 C9.7722,19.502 4.2822,22.672 0.9982,27.502 C4.2822,32.332 9.7722,35.502 15.9982,35.502 C22.2242,35.502 27.7142,32.332 30.9982,27.502 C27.7142,22.672 22.2242,19.502 15.9982,19.502 L15.9982,19.502 Z" id="Stroke-83" stroke="#545E65" stroke-width="2"></path>
                    <path d="M30.9982,19.5023 L30.9982,27.5023" id="Stroke-84" stroke="#545E65"></path>
                    <path d="M30.9982,27.502 L26.8312,27.502" id="Stroke-85" stroke="#545E65"></path>
                    <path d="M52.2114,48.7152 L38.0814,34.5852" id="Stroke-86" stroke="#545E65"></path>
                    <path d="M25.7556,22.2594 L11.6256,8.1294" id="Stroke-87" stroke="#545E65"></path>
                    <path d="M9.785,48.7152 L19.095,39.4052" id="Stroke-88" stroke="#545E65"></path>
                    <path d="M60.9982,27.502 L54.2482,27.502" id="Stroke-89" stroke="#545E65"></path>
                    <path d="M0.9982,27.502 L15.9982,27.502" id="Stroke-90" stroke="#545E65"></path>
                </g>
            </g>
        </g>
    </g>
</svg>