<?xml version="1.0" encoding="UTF-8"?>
<svg width="1136px" height="1143px" viewBox="0 0 1136 1143" version="1.1" xmlns="http://www.w3.org/2000/svg" xmlns:xlink="http://www.w3.org/1999/xlink">
    <!-- Generator: Sketch 48.1 (47250) - http://www.bohemiancoding.com/sketch -->
    <title>7</title>
    <desc>Created with Sketch.</desc>
    <defs>
        <linearGradient x1="77.621343%" y1="79.0043668%" x2="10.8194531%" y2="-39.1673945%" id="linearGradient-1">
            <stop stop-color="#EEF6FF" offset="0%"></stop>
            <stop stop-color="#DDE9F2" offset="100%"></stop>
        </linearGradient>
    </defs>
    <g id="Page-1" stroke="none" stroke-width="1" fill="none" fill-rule="evenodd">
        <g id="7">
            <path d="M630.25,570.12 C625.67,589.84 616.82,609.43 601,622 C585.18,634.57 561.24,638.43 544.47,627.08" id="Shape" stroke="#7F73F4" stroke-width="2.6"></path>
            <ellipse id="Oval" fill="#DDE9F2" fill-rule="nonzero" cx="927" cy="957" rx="105.5" ry="14"></ellipse>
            <ellipse id="Oval" fill="#DDE9F2" fill-rule="nonzero" transform="translate(526.905461, 912.859737) rotate(-5.840000) translate(-526.905461, -912.859737) " cx="526.905461" cy="912.859737" rx="192.65" ry="26.62"></ellipse>
            <path d="M877.42,387.35 L830.85,411.57 C830.85,411.57 778.41,364.57 763.79,346.37 C753.49,333.51 739.57,299.8 719.08,297.94 L720.94,428.34 C720.94,428.34 774.94,504.71 788,504.71 C801.06,504.71 821.53,493.53 834.57,480.49 C847.61,467.45 892.32,411.57 892.32,411.57 L877.42,387.35 Z" id="Shape" fill="#021867" fill-rule="nonzero"></path>
            <path d="M786.16,244.88 C772.03,265.88 751.38,278.16 734.08,277.64 C732.18,279.52 722.55,290.05 724.67,309.12 L672.51,283 C672.51,283 699.58,268.93 705.66,253.17 C702.08,237.79 706.41,217.58 718.66,199.43 C737.45,171.43 767.8,158.98 786.46,171.52 C805.12,184.06 805,216.93 786.16,244.88 Z" id="Shape" fill="#FFCBBD" fill-rule="nonzero"></path>
            <path d="M727,222.35 C727,222.35 719.33,243.45 719.33,251.12 C719.33,258.79 702.07,245.37 698.23,237.7 C694.39,230.03 702.07,195.51 702.07,195.51 C702.07,195.51 713.58,153.32 736.59,151.4 C759.6,149.48 768.23,152.89 778.78,153.32 C789.99,153.77 811.38,149.48 820.97,168.66 C830.56,187.84 828.64,197.43 817.13,201.26 C805.62,205.09 787.4,200.26 781.65,192.63 C775.9,185 762.97,188.85 758.65,192.63 C753.03,197.53 744.94,214.78 737.55,213.73 C733.14,213.1 731.08,200.25 721.49,206.01 C711.9,211.77 727,222.35 727,222.35 Z" id="Shape" fill="#01154C" fill-rule="nonzero"></path>
            <rect id="Rectangle-path" fill="#C731D3" fill-rule="nonzero" x="871.5" y="352" width="146" height="15"></rect>
            <rect id="Rectangle-path" fill="#EF75D8" fill-rule="nonzero" x="875.5" y="367" width="138" height="196"></rect>
            <path d="M918.14,402.14 C918.46,401.23 924.69,381.85 926.14,379.23 C927.59,376.61 932.24,369.44 932.21,368.37 C932.18,367.3 935.47,370.37 934.5,373.64 C933.53,376.91 930.01,383.91 931.66,385.47 C933.31,387.03 934.92,387.47 940.19,385.21 C945.46,382.95 951.78,380.59 953.37,380.02 C954.96,379.45 960.73,376.6 961.87,378.69 C963.01,380.78 947.23,388.74 946.71,389.29 C946.19,389.84 946.23,390.91 947.3,390.86 C948.37,390.81 958.92,387.31 960.51,386.74 C961.83,386.26 963.19,385.86 964.51,385.46 C965.51,385.2 970.51,383.46 969.41,385.96 C968.71,387.58 965.71,388.59 964.3,389.28 C963.22,389.81 961.95,390.39 960.6,390.98 C962.88,390.15 967.19,389.41 969.5,388.8 C970.169187,388.613981 970.884046,388.689041 971.5,389.01 C972.05,389.55 960.44,395.51 959.5,396.01 C955.31,398.27 948.18,402.01 948.18,402.01 C948.18,402.01 964.62,399.01 964.71,402.01 C964.71,403.01 959.93,404.24 959.21,404.48 C954.99,405.89 950.87,407.48 946.59,408.74 C943.29,409.74 939.94,410.59 936.69,411.74 C934.61004,412.515201 932.576646,413.410028 930.6,414.42 L929.82,414.83 C929.22,414.98 928.31,415.17 927.19,415.42 C925.19,411.86 918.19,402.42 918.19,402.42 L918.14,402.14 Z" id="Shape" fill="#FFCBBD" fill-rule="nonzero"></path>
            <path d="M632.09,631.81 L487.5,600 C487.5,600 504.68,666 519.89,696.46 C535.1,726.92 594.05,846.68 594.05,846.68 C594.05,846.68 459.05,858.09 415.3,865.68 C371.55,873.27 339.24,882.79 337.3,884.68 C335.36,886.57 324.46,899.96 350.41,909.68 C350.41,909.68 599.89,929.24 675.77,899.86 C688.12,895.08 702.39,877.04 694.77,850.42 L632.09,631.81 Z" id="Shape" fill="#0A65C2" fill-rule="nonzero"></path>
            <path d="M825.26,927.56 C825.26,927.56 819.67,936.87 821.53,948.05 C823.39,959.23 825.26,959.23 832.71,959.23 C840.16,959.23 849.71,957.61 855.06,959.23 C860.57,960.9 866.24,966.68 877.41,964.82 C888.58,962.96 897.74,958.82 896.04,953.64 C892.89,944.12 860.65,944.33 858.78,938.74 C857.709014,935.744057 857.082371,932.60747 856.92,929.43 L825.26,927.56 Z" id="Shape" fill="#021867" fill-rule="nonzero"></path>
            <path d="M486.5,596 C486.5,596 548.5,709 652.05,697.41 C789,682.1 874.54,655.58 874.54,655.58 C874.54,655.58 821.29,885.67 819.39,927.5 L863.13,933.2 C863.13,933.2 929.68,743.04 935.39,725.93 C941.1,708.82 963.91,627.05 963.91,600.43 C963.91,573.81 937.29,562.43 927.78,562.43 L722.41,562.43 C722.41,562.43 679.62,622.33 565.53,622.33 C565.53,622.3 502.66,627.38 486.5,596 Z" id="Shape" fill="#1075FD" fill-rule="nonzero"></path>
            <path d="M329.76,933.15 C330.42,938.06 333.49,944.33 344.66,946.15 C355.83,947.97 367.01,946.15 367.01,940.56 C367.01,934.97 352.11,927.56 352.11,923.79 C352.11,920.02 355.84,912.61 355.84,908.89 C355.84,905.17 344.5,882 344.5,882 C344.5,882 320.45,882.86 320.45,890.31 C320.45,890.31 323.24,908.01 326.97,911.73 C330.7,915.45 329,927.8 329.76,933.15 Z" id="Shape" fill="#021867" fill-rule="nonzero"></path>
            <path d="M931.44,420.88 C931.44,420.88 886.73,478.63 855.07,497.26 C823.41,515.89 782.42,480.49 715.36,441.38 L712.46,439.67 C706.57,464.37 697.22,508.41 700.71,526.15 C703.26,539.08 723,562 723,562 C714,578.14 650.52,630.13 578.8,630.13 C507.08,630.13 489.17,606.82 489.17,606.82 C480.17,576.34 481.99,540.49 508.89,458.02 C535.79,375.55 609.28,307.43 629,291.29 C629.19,291.11 629.42,290.95 629.62,290.79 C643.62,279.79 661.7,278.96 678.73,280.08 C683.49,280.4 687.8,280.69 692.27,282.43 C698.889602,285.123737 705.23258,288.452628 711.21,292.37 C717.16,296.15 723.95,298.37 730.02,302.04 C732.96,303.81 736.19,306.04 737.69,309.23 C739.19,312.42 739.46,316.97 739.55,320.58 C739.603231,328.71125 738.873194,336.828726 737.37,344.82 C751.15,355.09 762.86,364.07 762.86,364.07 C762.86,364.07 837.37,433 841.1,436.72 C844.83,440.44 872.76,423.72 872.76,423.72 L902.57,401.37 C902.57,401.37 909.09,392.98 920.26,398.57 C931.43,404.16 931.44,420.88 931.44,420.88 Z" id="Shape" fill="#021867" fill-rule="nonzero"></path>
            <ellipse id="Oval" fill="#DDE9F2" fill-rule="nonzero" cx="857" cy="1052.5" rx="278.5" ry="33.79"></ellipse>
            <rect id="Rectangle-path" fill="#0C65CC" fill-rule="nonzero" x="974.5" y="950" width="124" height="91"></rect>
            <polygon id="Shape" fill="#0F7CFD" fill-rule="nonzero" points="1037.74 902.57 974.5 950 1098.5 950"></polygon>
            <rect id="Rectangle-path" fill="#FFFFFF" fill-rule="nonzero" x="1004.5" y="918" width="76" height="77"></rect>
            <polygon id="Shape" fill="#0F7CFD" fill-rule="nonzero" points="974.5 1041 974.5 950.22 1037.52 992.7 1098.5 950.22 1098.5 1041"></polygon>
            <polygon id="Shape" fill="#3599FC" fill-rule="nonzero" points="1037.57 992.5 974.5 1039.83 974.5 1041 1097.19 1041 1098.5 1041 1098.5 1040.6"></polygon>
            <rect id="Rectangle-path" fill="#00D8BE" fill-rule="nonzero" transform="translate(914.500000, 1050.000000) rotate(-90.000000) translate(-914.500000, -1050.000000) " x="903.5" y="974" width="22" height="152"></rect>
            <path d="M864.005,912.495 L954.435,912.495 C960.27265,912.495 965.005,917.22735 965.005,923.065 L965.005,1053.935 C965.005,1059.77265 960.27265,1064.505 954.435,1064.505 L864.005,1064.505 L864.005,912.505 L864.005,912.495 Z" id="Shape" fill="#01ECD5" fill-rule="nonzero" transform="translate(914.505000, 988.500000) rotate(-90.000000) translate(-914.505000, -988.500000) "></path>
            <polygon id="Shape" fill="#FFFFFF" fill-rule="nonzero" points="875.17 970 838.5 970 838.5 949 875.17 949 867.84 958.88"></polygon>
            <rect id="Rectangle-path" fill="#C731D3" fill-rule="nonzero" x="935.5" y="974" width="124" height="91"></rect>
            <polygon id="Shape" fill="#EF75D8" fill-rule="nonzero" points="998.74 926.57 935.5 974 1059.5 974"></polygon>
            <polygon id="Shape" fill="#AF21BF" fill-rule="nonzero" points="935.5 1065 935.5 974.22 998.52 1016.7 1059.5 974.22 1059.5 1065"></polygon>
            <polygon id="Shape" fill="#EF75D8" fill-rule="nonzero" points="998.57 1016.5 935.5 1063.83 935.5 1065 1058.19 1065 1059.5 1065 1059.5 1064.6"></polygon>
            <rect id="Rectangle-path" fill="#0A65C2" fill-rule="nonzero" x="792.5" y="943" width="18" height="122"></rect>
            <path d="M810.5,943 L883,943 C887.683375,943 891.48,946.796625 891.48,951.48 L891.48,1056.48 C891.490641,1058.73596 890.601915,1060.90317 889.010452,1062.50214 C887.418989,1064.10111 885.255983,1065.00003 883,1065 L810.5,1065 L810.5,943 Z" id="Shape" fill="#0C80DE" fill-rule="nonzero"></path>
            <polygon id="Shape" fill="#FFFFFF" fill-rule="nonzero" points="865.5 972.27 865.5 943 882.5 943 882.5 972.27 874.5 966.42"></polygon>
            <rect id="Rectangle-path" fill="#021867" fill-rule="nonzero" x="638.5" y="1041" width="234" height="34"></rect>
            <circle id="Oval" fill="#FFFFFF" fill-rule="nonzero" cx="855.5" cy="1058" r="8"></circle>
            <rect id="Rectangle-path" fill="#FFFFFF" fill-rule="nonzero" x="833.5" y="1041" width="2" height="16"></rect>
            <rect id="Rectangle-path" fill="#FFFFFF" fill-rule="nonzero" x="823.5" y="1041" width="2" height="21"></rect>
            <rect id="Rectangle-path" fill="#FFFFFF" fill-rule="nonzero" x="813.5" y="1041" width="2" height="16"></rect>
            <rect id="Rectangle-path" fill="#FFFFFF" fill-rule="nonzero" x="803.5" y="1041" width="2" height="22"></rect>
            <rect id="Rectangle-path" fill="#FFFFFF" fill-rule="nonzero" x="794.5" y="1041" width="2" height="16"></rect>
            <rect id="Rectangle-path" fill="#FFFFFF" fill-rule="nonzero" x="784.5" y="1041" width="2" height="22"></rect>
            <rect id="Rectangle-path" fill="#FFFFFF" fill-rule="nonzero" x="774.5" y="1041" width="2" height="16"></rect>
            <rect id="Rectangle-path" fill="#FFFFFF" fill-rule="nonzero" x="765.5" y="1041" width="2" height="22"></rect>
            <rect id="Rectangle-path" fill="#FFFFFF" fill-rule="nonzero" x="755.5" y="1041" width="2" height="16"></rect>
            <rect id="Rectangle-path" fill="#FFFFFF" fill-rule="nonzero" x="745.5" y="1041" width="2" height="22"></rect>
            <rect id="Rectangle-path" fill="#FFFFFF" fill-rule="nonzero" x="735.5" y="1041" width="2" height="16"></rect>
            <rect id="Rectangle-path" fill="#FFFFFF" fill-rule="nonzero" x="726.5" y="1041" width="2" height="22"></rect>
            <rect id="Rectangle-path" fill="#FFFFFF" fill-rule="nonzero" x="716.5" y="1041" width="2" height="16"></rect>
            <rect id="Rectangle-path" fill="#FFFFFF" fill-rule="nonzero" x="706.5" y="1041" width="2" height="22"></rect>
            <rect id="Rectangle-path" fill="#FFFFFF" fill-rule="nonzero" x="697.5" y="1041" width="2" height="16"></rect>
            <rect id="Rectangle-path" fill="#FFFFFF" fill-rule="nonzero" x="687.5" y="1041" width="2" height="22"></rect>
            <rect id="Rectangle-path" fill="#FFFFFF" fill-rule="nonzero" x="677.5" y="1041" width="2" height="16"></rect>
            <rect id="Rectangle-path" fill="#FFFFFF" fill-rule="nonzero" x="667.5" y="1041" width="2" height="22"></rect>
            <rect id="Rectangle-path" fill="#FFFFFF" fill-rule="nonzero" x="658.5" y="1041" width="2" height="16"></rect>
            <rect id="Rectangle-path" fill="#FFFFFF" fill-rule="nonzero" x="648.5" y="1041" width="2" height="22"></rect>
            <rect id="Rectangle-path" fill="#0A65C2" fill-rule="nonzero" x="84.5" y="0" width="188" height="202"></rect>
            <rect id="Rectangle-path" fill="#FFFFFF" fill-rule="nonzero" x="101.5" y="16" width="155" height="168"></rect>
            <circle id="Oval" fill="#FEE983" fill-rule="nonzero" cx="215.5" cy="53" r="20"></circle>
            <path d="M256.5,130.23 L256.5,158 L101.5,158 L101.5,123.16 C116.11,121.23 128.64,108.59 130.3,93.99 C131.03,87.64 129.96,80.91 134.09,75.42 C135.777127,73.087872 138.524479,71.7611754 141.4,71.89 C145.8,72.21 147.31,75.6 148.63,78.76 L162.33,111.41 C164.12,115.69 166.33,120.41 170.71,122.04 C174.49,123.46 178.87,122.04 181.97,119.45 C185.07,116.86 185.61,111.77 189.15,109.84 C195.54,106.36 200.68,117.77 205.38,123.32 C217.28,137.4 240.27,140.57 256.5,130.23 Z" id="Shape" fill="#FEE983" fill-rule="nonzero"></path>
            <path d="M256.5,143.23 L256.5,184 L101.5,184 L101.25,137.43 L101.5,137.27 C109.09,132.27 118.11,131.76 127.05,133.66 C135.99,135.56 144.49,139.66 153.05,143.22 C169.15,149.85 186.24,154.47 203.65,155.07 C221.984624,155.657844 240.168636,151.584075 256.5,143.23 Z" id="Shape" fill="#FEF7D8" fill-rule="nonzero"></path>
            <polygon id="Shape" fill="#0A5EA3" fill-rule="nonzero" points="23.5 858.44 23.5 1011.58 175.5 951.08 175.5 809.29"></polygon>
            <polygon id="Shape" fill="#0A5EA3" fill-rule="nonzero" points="326.5 858.43 326.5 1000.22 175.5 962.41 175.5 809.27"></polygon>
            <path d="M244.7,872.52 C266,886.92 244.12,899.95 223.31,909.38 C213.31,914.1 205.25,917.91 199.71,920.55 C193.32,923.19 189.47,924.65 168.2,924.65 C152.76,924.65 121.76,923.19 99.69,920.55 C76.69,917.91 62.54,914.1 58.69,909.38 C51.1,899.95 81.21,886.91 91.69,872.52 C104.12,858.12 134.45,846.97 150.28,839.41 C158.28,835.63 162.28,832.75 162.82,830.82 C163.82,828.89 161.28,827.9 166.71,827.9 C173.869074,828.351679 180.985061,829.331004 188,830.83 C197.15,832.76 204.43,835.64 209.7,839.42 C219.78,847 224.44,858.13 244.7,872.52 Z" id="Shape" fill="#FFFFFF" fill-rule="nonzero"></path>
            <path d="M88.57,868.5 L131.7,843.7 C132.037247,843.50529 132.452753,843.50529 132.79,843.7 L198.35,881.55 C198.688257,881.744438 198.896792,882.104842 198.896792,882.495 C198.896792,882.885158 198.688257,883.245562 198.35,883.44 L155.22,908.23 C154.882753,908.42471 154.467247,908.42471 154.13,908.23 L88.57,870.38 C88.2365989,870.184281 88.0318152,869.826603 88.0318152,869.44 C88.0318152,869.053397 88.2365989,868.695719 88.57,868.5 Z" id="Shape" fill="#DD3E3E" fill-rule="nonzero"></path>
            <polygon id="Shape" fill="#654AD5" fill-rule="nonzero" points="86.94 869.44 132.24 843.39 199.99 882.5 154.68 908.55"></polygon>
            <polygon id="Shape" fill="#FCFCFC" fill-rule="nonzero" points="153.5 907.96 153.5 901.42 196.5 877.23 196.5 883.14"></polygon>
            <polygon id="Shape" fill="#C8BBFD" fill-rule="nonzero" points="86.93 862.9 132.24 836.86 199.98 875.97 154.67 902.01"></polygon>
            <polygon id="Shape" fill="#654AD5" fill-rule="nonzero" points="86.5 862.83 86.5 869.37 154.5 908.63 154.5 902.08"></polygon>
            <path d="M122.41,874.25 L180.33,840.95 C180.781726,840.689196 181.338274,840.689196 181.79,840.95 L269.85,891.79 C270.307235,892.049295 270.589792,892.53436 270.589792,893.06 C270.589792,893.58564 270.307235,894.070705 269.85,894.33 L211.92,927.62 C211.468274,927.880804 210.911726,927.880804 210.46,927.62 L122.41,876.78 C121.957685,876.519354 121.678955,876.037039 121.678955,875.515 C121.678955,874.992961 121.957685,874.510646 122.41,874.25 Z" id="Shape" fill="#DD3E3E" fill-rule="nonzero"></path>
            <polygon id="Shape" fill="#FEE983" fill-rule="nonzero" points="120.21 875.51 181.06 840.53 272.06 893.06 211.19 928.04"></polygon>
            <polygon id="Shape" fill="#FCFCFC" fill-rule="nonzero" points="209.5 927.62 209.5 918.81 267.5 886.17 267.5 894.15"></polygon>
            <polygon id="Shape" fill="#FEF7D8" fill-rule="nonzero" points="120.2 866.74 181.06 831.75 272.05 884.29 211.18 919.27"></polygon>
            <polygon id="Shape" fill="#FEE983" fill-rule="nonzero" points="120.5 866.74 120.5 875.5 211.5 928.04 211.5 919.28"></polygon>
            <path d="M146.78,868.93 L204.7,835.63 C205.151726,835.369196 205.708274,835.369196 206.16,835.63 L294.22,886.47 C294.677235,886.729295 294.959792,887.21436 294.959792,887.74 C294.959792,888.26564 294.677235,888.750705 294.22,889.01 L236.3,922.31 C235.848274,922.570804 235.291726,922.570804 234.84,922.31 L146.79,871.47 C146.331738,871.21251 146.047266,870.728556 146.045197,870.202913 C146.043127,869.677269 146.32378,869.19109 146.78,868.93 Z" id="Shape" fill="#DD3E3E" fill-rule="nonzero"></path>
            <polygon id="Shape" fill="#1EEFE3" fill-rule="nonzero" points="144.58 870.2 205.44 835.21 296.43 887.75 235.56 922.73"></polygon>
            <polygon id="Shape" fill="#FCFCFC" fill-rule="nonzero" points="234.5 922.31 234.5 913.49 292.5 880.85 292.5 888.83"></polygon>
            <polygon id="Shape" fill="#87FEF7" fill-rule="nonzero" points="144.57 861.42 205.43 826.44 296.42 878.97 235.56 913.95"></polygon>
            <polygon id="Shape" fill="#1EEFE3" fill-rule="nonzero" points="144.5 861.43 144.5 870.19 235.5 922.73 235.5 913.97"></polygon>
            <polygon id="Shape" fill="url(#linearGradient-1)" fill-rule="nonzero" points="254.05 1142.2 23.44 1012.58 218.28 970.45 442.5 1031.85"></polygon>
            <polygon id="Shape" fill="#0A65C2" fill-rule="nonzero" points="174.5 913.2 174.5 1061.3 23.5 1011.93 23.5 858.14"></polygon>
            <polygon id="Shape" fill="#1075FD" fill-rule="nonzero" points="174.5 913.29 174.5 1061.11 326.5 1000.47 326.5 858.33"></polygon>
            <polygon id="Shape" fill="#1075FD" fill-rule="nonzero" points="174.84 913.28 140.72 956.88 0.7 903.8 23.45 858.3"></polygon>
            <polygon id="Shape" fill="#0A65C2" fill-rule="nonzero" points="174.2 912.83 208.2 956.88 348.85 904.26 326.19 858.3"></polygon>
        </g>
    </g>
</svg>