<?xml version="1.0" encoding="UTF-8"?>
<svg width="205px" height="218px" viewBox="0 0 205 218" version="1.1" xmlns="http://www.w3.org/2000/svg" xmlns:xlink="http://www.w3.org/1999/xlink">
    <!-- Generator: Sketch 48.1 (47250) - http://www.bohemiancoding.com/sketch -->
    <title>Illustration</title>
    <desc>Created with Sketch.</desc>
    <defs></defs>
    <g id="1" stroke="none" stroke-width="1" fill="none" fill-rule="evenodd" transform="translate(-248.000000, -1494.000000)">
        <g id="Presentation" transform="translate(200.000000, 1441.000000)">
            <g id="Illustration" transform="translate(48.000000, 52.000000)">
                <g id="phone" transform="translate(0.000000, 61.000000)">
                    <path d="M70.6375,154.9994 C69.4855,154.9874 68.3695,154.8194 67.3245,154.5024 C66.2715,154.1814 65.3375,153.7224 64.5515,153.1394 L8.2975,111.4184 C7.9695,111.1754 7.6785,110.9144 7.4305,110.6424 C7.2025,110.3914 7.0085,110.1254 6.8545,109.8544 C6.7115,109.6044 6.6025,109.3464 6.5295,109.0894 C6.4565,108.8364 6.4165,108.5834 6.4095,108.3344 L6.1935,100.7294 L62.2285,141.9634 C63.3925,142.8184 64.7435,143.4824 66.2445,143.9364 C67.6645,144.3644 69.1665,144.5914 70.7085,144.6064 L70.8785,144.6074 C72.3595,144.6074 73.8085,144.4124 75.1885,144.0274 C76.6995,143.6044 78.0675,142.9694 79.2515,142.1394 L197.7215,59.0334 L197.1355,66.7354 C197.1185,66.9494 197.0755,67.1634 197.0075,67.3694 C196.9345,67.5924 196.8315,67.8114 196.7015,68.0204 C196.5605,68.2494 196.3845,68.4744 196.1795,68.6874 C195.9575,68.9194 195.6965,69.1414 195.4035,69.3484 L76.7775,153.2604 C75.9735,153.8284 75.0275,154.2684 73.9645,154.5674 C72.9465,154.8544 71.8695,155.0004 70.7655,155.0004 L70.6375,154.9994 Z" id="Fill-1" fill="#DDE0E2"></path>
                    <path d="M70.7449,140.6065 C69.5049,140.5935 68.2499,140.4065 67.1149,140.0655 C65.9379,139.7105 64.8929,139.1995 64.0069,138.5465 L7.3069,96.8255 C6.4959,96.2275 5.8859,95.5455 5.4919,94.7975 C5.1299,94.1015 4.9659,93.3805 5.0029,92.6505 C5.0439,91.9045 5.2879,91.1765 5.7279,90.4875 C6.2049,89.7405 6.8939,89.0655 7.7759,88.4825 L127.4679,9.3775 C128.2689,8.8485 129.2539,8.4235 130.3159,8.1485 C131.3259,7.8855 132.3989,7.7525 133.5039,7.7525 L133.6439,7.7525 C134.8089,7.7645 135.9449,7.9225 137.0229,8.2215 C138.1179,8.5275 139.1019,8.9655 139.9499,9.5265 L196.5059,47.0065 C197.3639,47.5755 198.0399,48.2295 198.5129,48.9515 C198.9419,49.6085 199.1819,50.2935 199.2259,50.9905 C199.2659,51.6815 199.1159,52.3485 198.7799,52.9775 C198.4069,53.6705 197.8279,54.2955 197.0559,54.8355 L77.5289,138.6825 C76.6199,139.3205 75.5599,139.8095 74.3809,140.1375 C73.2659,140.4495 72.0889,140.6075 70.8799,140.6075 L70.7449,140.6065 Z" id="Fill-3" fill="#FFFFFF"></path>
                    <path d="M26.9274,79.5416 L87.4634,123.3216" id="Stroke-5" stroke="#545E65" stroke-width="2"></path>
                    <path d="M178.6454,59.359 L118.6154,18.943" id="Stroke-7" stroke="#545E65" stroke-width="2"></path>
                    <path d="M133.5079,2.7515 C132.1469,2.7515 130.8199,2.9165 129.5619,3.2435 C128.1649,3.6055 126.9029,4.1545 125.8129,4.8755 L112.3309,13.7855 L20.8289,74.2595 L6.1219,83.9795 C4.8889,84.7945 3.9069,85.7665 3.2009,86.8705 C2.4759,88.0035 2.0749,89.2195 2.0079,90.4855 C1.9399,91.7495 2.2259,93.0305 2.8349,94.1895 C3.4419,95.3455 4.3479,96.3715 5.5289,97.2415 L62.2279,138.9625 C63.3909,139.8175 64.7429,140.4815 66.2449,140.9355 C67.6659,141.3645 69.1679,141.5905 70.7089,141.6065 L70.8769,141.6075 C72.3599,141.6075 73.8099,141.4115 75.1879,141.0265 C76.6999,140.6045 78.0679,139.9695 79.2519,139.1385 L93.9559,128.8235 L185.3319,64.7245 L198.7789,55.2915 C199.9399,54.4775 200.8299,53.5025 201.4229,52.3945 C202.0219,51.2775 202.2969,50.0365 202.2199,48.8055 C202.1439,47.5855 201.7409,46.4095 201.0219,45.3095 C200.3279,44.2465 199.3659,43.3035 198.1629,42.5065 L141.6089,5.0255 C140.4999,4.2905 139.2269,3.7205 137.8249,3.3315 C136.4999,2.9625 135.1079,2.7675 133.6879,2.7525 L133.5079,2.7515 Z M133.5079,4.7515 C133.5609,4.7515 133.6129,4.7515 133.6659,4.7525 C134.8939,4.7655 136.1259,4.9345 137.2889,5.2575 C138.4529,5.5815 139.5489,6.0595 140.5039,6.6935 L197.0579,44.1735 C198.0549,44.8335 198.8189,45.5945 199.3479,46.4035 C199.8779,47.2135 200.1709,48.0725 200.2239,48.9305 C200.2779,49.7885 200.0909,50.6455 199.6599,51.4495 C199.2289,52.2545 198.5539,53.0065 197.6309,53.6545 L184.1829,63.0875 L184.1829,63.0875 L184.1839,63.0875 L92.8079,127.1865 L92.8079,127.1865 L78.1029,137.5015 C77.0829,138.2165 75.9049,138.7495 74.6499,139.1005 C73.4399,139.4385 72.1589,139.6075 70.8769,139.6075 C70.8279,139.6075 70.7779,139.6065 70.7289,139.6065 C69.3979,139.5925 68.0689,139.3975 66.8229,139.0215 C65.5769,138.6445 64.4149,138.0875 63.4139,137.3515 L6.7149,95.6305 C5.7579,94.9265 5.0559,94.1185 4.6059,93.2605 C4.1559,92.4025 3.9569,91.4955 4.0049,90.5915 C4.0529,89.6885 4.3479,88.7895 4.8859,87.9475 C5.4239,87.1065 6.2039,86.3225 7.2249,85.6475 L21.9309,75.9285 L21.9309,75.9285 L113.4339,15.4545 L126.9159,6.5435 C127.8419,5.9315 128.9159,5.4775 130.0649,5.1795 C131.1639,4.8935 132.3329,4.7515 133.5079,4.7515 L133.5079,4.7515 Z" id="Fill-9" fill="#545E65"></path>
                    <path d="M164.8347,37.9767 C164.6087,37.9727 164.3977,37.9417 164.1947,37.8837 C163.9777,37.8227 163.7697,37.7267 163.5857,37.6027 L150.8617,29.0997 C150.6487,28.9577 150.4777,28.7847 150.3507,28.5837 C150.2117,28.3677 150.1297,28.1117 150.1167,27.8517 C150.1067,27.5687 150.1747,27.2997 150.3117,27.0617 C150.4347,26.8477 150.6067,26.6637 150.8247,26.5167 C151.0127,26.3907 151.2227,26.2967 151.4497,26.2377 C151.6397,26.1877 151.8407,26.1627 152.0437,26.1627 C152.2877,26.1637 152.4997,26.1937 152.7037,26.2507 C152.9217,26.3107 153.1297,26.4047 153.3137,26.5277 L166.0427,35.0247 C166.2557,35.1667 166.4277,35.3407 166.5547,35.5417 C166.6967,35.7667 166.7787,36.0217 166.7907,36.2797 C166.8007,36.5587 166.7357,36.8247 166.6057,37.0597 C166.4847,37.2757 166.3137,37.4617 166.0957,37.6127 C165.9097,37.7407 165.6987,37.8357 165.4677,37.8987 C165.2737,37.9507 165.0677,37.9767 164.8557,37.9767 L164.8347,37.9767 Z" id="Fill-11" fill="#545E65"></path>
                    <path d="M52.465,104.1799 C53.345,104.8189 54,105.5539 54.43,106.3369 C54.86,107.1199 55.066,107.9509 55.047,108.7799 C55.028,109.6109 54.784,110.4389 54.316,111.2169 C53.848,111.9949 53.156,112.7229 52.241,113.3489 C51.325,113.9759 50.272,114.4429 49.152,114.7499 C48.032,115.0569 46.845,115.2039 45.663,115.1909 C44.481,115.1789 43.303,115.0079 42.201,114.6769 C41.099,114.3469 40.073,113.8589 39.192,113.2139 C38.312,112.5679 37.661,111.8269 37.237,111.0389 C36.814,110.2519 36.617,109.4189 36.645,108.5889 C36.673,107.7589 36.925,106.9329 37.399,106.1589 C37.873,105.3859 38.569,104.6639 39.485,104.0439 C40.401,103.4239 41.45,102.9639 42.564,102.6609 C43.677,102.3589 44.855,102.2139 46.029,102.2259 C47.202,102.2379 48.371,102.4079 49.467,102.7329 C50.563,103.0589 51.585,103.5419 52.465,104.1799" id="Fill-13" fill="#545E65"></path>
                    <path d="M133.5362,0.7511 L133.5142,0.7511 C131.9802,0.7511 130.4812,0.9381 129.0602,1.3071 C127.4432,1.7281 125.9802,2.3671 124.7082,3.2081 L5.0202,82.3091 C3.5502,83.2821 2.3712,84.4531 1.5152,85.7931 C0.6152,87.2031 0.0952,88.7871 0.0102,90.3761 C-0.0028,90.5881 -0.0008,90.8031 0.0032,90.9851 L0.2062,97.9251 L0.2922,101.3091 L0.4122,105.5031 C0.4342,106.2581 0.5512,107.0101 0.7602,107.7371 C0.9622,108.4481 1.2602,109.1551 1.6422,109.8271 C2.0142,110.4781 2.4642,111.0971 2.9832,111.6691 C3.5032,112.2411 4.0872,112.7671 4.7262,113.2391 L60.9762,154.9571 C62.3122,155.9491 63.8602,156.7181 65.5742,157.2411 C67.1722,157.7261 68.8442,157.9801 70.5502,157.9981 L70.7612,158.0001 C72.4452,157.9961 74.0532,157.7761 75.5882,157.3441 C77.3152,156.8561 78.8792,156.1221 80.2412,155.1591 L198.8712,71.2431 C199.4642,70.8261 200.0172,70.3541 200.5052,69.8461 C201.0002,69.3321 201.4402,68.7671 201.8092,68.1691 C202.1822,67.5651 202.4812,66.9251 202.7012,66.2641 C202.9252,65.5891 203.0642,64.8961 203.1182,64.1941 L204.2082,49.8631 C204.2382,49.4811 204.2412,49.0811 204.2172,48.6841 C204.1202,47.1351 203.5962,45.5931 202.7012,44.2211 C201.8522,42.9231 200.6982,41.7861 199.2662,40.8381 L142.7112,3.3571 C141.4262,2.5051 139.9622,1.8481 138.3592,1.4041 C136.8702,0.9901 135.3142,0.7711 133.7372,0.7531 L133.5582,0.7511 L133.5362,0.7511 Z M133.5142,4.7511 L133.6922,4.7531 C134.9092,4.7671 136.1312,4.9371 137.2912,5.2591 C138.4892,5.5911 139.5692,6.0731 140.5022,6.6911 L197.0572,44.1731 C198.0322,44.8181 198.8042,45.5701 199.3502,46.4051 C199.8662,47.1961 200.1702,48.0721 200.2242,48.9301 C200.2372,49.1361 200.2362,49.3491 200.2192,49.5601 L199.1292,63.8871 C199.1002,64.2681 199.0262,64.6391 198.9072,64.9991 C198.7842,65.3681 198.6162,65.7271 198.4072,66.0651 C198.1872,66.4211 197.9242,66.7591 197.6202,67.0751 C197.3132,67.3951 196.9562,67.7001 196.5612,67.9781 L77.9322,151.8931 C76.9432,152.5921 75.7892,153.1311 74.5052,153.4931 C73.3212,153.8261 72.0742,153.9971 70.7982,154.0001 L70.5912,153.9981 C69.2732,153.9841 67.9702,153.7881 66.7422,153.4151 C65.4712,153.0271 64.3302,152.4651 63.3592,151.7441 L7.1062,110.0241 C6.6732,109.7041 6.2862,109.3551 5.9472,108.9831 C5.6272,108.6301 5.3442,108.2441 5.1192,107.8491 C4.8972,107.4591 4.7212,107.0441 4.6042,106.6321 C4.4882,106.2281 4.4222,105.8011 4.4112,105.3891 L4.2912,101.1941 L4.3032,101.1941 L4.0022,90.8971 C4.0002,90.8081 3.9982,90.7031 4.0052,90.5881 C4.0522,89.6891 4.3572,88.7741 4.8852,87.9471 C5.4372,87.0841 6.2272,86.3071 7.2252,85.6471 L126.9162,6.5441 C127.8192,5.9461 128.8782,5.4871 130.0652,5.1791 C131.1562,4.8961 132.3212,4.7511 133.5142,4.7511 L133.5142,4.7511 Z" id="Fill-15" fill="#545E65"></path>
                </g>
                <path d="M98.5327,10.8494 C93.0097,10.8494 88.5327,6.3724 88.5327,0.8494 C88.5327,6.3724 84.0557,10.8494 78.5327,10.8494 C84.0557,10.8494 88.5327,15.3264 88.5327,20.8494 C88.5327,15.3264 93.0097,10.8494 98.5327,10.8494" id="Fill-20" fill="#C2E9F9"></path>
                <g id="Line" transform="translate(133.000000, 57.000000)">
                    <path d="M5.4411,60.1857 L5.4411,60.1857 C2.6801,60.1857 0.4411,57.9467 0.4411,55.1857 L0.4411,5.1857 C0.4411,2.4247 2.6801,0.1857 5.4411,0.1857 L5.4411,0.1857 C8.2021,0.1857 10.4411,2.4247 10.4411,5.1857 L10.4411,55.1857 C10.4411,57.9467 8.2021,60.1857 5.4411,60.1857" id="Fill-22" fill="#F6F6F6"></path>
                    <path d="M6.441,59.1856 C4.787,59.1856 3.441,57.8396 3.441,56.1856 L3.441,6.1856 C3.441,4.5316 4.787,3.1856 6.441,3.1856 C8.095,3.1856 9.441,4.5316 9.441,6.1856 L9.441,56.1856 C9.441,57.8396 8.095,59.1856 6.441,59.1856" id="Fill-24" fill="#D8F0C8"></path>
                    <path d="M5.4411,60.1857 L5.4411,60.1857 C2.6801,60.1857 0.4411,57.9467 0.4411,55.1857 L0.4411,5.1857 C0.4411,2.4247 2.6801,0.1857 5.4411,0.1857 L5.4411,0.1857 C8.2021,0.1857 10.4411,2.4247 10.4411,5.1857 L10.4411,55.1857 C10.4411,57.9467 8.2021,60.1857 5.4411,60.1857 L5.4411,60.1857 Z" id="Stroke-26" stroke="#545E65" stroke-width="2"></path>
                </g>
                <g id="Line" transform="translate(54.000000, 53.000000)">
                    <path d="M5.4371,90.1857 L5.4371,90.1857 C2.6761,90.1857 0.4371,87.9467 0.4371,85.1857 L0.4371,5.1827 C0.4371,2.4217 2.6761,0.1827 5.4371,0.1827 L5.4371,0.1827 C8.1981,0.1827 10.4371,2.4217 10.4371,5.1827 L10.4371,85.1857 C10.4371,87.9467 8.1981,90.1857 5.4371,90.1857" id="Fill-28" fill="#F6F6F6"></path>
                    <path d="M6.437,89.1856 C4.783,89.1856 3.437,87.8396 3.437,86.1856 L3.437,6.1826 C3.437,4.5286 4.783,3.1826 6.437,3.1826 C8.091,3.1826 9.437,4.5286 9.437,6.1826 L9.437,86.1856 C9.437,87.8396 8.091,89.1856 6.437,89.1856" id="Fill-30" fill="#C2E9F9"></path>
                    <path d="M5.4371,90.1857 L5.4371,90.1857 C2.6761,90.1857 0.4371,87.9467 0.4371,85.1857 L0.4371,5.1827 C0.4371,2.4217 2.6761,0.1827 5.4371,0.1827 L5.4371,0.1827 C8.1981,0.1827 10.4371,2.4217 10.4371,5.1827 L10.4371,85.1857 C10.4371,87.9467 8.1981,90.1857 5.4371,90.1857 L5.4371,90.1857 Z" id="Stroke-32" stroke="#545E65" stroke-width="2"></path>
                </g>
                <g id="line" transform="translate(93.000000, 107.000000)">
                    <path d="M5.4371,40.1887 L5.4371,40.1887 C2.6761,40.1887 0.4371,37.9497 0.4371,35.1887 L0.4371,5.1907 C0.4371,2.4297 2.6761,0.1907 5.4371,0.1907 L5.4371,0.1907 C8.1981,0.1907 10.4371,2.4297 10.4371,5.1907 L10.4371,35.1887 C10.4371,37.9497 8.1981,40.1887 5.4371,40.1887" id="Fill-34" fill="#F6F6F6"></path>
                    <path d="M6.437,39.1886 C4.783,39.1886 3.437,37.8426 3.437,36.1886 L3.437,6.1906 C3.437,4.5366 4.783,3.1906 6.437,3.1906 C8.091,3.1906 9.437,4.5366 9.437,6.1906 L9.437,36.1886 C9.437,37.8426 8.091,39.1886 6.437,39.1886" id="Fill-36" fill="#FF5C47"></path>
                    <path d="M5.4371,40.1887 L5.4371,40.1887 C2.6761,40.1887 0.4371,37.9497 0.4371,35.1887 L0.4371,5.1907 C0.4371,2.4297 2.6761,0.1907 5.4371,0.1907 L5.4371,0.1907 C8.1981,0.1907 10.4371,2.4297 10.4371,5.1907 L10.4371,35.1887 C10.4371,37.9497 8.1981,40.1887 5.4371,40.1887 L5.4371,40.1887 Z" id="Stroke-38" stroke="#545E65" stroke-width="2"></path>
                </g>
                <g id="sparkle" transform="translate(77.000000, 53.000000)">
                    <path d="M22.4324,28.1888 C19.1234,28.1888 16.4324,25.4978 16.4324,22.1888 C16.4324,18.8798 19.1234,16.1888 22.4324,16.1888 C25.7414,16.1888 28.4324,18.8798 28.4324,22.1888 C28.4324,25.4978 25.7414,28.1888 22.4324,28.1888" id="Fill-40" fill="#C2E9F9"></path>
                    <path d="M29.4323,21.1887 C29.4323,25.6067 25.8503,29.1887 21.4323,29.1887 C17.0143,29.1887 13.4323,25.6067 13.4323,21.1887 C13.4323,16.7707 17.0143,13.1887 21.4323,13.1887 C25.8503,13.1887 29.4323,16.7707 29.4323,21.1887 L29.4323,21.1887 Z" id="Stroke-42" stroke="#545E65" stroke-width="2"></path>
                    <path d="M21.4323,4.1878 L21.4323,0.1878" id="Stroke-44" stroke="#545E65"></path>
                    <path d="M21.4323,42.1896 L21.4323,38.1896" id="Stroke-46" stroke="#545E65"></path>
                    <path d="M38.4332,21.1887 L42.4332,21.1887" id="Stroke-48" stroke="#545E65"></path>
                    <path d="M0.4314,21.1887 L4.4314,21.1887" id="Stroke-50" stroke="#545E65"></path>
                    <path d="M12.9468,12.7031 L10.1188,9.8751" id="Stroke-52" stroke="#545E65"></path>
                    <path d="M32.7463,32.5027 L29.9183,29.6747" id="Stroke-54" stroke="#545E65"></path>
                    <path d="M29.9179,12.7031 L32.7459,9.8751" id="Stroke-56" stroke="#545E65"></path>
                    <path d="M10.1183,32.5027 L12.9463,29.6747" id="Stroke-58" stroke="#545E65"></path>
                </g>
                <g id="sparkle" transform="translate(127.000000, 12.000000)" stroke="#545E65">
                    <path d="M11.4363,5.1838 L11.4363,1.1838" id="Stroke-60"></path>
                    <path d="M11.4363,23.1836 L11.4363,19.1836" id="Stroke-62"></path>
                    <path d="M18.4362,12.1837 L22.4362,12.1837" id="Stroke-64"></path>
                    <path d="M0.4364,12.1837 L4.4364,12.1837" id="Stroke-66"></path>
                    <path d="M2.9508,3.6981 L0.1228,0.8701" id="Stroke-68"></path>
                    <path d="M22.7503,23.4977 L19.9223,20.6697" id="Stroke-70"></path>
                    <path d="M19.9219,3.6981 L22.7499,0.8701" id="Stroke-72"></path>
                    <path d="M0.1223,23.4977 L2.9503,20.6697" id="Stroke-74"></path>
                </g>
                <g id="sparkle" transform="translate(9.000000, 23.000000)">
                    <path d="M22.4256,28.1858 C19.1166,28.1858 16.4256,25.4948 16.4256,22.1858 C16.4256,18.8768 19.1166,16.1858 22.4256,16.1858 C25.7346,16.1858 28.4256,18.8768 28.4256,22.1858 C28.4256,25.4948 25.7346,28.1858 22.4256,28.1858" id="Fill-76" fill="#FCF9DE"></path>
                    <path d="M29.4255,21.1857 C29.4255,25.6037 25.8435,29.1857 21.4255,29.1857 C17.0075,29.1857 13.4255,25.6037 13.4255,21.1857 C13.4255,16.7677 17.0075,13.1857 21.4255,13.1857 C25.8435,13.1857 29.4255,16.7677 29.4255,21.1857 L29.4255,21.1857 Z" id="Stroke-78" stroke="#545E65" stroke-width="2"></path>
                    <path d="M21.4255,4.1848 L21.4255,0.1848" id="Stroke-80" stroke="#545E65"></path>
                    <path d="M21.4255,42.1866 L21.4255,38.1866" id="Stroke-82" stroke="#545E65"></path>
                    <path d="M38.4264,21.1857 L42.4264,21.1857" id="Stroke-84" stroke="#545E65"></path>
                    <path d="M0.4246,21.1857 L4.4246,21.1857" id="Stroke-86" stroke="#545E65"></path>
                    <path d="M12.94,12.7001 L10.112,9.8721" id="Stroke-88" stroke="#545E65"></path>
                    <path d="M32.7395,32.4996 L29.9115,29.6716" id="Stroke-90" stroke="#545E65"></path>
                    <path d="M29.9111,12.7001 L32.7391,9.8721" id="Stroke-92" stroke="#545E65"></path>
                    <path d="M10.1115,32.4996 L12.9395,29.6716" id="Stroke-94" stroke="#545E65"></path>
                </g>
            </g>
        </g>
    </g>
</svg>