<?xml version="1.0" encoding="UTF-8"?>
<svg width="59px" height="24px" viewBox="0 0 59 24" version="1.1" xmlns="http://www.w3.org/2000/svg" xmlns:xlink="http://www.w3.org/1999/xlink">
    <!-- Generator: Sketch 47.1 (45422) - http://www.bohemiancoding.com/sketch -->
    <title>Combined Shape</title>
    <desc>Created with Sketch.</desc>
    <defs></defs>
    <g id="Logo" stroke="none" stroke-width="1" fill="none" fill-rule="evenodd">
        <g id="Artboard" transform="translate(-265.000000, -277.000000)" fill="#737B84">
            <g id="Group-2" transform="translate(265.000000, 277.000000)">
                <path d="M18.0269677,0 L18.0269677,0 L18.2027345,0 C19.9396639,-3.19068756e-16 21.4780903,1.12094316 22.0103202,2.77432004 L25.6038476,13.9376447 L29.1008561,2.80159579 C29.6244054,1.13437946 31.1696265,3.8953441e-16 32.9171144,0 L32.9952793,0 C33.2201783,4.13132813e-17 33.4437635,0.0342805214 33.6583317,0.101660507 C34.8244573,0.467854233 35.4729302,1.71004449 35.1067365,2.8761701 L29.3530792,21.1984042 C28.9163687,22.5890869 27.7687989,23.6090321 26.3859317,23.90912 C26.1803471,23.9693694 25.9671155,24 25.7526819,24 L25.5769151,24 C25.5702301,24 25.563548,23.9999834 25.556869,23.9999502 C25.5501893,23.9999834 25.5435065,24 25.5368209,24 L25.458656,24 C25.3452834,24 25.2322447,23.9912886 25.1205266,23.9740171 C23.5753041,23.7972127 22.254409,22.7325842 21.7693294,21.22568 L18.0269677,9.6 L14.2846059,21.22568 C13.752376,22.8790568 12.2139496,24 10.4770202,24 L10.3012534,24 C10.2162362,24 10.131408,23.9951851 10.0471704,23.9856185 C9.96366152,23.9951854 9.87956267,24 9.79527929,24 L9.71711444,24 C7.9696265,24 6.42440537,22.8656205 5.90085614,21.1984042 L0.147198814,2.8761701 C-0.218994912,1.71004449 0.429478008,0.467854233 1.59560362,0.101660507 C1.81017182,0.0342805214 2.03375699,4.13132813e-17 2.25865602,0 L2.33682087,0 C4.0843088,-3.21008325e-16 5.62952993,1.13437946 6.15307916,2.80159579 L10.045132,15.1956434 L14.0436151,2.77432004 C14.575845,1.12094316 16.1142714,-3.19068756e-16 17.8512008,0 L18.0269677,0 L18.0269677,0 Z M48.4269677,8.86219999 L44.5530792,21.1984042 C44.0295299,22.8656205 42.4843088,24 40.7368209,24 L40.658656,24 C40.6480901,24 40.637527,23.9999243 40.6269677,23.9997731 C40.6164083,23.9999243 40.6058452,24 40.5952793,24 L40.5171144,24 C38.7696265,24 37.2244054,22.8656205 36.7008561,21.1984042 L34.1104771,12.9494717 L37.2150377,3.63578976 L40.6269677,14.50091 L44.3008561,2.80159579 C44.8244054,1.13437946 46.3696265,1.81061988e-15 48.1171144,0 L48.1952793,0 C48.2727698,1.42347682e-17 48.3501042,0.00406976034 48.4269677,0.0121609692 C48.5038311,0.00406976034 48.5811655,1.42347682e-17 48.658656,0 L48.7368209,0 C50.4843088,3.8953441e-16 52.0295299,1.13437946 52.5530792,2.80159579 L58.3067365,21.1238299 C58.6729302,22.2899555 58.0244573,23.5321458 56.8583317,23.8983395 C56.6437635,23.9657195 56.4201783,24 56.1952793,24 L56.1171144,24 C54.3696265,24 52.8244054,22.8656205 52.3008561,21.1984042 L48.4269677,8.86219999 Z" id="Combined-Shape"></path>
            </g>
        </g>
    </g>
</svg>