<?xml version="1.0" encoding="UTF-8"?>
<svg width="108px" height="48px" viewBox="0 0 108 48" version="1.1" xmlns="http://www.w3.org/2000/svg" xmlns:xlink="http://www.w3.org/1999/xlink">
    <!-- Generator: Sketch 47.1 (45422) - http://www.bohemiancoding.com/sketch -->
    <title>Artboard</title>
    <desc>Created with Sketch.</desc>
    <defs></defs>
    <g id="Inner-Pages---Case-Study" stroke="none" stroke-width="1" fill="none" fill-rule="evenodd">
        <g id="Artboard" fill="#FFFFFF">
            <path d="M22.84,30.84 C22.84,24 16.4,23.56 13.8,23.56 C14.6,23.56 20.96,22.6 20.96,16.64 C20.96,10 16.32,9.84 11.12,9.84 L11.12,10.56 C13,10.68 15.4,11.52 15.4,16.56 C15.4,21.68 13.12,23.04 11.12,23.32 L11.12,24.08 C13.72,24.2 16.96,25 16.96,30.64 C16.96,36.8 14.24,37.28 11.12,37.32 L11.12,38 C17.6,37.96 22.84,37.52 22.84,30.84 Z M0.48,10.16 C2.24,10.16 2.8,12.88 2.8,15.36 L2.8,32.52 C2.8,35.24 2.2,37.64 0.48,37.64 L0.48,38 L8.64,38 L8.64,9.84 L0.48,9.84 L0.48,10.16 Z M36.28,34.96 C33.6,34.36 31.6,32.32 31.28,28.4 L44,28.4 C44,22.44 41.48,19.44 36.16,19.2 L36.16,19.88 C37.92,20.56 39.12,23.44 39.12,27.72 L31.28,27.72 C31.28,24.32 32.56,20.64 34.52,19.88 L34.52,19.24 C29.52,19.64 26.12,23.56 26.12,28.84 C26.12,33.52 29.72,38.36 34.96,38.36 C40.32,38.36 42.68,35.2 43.32,33.12 L42.64,32.76 C41.64,34.64 38.44,35.44 36.28,34.96 Z M53.04,33.2 C53.04,35.4 53.28,36.92 54.68,37.32 L54.68,38 L46.48,38 L46.48,37.32 C48,36.88 48.04,35.24 48.04,33.2 L48.04,24.16 C48.04,22.76 47.68,22.32 46.04,21.44 L46.04,20.76 L53.04,19.16 L53.04,33.2 Z M64.68,33.12 C64.68,35.32 64.88,36.96 66.32,37.32 L66.32,38 L58.08,38 L58.08,37.32 C59.6,36.88 59.68,35.16 59.68,33.12 L59.68,25.36 C59.68,23.44 58.44,22.04 56.44,22.04 C55.92,22.04 55.36,22.24 54.84,22.52 L54.36,21.72 C55.76,20.28 57.8,19.16 59.64,19.16 C62.76,19.16 64.68,20.4 64.68,25.24 L64.68,33.12 Z M81.48,20.68 C81.76,20.56 81.24,20.12 80.2,19.92 L80.2,19.2 C82.52,19.4 83.96,20.4 84.6,20.92 C85.28,21.52 85.68,22.64 85.4,23.6 C85,25 83.56,25.92 82.12,25.52 C80.68,25.16 79.84,23.68 80.24,22.28 C80.4,21.52 80.88,21 81.48,20.68 Z M85.2,32.84 L85.76,33.2 C85.2,35.24 82.8,38.36 77.8,38.36 C72.56,38.36 69,33.36 69,28.68 C69,24.28 72.24,19.6 78.52,19.2 L78.52,19.96 C76.8,20.36 74.04,22.16 74.04,27.96 C74.04,32.28 76.36,34.2 79.12,34.8 C81.12,35.24 84.28,34.16 85.2,32.84 Z M94.12,33.08 C94.12,35.28 94.32,36.92 95.76,37.28 L95.76,38 L87.52,38 L87.52,37.28 C89.04,36.84 89.12,35.12 89.12,33.08 L89.12,12.92 C89.12,11.52 88.72,11.12 87.12,10.52 L87.12,9.84 L94.12,8.16 L94.12,33.08 Z M105.76,33.08 C105.76,35.28 106,36.96 107.4,37.32 L107.4,38 L99.2,38 L99.2,37.32 C100.72,36.88 100.8,35.12 100.8,33.08 L100.8,25.52 C100.8,23.24 99.76,22.16 97.44,22.16 C96.8,22.16 96.08,22.44 95.44,22.96 L94.92,22.12 C96.28,20.52 98.76,19.16 100.72,19.16 C103.92,19.16 105.76,20.56 105.76,25.36 L105.76,33.08 Z" id="Bench"></path>
        </g>
    </g>
</svg>