<?xml version="1.0" encoding="UTF-8"?>
<svg width="59px" height="24px" viewBox="0 0 59 24" version="1.1" xmlns="http://www.w3.org/2000/svg" xmlns:xlink="http://www.w3.org/1999/xlink">
    <!-- Generator: Sketch 47.1 (45422) - http://www.bohemiancoding.com/sketch -->
    <title>Combined Shape</title>
    <desc>Created with Sketch.</desc>
    <defs>
        <linearGradient x1="100%" y1="50%" x2="0%" y2="50%" id="linearGradient-1">
            <stop stop-color="#667EEA" offset="0%"></stop>
            <stop stop-color="#764BA2" offset="100%"></stop>
        </linearGradient>
    </defs>
    <g id="Logo" stroke="none" stroke-width="1" fill="none" fill-rule="evenodd">
        <g id="Artboard" transform="translate(-265.000000, -277.000000)" fill="url(#linearGradient-1)">
            <g id="Group-2" transform="translate(231.000000, 245.000000)">
                <path d="M52.0269677,32 L52.0269677,32 L52.2027345,32 C53.9396639,32 55.4780903,33.1209432 56.0103202,34.77432 L59.6038476,45.9376447 L63.1008561,34.8015958 C63.6244054,33.1343795 65.1696265,32 66.9171144,32 L66.9952793,32 C67.2201783,32 67.4437635,32.0342805 67.6583317,32.1016605 C68.8244573,32.4678542 69.4729302,33.7100445 69.1067365,34.8761701 L63.3530792,53.1984042 C62.9163687,54.5890869 61.7687989,55.6090321 60.3859317,55.90912 C60.1803471,55.9693694 59.9671155,56 59.7526819,56 L59.5769151,56 C59.5702301,56 59.563548,55.9999834 59.556869,55.9999502 C59.5501893,55.9999834 59.5435065,56 59.5368209,56 L59.458656,56 C59.3452834,56 59.2322447,55.9912886 59.1205266,55.9740171 C57.5753041,55.7972127 56.254409,54.7325842 55.7693294,53.22568 L52.0269677,41.6 L48.2846059,53.22568 C47.752376,54.8790568 46.2139496,56 44.4770202,56 L44.3012534,56 C44.2162362,56 44.131408,55.9951851 44.0471704,55.9856185 C43.9636615,55.9951854 43.8795627,56 43.7952793,56 L43.7171144,56 C41.9696265,56 40.4244054,54.8656205 39.9008561,53.1984042 L34.1471988,34.8761701 C33.7810051,33.7100445 34.429478,32.4678542 35.5956036,32.1016605 C35.8101718,32.0342805 36.033757,32 36.258656,32 L36.3368209,32 C38.0843088,32 39.6295299,33.1343795 40.1530792,34.8015958 L44.045132,47.1956434 L48.0436151,34.77432 C48.575845,33.1209432 50.1142714,32 51.8512008,32 L52.0269677,32 Z M82.4269677,40.8622 L78.5530792,53.1984042 C78.0295299,54.8656205 76.4843088,56 74.7368209,56 L74.658656,56 C74.6480901,56 74.637527,55.9999243 74.6269677,55.9997731 C74.6164083,55.9999243 74.6058452,56 74.5952793,56 L74.5171144,56 C72.7696265,56 71.2244054,54.8656205 70.7008561,53.1984042 L68.1104771,44.9494717 L71.2150377,35.6357898 L74.6269677,46.50091 L78.3008561,34.8015958 C78.8244054,33.1343795 80.3696265,32 82.1171144,32 L82.1952793,32 C82.2727698,32 82.3501042,32.0040698 82.4269677,32.012161 C82.5038311,32.0040698 82.5811655,32 82.658656,32 L82.7368209,32 C84.4843088,32 86.0295299,33.1343795 86.5530792,34.8015958 L92.3067365,53.1238299 C92.6729302,54.2899555 92.0244573,55.5321458 90.8583317,55.8983395 C90.6437635,55.9657195 90.4201783,56 90.1952793,56 L90.1171144,56 C88.3696265,56 86.8244054,54.8656205 86.3008561,53.1984042 L82.4269677,40.8622 Z" id="Combined-Shape"></path>
            </g>
        </g>
    </g>
</svg>