<?xml version="1.0" encoding="UTF-8"?>
<svg width="145px" height="48px" viewBox="0 0 145 48" version="1.1" xmlns="http://www.w3.org/2000/svg" xmlns:xlink="http://www.w3.org/1999/xlink">
    <!-- Generator: Sketch 47.1 (45422) - http://www.bohemiancoding.com/sketch -->
    <title>Group 5</title>
    <desc>Created with Sketch.</desc>
    <defs></defs>
    <g id="Inner-Pages---Case-Study" stroke="none" stroke-width="1" fill="none" fill-rule="evenodd">
        <g id="Case-Study" transform="translate(-198.000000, -552.000000)">
            <g id="Case-Studies" transform="translate(150.000000, 504.000000)">
                <g id="Group-2">
                    <g id="Group-5" transform="translate(48.000000, 48.000000)">
                        <g id="Group-7">
                            <rect id="Rectangle-4" fill="#DC3545" x="0" y="0" width="48" height="48" rx="8"></rect>
                            <g id="Group-4" transform="translate(13.000000, 9.000000)" fill="#FFFFFF">
                                <rect id="Rectangle-5" x="1" y="0" width="6" height="25" rx="3"></rect>
                                <rect id="Rectangle-5" x="15" y="4" width="6" height="25" rx="3"></rect>
                                <rect id="Rectangle-5" transform="translate(11.000000, 14.500000) rotate(41.000000) translate(-11.000000, -14.500000) " x="8" y="2" width="6" height="25" rx="3"></rect>
                            </g>
                        </g>
                        <path d="M60.609,32 C60.4689993,32 60.3500005,31.9510005 60.252,31.853 C60.1539995,31.7549995 60.105,31.6360007 60.105,31.496 L60.105,17.825 C60.105,17.6709992 60.1504995,17.5450005 60.2415,17.447 C60.3325005,17.3489995 60.4549992,17.3 60.609,17.3 L66.237,17.3 C67.9310085,17.3 69.2609952,17.698996 70.227,18.497 C71.1930048,19.295004 71.676,20.4569924 71.676,21.983 C71.676,23.4950076 71.1930048,24.6394961 70.227,25.4165 C69.2609952,26.1935039 67.9310085,26.582 66.237,26.582 L63.15,26.582 L63.15,31.496 C63.15,31.6500008 63.1010005,31.7724995 63.003,31.8635 C62.9049995,31.9545005 62.7790008,32 62.625,32 L60.609,32 Z M66.132,24.23 C66.9440041,24.23 67.5634979,24.0375019 67.9905,23.6525 C68.4175021,23.2674981 68.631,22.7040037 68.631,21.962 C68.631,21.2339964 68.4245021,20.667002 68.0115,20.261 C67.5984979,19.854998 66.9720042,19.652 66.132,19.652 L63.108,19.652 L63.108,24.23 L66.132,24.23 Z M74.469,32 C74.3289993,32 74.2100005,31.9510005 74.112,31.853 C74.0139995,31.7549995 73.965,31.6360007 73.965,31.496 L73.965,17.804 C73.965,17.6499992 74.0139995,17.5275005 74.112,17.4365 C74.2100005,17.3454995 74.3289993,17.3 74.469,17.3 L76.485,17.3 C76.6390008,17.3 76.7614995,17.3454995 76.8525,17.4365 C76.9435005,17.5275005 76.989,17.6499992 76.989,17.804 L76.989,31.496 C76.989,31.6360007 76.9435005,31.7549995 76.8525,31.853 C76.7614995,31.9510005 76.6390008,32 76.485,32 L74.469,32 Z M84.003,32 C83.8629993,32 83.7440005,31.9510005 83.646,31.853 C83.5479995,31.7549995 83.499,31.6360007 83.499,31.496 L83.499,19.925 L79.614,19.925 C79.4739993,19.925 79.3550005,19.8760005 79.257,19.778 C79.1589995,19.6799995 79.11,19.5540008 79.11,19.4 L79.11,17.825 C79.11,17.6709992 79.1554995,17.5450005 79.2465,17.447 C79.3375005,17.3489995 79.4599992,17.3 79.614,17.3 L90.345,17.3 C90.4990008,17.3 90.6249995,17.3489995 90.723,17.447 C90.8210005,17.5450005 90.87,17.6709992 90.87,17.825 L90.87,19.4 C90.87,19.5540008 90.8210005,19.6799995 90.723,19.778 C90.6249995,19.8760005 90.4990008,19.925 90.345,19.925 L86.481,19.925 L86.481,31.496 C86.481,31.6360007 86.4355005,31.7549995 86.3445,31.853 C86.2534995,31.9510005 86.1310008,32 85.977,32 L84.003,32 Z M98.052,32.21 C96.7919937,32.21 95.7140045,32.0210019 94.818,31.643 C93.9219955,31.2649981 93.2430023,30.7680031 92.781,30.152 C92.3189977,29.5359969 92.0740001,28.8640036 92.046,28.136 C92.046,28.0239994 92.0879996,27.9225005 92.172,27.8315 C92.2560004,27.7404995 92.3609994,27.695 92.487,27.695 L94.398,27.695 C94.5520008,27.695 94.6779995,27.7299996 94.776,27.8 C94.8740005,27.8700003 94.9649996,27.9679994 95.049,28.094 C95.1890007,28.5700024 95.5074975,28.9689984 96.0045,29.291 C96.5015025,29.6130016 97.1839957,29.774 98.052,29.774 C99.0320049,29.774 99.7704975,29.6095016 100.2675,29.2805 C100.764502,28.9514984 101.013,28.5000029 101.013,27.926 C101.013,27.5479981 100.887001,27.2330013 100.635,26.981 C100.382999,26.7289987 100.001503,26.5085009 99.4905,26.3195 C98.9794974,26.1304991 98.220005,25.9030013 97.212,25.637 C95.5599917,25.244998 94.3490039,24.7270032 93.579,24.083 C92.8089962,23.4389968 92.424,22.515006 92.424,21.311 C92.424,20.4989959 92.6479978,19.7745032 93.096,19.1375 C93.5440022,18.5004968 94.1844958,18.0000018 95.0175,17.636 C95.8505042,17.2719982 96.8199945,17.09 97.926,17.09 C99.0880058,17.09 100.092496,17.292998 100.9395,17.699 C101.786504,18.105002 102.430498,18.612497 102.8715,19.2215 C103.312502,19.830503 103.547,20.435997 103.575,21.038 C103.575,21.1500006 103.533,21.2514995 103.449,21.3425 C103.365,21.4335005 103.260001,21.479 103.134,21.479 L101.139,21.479 C100.830998,21.479 100.621001,21.3530013 100.509,21.101 C100.439,20.6529978 100.166002,20.2785015 99.69,19.9775 C99.2139976,19.6764985 98.6260035,19.526 97.926,19.526 C97.1559962,19.526 96.5505022,19.6729985 96.1095,19.967 C95.6684978,20.2610015 95.448,20.6879972 95.448,21.248 C95.448,21.6260019 95.5599989,21.9409987 95.784,22.193 C96.0080011,22.4450013 96.3579976,22.6654991 96.834,22.8545 C97.3100024,23.0435009 98.0029955,23.2569988 98.913,23.495 C100.159006,23.7750014 101.149496,24.0899983 101.8845,24.44 C102.619504,24.7900018 103.161998,25.2309973 103.512,25.763 C103.862002,26.2950027 104.037,26.9739959 104.037,27.8 C104.037,28.7100046 103.788502,29.4974967 103.2915,30.1625 C102.794498,30.8275033 102.094505,31.3349982 101.1915,31.685 C100.288495,32.0350017 99.242006,32.21 98.052,32.21 Z M110.001,32 C109.860999,32 109.742,31.9510005 109.644,31.853 C109.546,31.7549995 109.497,31.6360007 109.497,31.496 L109.497,19.925 L105.612,19.925 C105.471999,19.925 105.353,19.8760005 105.255,19.778 C105.157,19.6799995 105.108,19.5540008 105.108,19.4 L105.108,17.825 C105.108,17.6709992 105.1535,17.5450005 105.2445,17.447 C105.3355,17.3489995 105.457999,17.3 105.612,17.3 L116.343,17.3 C116.497001,17.3 116.623,17.3489995 116.721,17.447 C116.819,17.5450005 116.868,17.6709992 116.868,17.825 L116.868,19.4 C116.868,19.5540008 116.819,19.6799995 116.721,19.778 C116.623,19.8760005 116.497001,19.925 116.343,19.925 L112.479,19.925 L112.479,31.496 C112.479,31.6360007 112.4335,31.7549995 112.3425,31.853 C112.2515,31.9510005 112.129001,32 111.975,32 L110.001,32 Z M124.386,32.21 C122.46799,32.21 120.977005,31.7270048 119.913,30.761 C118.848995,29.7949952 118.289,28.3600095 118.233,26.456 C118.219,26.049998 118.212,25.4550039 118.212,24.671 C118.212,23.872996 118.219,23.271002 118.233,22.865 C118.289,21.0029907 118.862995,19.575005 119.955,18.581 C121.047005,17.586995 122.523991,17.09 124.386,17.09 C126.234009,17.09 127.707495,17.586995 128.8065,18.581 C129.905505,19.575005 130.483,21.0029907 130.539,22.865 C130.567,23.6770041 130.581,24.278998 130.581,24.671 C130.581,25.0490019 130.567,25.6439959 130.539,26.456 C130.483,28.3600095 129.919505,29.7949952 128.8485,30.761 C127.777495,31.7270048 126.29001,32.21 124.386,32.21 Z M124.386,29.774 C125.324005,29.774 126.065997,29.4940028 126.612,28.934 C127.158003,28.3739972 127.452,27.5130058 127.494,26.351 C127.522,25.5109958 127.536,24.9440015 127.536,24.65 C127.536,24.3279984 127.522,23.7610041 127.494,22.949 C127.452,21.8009943 127.151003,20.9435028 126.591,20.3765 C126.030997,19.8094972 125.296005,19.526 124.386,19.526 C123.461995,19.526 122.720003,19.8094972 122.16,20.3765 C121.599997,20.9435028 121.306,21.8009943 121.278,22.949 C121.264,23.355002 121.257,23.9219964 121.257,24.65 C121.257,25.3640036 121.264,25.9309979 121.278,26.351 C121.306,27.4990057 121.596497,28.3564972 122.1495,28.9235 C122.702503,29.4905028 123.447995,29.774 124.386,29.774 Z M133.815,32 C133.674999,32 133.556,31.9510005 133.458,31.853 C133.36,31.7549995 133.311,31.6360007 133.311,31.496 L133.311,17.825 C133.311,17.6709992 133.3565,17.5450005 133.4475,17.447 C133.5385,17.3489995 133.660999,17.3 133.815,17.3 L139.443,17.3 C141.137008,17.3 142.466995,17.698996 143.433,18.497 C144.399005,19.295004 144.882,20.4569924 144.882,21.983 C144.882,23.4950076 144.399005,24.6394961 143.433,25.4165 C142.466995,26.1935039 141.137008,26.582 139.443,26.582 L136.356,26.582 L136.356,31.496 C136.356,31.6500008 136.307,31.7724995 136.209,31.8635 C136.111,31.9545005 135.985001,32 135.831,32 L133.815,32 Z M139.338,24.23 C140.150004,24.23 140.769498,24.0375019 141.1965,23.6525 C141.623502,23.2674981 141.837,22.7040037 141.837,21.962 C141.837,21.2339964 141.630502,20.667002 141.2175,20.261 C140.804498,19.854998 140.178004,19.652 139.338,19.652 L136.314,19.652 L136.314,24.23 L139.338,24.23 Z" id="PITSTOP" fill="#DC3545"></path>
                    </g>
                </g>
            </g>
        </g>
    </g>
</svg>