<?xml version="1.0" encoding="UTF-8"?>
<svg width="44px" height="18px" viewBox="0 0 44 18" version="1.1" xmlns="http://www.w3.org/2000/svg" xmlns:xlink="http://www.w3.org/1999/xlink">
    <!-- Generator: Sketch 47.1 (45422) - http://www.bohemiancoding.com/sketch -->
    <title>Group 2</title>
    <desc>Created with Sketch.</desc>
    <defs></defs>
    <g id="App-Pages" stroke="none" stroke-width="1" fill="none" fill-rule="evenodd">
        <g id="Artboard" transform="translate(-161.000000, -206.000000)" fill="#FFFFFF">
            <g id="Group-2" transform="translate(161.000000, 206.000000)">
                <path d="M13.5,0 L13.5,0 L13.6318252,0 C14.9345222,-2.39301567e-16 16.088342,0.840707371 16.4875144,2.08074003 L19.1826599,10.4532336 L21.8054164,2.10119684 C22.1980783,0.850784597 23.3569941,2.92150808e-16 24.6676101,0 L24.7262337,0 C24.894908,3.0984961e-17 25.0625969,0.0257103911 25.223523,0.0762453804 C26.0981172,0.350890675 26.5844719,1.28253337 26.3098266,2.15712758 L21.9945836,15.8988032 C21.6670508,16.9418152 20.8063734,17.7067741 19.769223,17.93184 C19.6150346,17.9770271 19.4551109,18 19.2942857,18 L19.1624606,18 C19.1574468,18 19.1524353,17.9999875 19.147426,17.9999627 C19.1424162,17.9999875 19.1374042,18 19.1323899,18 L19.0737663,18 C18.9887368,18 18.9039578,17.9934664 18.8201692,17.9805128 C17.6612523,17.8479095 16.670581,17.0494381 16.3067713,15.91926 L13.5,7.2 L10.6932287,15.91926 C10.2940563,17.1592926 9.1402365,18 7.83753944,18 L7.70571429,18 C7.64195142,18 7.57833027,17.9963889 7.51515207,17.9892139 C7.4525204,17.9963891 7.38944626,18 7.32623373,18 L7.26761009,18 C5.95699414,18 4.79807829,17.1492154 4.40541637,15.8988032 L0.090173372,2.15712758 C-0.184471923,1.28253337 0.301882768,0.350890675 1.17647698,0.0762453804 C1.33740312,0.0257103911 1.505092,3.0984961e-17 1.67376627,0 L1.73238991,0 C3.04300586,-2.40756244e-16 4.20192171,0.850784597 4.59458363,2.10119684 L7.51362324,11.3967325 L10.5124856,2.08074003 C10.911658,0.840707371 12.0654778,-2.39301567e-16 13.3681748,0 L13.5,0 L13.5,0 Z M36.3,6.64664999 L33.3945836,15.8988032 C33.0019217,17.1492154 31.8430059,18 30.5323899,18 L30.4737663,18 C30.4658418,18 30.4579195,17.9999433 30.45,17.9998298 C30.4420805,17.9999433 30.4341582,18 30.4262337,18 L30.3676101,18 C29.0569941,18 27.8980783,17.1492154 27.5054164,15.8988032 L25.5626321,9.71210374 L27.8910526,2.72684232 L30.45,10.8756825 L33.2054164,2.10119684 C33.5980783,0.850784597 34.7569941,1.35796491e-15 36.0676101,0 L36.1262337,0 C36.1843516,1.06760761e-17 36.2423524,0.00305232025 36.3,0.00912072692 C36.3576476,0.00305232026 36.4156484,1.06760761e-17 36.4737663,0 L36.5323899,0 C37.8430059,2.92150808e-16 39.0019217,0.850784597 39.3945836,2.10119684 L43.7098266,15.8428724 C43.9844719,16.7174666 43.4981172,17.6491093 42.623523,17.9237546 C42.4625969,17.9742896 42.294908,18 42.1262337,18 L42.0676101,18 C40.7569941,18 39.5980783,17.1492154 39.2054164,15.8988032 L36.3,6.64664999 Z" id="Combined-Shape"></path>
            </g>
        </g>
    </g>
</svg>