<?xml version="1.0" encoding="UTF-8"?>
<svg width="147px" height="40px" viewBox="0 0 147 40" version="1.1" xmlns="http://www.w3.org/2000/svg" xmlns:xlink="http://www.w3.org/1999/xlink">
    <!-- Generator: Sketch 47.1 (45422) - http://www.bohemiancoding.com/sketch -->
    <title>Group 3</title>
    <desc>Created with Sketch.</desc>
    <defs></defs>
    <g id="Inner-Pages---Case-Study" stroke="none" stroke-width="1" fill="none" fill-rule="evenodd">
        <g id="Case-Study" transform="translate(-197.000000, -1564.000000)" fill="#FD7E14">
            <g id="Case-Studies" transform="translate(150.000000, 504.000000)">
                <g id="Group-2" transform="translate(0.000000, 1008.000000)">
                    <g id="Group-3" transform="translate(47.000000, 52.000000)">
                        <path d="M74.576,12.08 L77.48,12.08 L77.48,29 L74.192,29 L74.192,18.968 L70.304,26.216 L67.904,26.216 L64.016,19.064 L64.016,29 L60.728,29 L60.728,12.08 L63.68,12.08 L69.128,22.424 L74.576,12.08 Z M86.264,29.192 C85.0159938,29.192 83.9200047,28.9400025 82.976,28.436 C82.0319953,27.9319975 81.3040026,27.2200046 80.792,26.3 C80.2799974,25.3799954 80.024,24.2960062 80.024,23.048 C80.024,21.7999938 80.2799974,20.7160046 80.792,19.796 C81.3040026,18.8759954 82.0319953,18.1680025 82.976,17.672 C83.9200047,17.1759975 85.0159938,16.928 86.264,16.928 C87.5120062,16.928 88.6079953,17.1759975 89.552,17.672 C90.4960047,18.1680025 91.2239974,18.8759954 91.736,19.796 C92.2480026,20.7160046 92.504,21.7999938 92.504,23.048 C92.504,24.2960062 92.2480026,25.3799954 91.736,26.3 C91.2239974,27.2200046 90.4960047,27.9319975 89.552,28.436 C88.6079953,28.9400025 87.5120062,29.192 86.264,29.192 Z M86.264,26.432 C88.0240088,26.432 88.904,25.3040113 88.904,23.048 C88.904,21.9119943 88.6760023,21.0640028 88.22,20.504 C87.7639977,19.9439972 87.1120042,19.664 86.264,19.664 C84.5039912,19.664 83.624,20.7919887 83.624,23.048 C83.624,25.3040113 84.5039912,26.432 86.264,26.432 Z M102.632,17.24 L106.184,17.24 L101,29 L97.928,29 L92.816,17.24 L96.584,17.24 L99.56,24.728 L102.632,17.24 Z M117.656,23.792 L109.976,23.792 C110.088001,24.7360047 110.395997,25.4199979 110.9,25.844 C111.404003,26.2680021 112.119995,26.48 113.048,26.48 C113.656003,26.48 114.259997,26.380001 114.86,26.18 C115.460003,25.979999 116.007998,25.6960018 116.504,25.328 L117.464,27.752 C116.887997,28.2000022 116.188004,28.5519987 115.364,28.808 C114.539996,29.0640013 113.712004,29.192 112.88,29.192 C110.89599,29.192 109.332006,28.6440055 108.188,27.548 C107.043994,26.4519945 106.472,24.9600094 106.472,23.072 C106.472,21.871994 106.719998,20.8080046 107.216,19.88 C107.712002,18.9519954 108.399996,18.2280026 109.28,17.708 C110.160004,17.1879974 111.159994,16.928 112.28,16.928 C113.928008,16.928 115.235995,17.4639946 116.204,18.536 C117.172005,19.6080054 117.656,21.0639908 117.656,22.904 L117.656,23.792 Z M112.376,19.424 C111.687997,19.424 111.140002,19.6439978 110.732,20.084 C110.323998,20.5240022 110.072,21.1599958 109.976,21.992 L114.608,21.992 C114.56,21.1439958 114.348002,20.5040022 113.972,20.072 C113.595998,19.6399978 113.064003,19.424 112.376,19.424 Z M127.232,16.928 C128.640007,16.928 129.687997,17.3399959 130.376,18.164 C131.064003,18.9880041 131.408,20.2319917 131.408,21.896 L131.408,29 L127.784,29 L127.784,22.064 C127.784,21.263996 127.636001,20.6800018 127.34,20.312 C127.043999,19.9439982 126.584003,19.76 125.96,19.76 C125.207996,19.76 124.604002,19.9999976 124.148,20.48 C123.691998,20.9600024 123.464,21.599996 123.464,22.4 L123.464,29 L119.84,29 L119.84,17.216 L123.368,17.216 L123.368,18.896 C123.784002,18.2559968 124.323997,17.7680017 124.988,17.432 C125.652003,17.0959983 126.399996,16.928 127.232,16.928 Z M146.048,12.08 L146.048,29 L142.448,29 L142.448,27.248 C142.095998,27.856003 141.596003,28.3319983 140.948,28.676 C140.299997,29.0200017 139.568004,29.192 138.752,29.192 C137.743995,29.192 136.844004,28.9320026 136.052,28.412 C135.259996,27.8919974 134.644002,27.1640047 134.204,26.228 C133.763998,25.2919953 133.544,24.2160061 133.544,23 C133.544,21.7839939 133.763998,20.7160046 134.204,19.796 C134.644002,18.8759954 135.255996,18.1680025 136.04,17.672 C136.824004,17.1759975 137.727995,16.928 138.752,16.928 C139.552004,16.928 140.275997,17.0959983 140.924,17.432 C141.572003,17.7680017 142.071998,18.239997 142.424,18.848 L142.424,12.08 L146.048,12.08 Z M139.808,26.432 C140.656004,26.432 141.307998,26.1400029 141.764,25.556 C142.220002,24.9719971 142.448,24.1360054 142.448,23.048 C142.448,21.9599946 142.220002,21.1280029 141.764,20.552 C141.307998,19.9759971 140.656004,19.688 139.808,19.688 C138.959996,19.688 138.304002,19.9719972 137.84,20.54 C137.375998,21.1080028 137.144,21.9279946 137.144,23 C137.144,24.0880054 137.375998,24.931997 137.84,25.532 C138.304002,26.132003 138.959996,26.432 139.808,26.432 Z" id="Movend"></path>
                        <path d="M34.0625,0.78125 L14.9375,0.78125 L13.765625,1.109375 C12.9843711,1.32812609 12.59375,2.03124406 12.59375,3.21875 L36.40625,3.21875 C36.40625,2.03124406 36.0156289,1.32812609 35.234375,1.109375 L34.0625,0.78125 Z M41.1875,8 L41.1875,10.4375 L7.8125,10.4375 L7.8125,8 C7.8125,6.81249406 8.20312109,6.10937609 8.984375,5.890625 L10.15625,5.5625 L38.84375,5.5625 L40.015625,5.890625 C40.7968789,6.10937609 41.1875,6.81249406 41.1875,8 Z M45.96875,10.4375 C46.7187537,11.1250034 47.296873,11.7187475 47.703125,12.21875 C48.109377,12.7187525 48.1562516,13.7187425 47.84375,15.21875 C47.7187494,15.9687538 47.4687519,17.4062394 47.09375,19.53125 C46.7187481,21.6562606 46.328127,23.9062381 45.921875,26.28125 C45.515623,28.6562619 45.1406267,30.8593648 44.796875,32.890625 C44.4531233,34.9218852 44.2500003,36.2187472 44.1875,36.78125 C43.9374987,38.0312562 43.3750044,38.7499991 42.5,38.9375 L41.1875,39.21875 L7.8125,39.21875 L6.5,38.9375 C5.62499562,38.7499991 5.06250125,38.0312562 4.8125,36.78125 C4.74999969,36.2187472 4.54687672,34.9218852 4.203125,32.890625 C3.85937328,30.8593648 3.48437703,28.6562619 3.078125,26.28125 C2.67187297,23.9062381 2.28125187,21.6562606 1.90625,19.53125 C1.53124812,17.4062394 1.28125062,15.9687538 1.15625,15.21875 C0.843748437,13.7187425 0.890622969,12.7187525 1.296875,12.21875 C1.70312703,11.7187475 2.28124625,11.1250034 3.03125,10.4375 C3.71875344,9.68749625 4.12499937,9.25000062 4.25,9.125 L4.4375,8.9375 L4.4375,12.78125 L44.5625,12.78125 L44.5625,8.9375 L44.75,9.125 C44.8750006,9.25000062 45.2812466,9.68749625 45.96875,10.4375 Z M34.0625,24.78125 L34.0625,20 L31.71875,20 L31.71875,24.78125 L17.28125,24.78125 L17.28125,20 L14.9375,20 L14.9375,24.78125 C14.9375,25.4687534 15.1718727,26.0468727 15.640625,26.515625 C16.1093773,26.9843773 16.6562469,27.21875 17.28125,27.21875 L31.71875,27.21875 C32.3437531,27.21875 32.8906227,26.9843773 33.359375,26.515625 C33.8281273,26.0468727 34.0625,25.4687534 34.0625,24.78125 Z" id=""></path>
                    </g>
                </g>
            </g>
        </g>
    </g>
</svg>