<?xml version="1.0" encoding="UTF-8"?>
<svg width="48px" height="48px" viewBox="0 0 48 48" version="1.1" xmlns="http://www.w3.org/2000/svg" xmlns:xlink="http://www.w3.org/1999/xlink">
    <!-- Generator: Sketch 47.1 (45422) - http://www.bohemiancoding.com/sketch -->
    <title>Group 2</title>
    <desc>Created with Sketch.</desc>
    <defs></defs>
    <g id="Blog" stroke="none" stroke-width="1" fill="none" fill-rule="evenodd">
        <g id="Blog-Article" transform="translate(-726.000000, -3445.000000)">
            <g id="Article-Share" transform="translate(443.000000, 3409.000000)">
                <g id="Group-4" transform="translate(163.000000, 36.000000)">
                    <g id="Group-2" transform="translate(120.000000, 0.000000)">
                        <circle id="Oval" fill="#0077B5" cx="24" cy="24" r="24"></circle>
                        <path d="M28.8219866,24.2109375 C28.5641728,23.9296861 28.142302,23.7890625 27.5563616,23.7890625 C26.8063579,23.7890625 26.2673008,24.0117165 25.9391741,24.4570312 C25.6344851,24.902346 25.4821429,25.5351521 25.4821429,26.3554688 L25.4821429,32.5078125 C25.4821429,32.6250006 25.4352683,32.7304683 25.3415179,32.8242188 C25.2477674,32.9179692 25.1422997,32.9648438 25.0251116,32.9648438 L21.7907366,32.9648438 C21.7204238,32.9648438 21.6149561,32.9179692 21.4743304,32.8242188 C21.3805799,32.683593 21.3337054,32.5781254 21.3337054,32.5078125 L21.3337054,21.1523438 C21.3337054,21.0820309 21.3805799,20.9765632 21.4743304,20.8359375 C21.6149561,20.742187 21.7204238,20.6953125 21.7907366,20.6953125 L24.9196429,20.6953125 C25.0133933,20.6953125 25.1071424,20.7187498 25.2008929,20.765625 C25.2477681,20.7890626 25.2946426,20.871093 25.3415179,21.0117188 L25.3415179,21.1875 L25.3766741,21.2578125 L25.3766741,21.5390625 C26.1501155,20.7890587 27.2165111,20.4140625 28.5758929,20.4140625 C30.099338,20.4140625 31.2712013,20.7773401 32.0915179,21.5039062 C32.9352721,22.2773476 33.3571429,23.3906177 33.3571429,24.84375 L33.3571429,32.5078125 C33.3571429,32.6250006 33.3102683,32.7304683 33.2165179,32.8242188 C33.1227674,32.9179692 33.0172997,32.9648438 32.9001116,32.9648438 L29.5954241,32.9648438 C29.5251113,32.9648438 29.4196436,32.9179692 29.2790179,32.8242188 C29.1852674,32.683593 29.1383929,32.5781254 29.1383929,32.5078125 L29.1383929,25.5820312 C29.1383929,24.9960908 29.0329252,24.5390641 28.8219866,24.2109375 Z M19.7165179,17.2148438 C19.7165179,17.8242218 19.5055825,18.3398416 19.0837054,18.7617188 C18.6618283,19.1835959 18.1462084,19.3945312 17.5368304,19.3945312 C16.9274523,19.3945312 16.4118325,19.1835959 15.9899554,18.7617188 C15.5680783,18.3398416 15.3571429,17.8242218 15.3571429,17.2148438 C15.3571429,16.6289033 15.5680783,16.1250021 15.9899554,15.703125 C16.4352701,15.2578103 16.9508899,15.0351562 17.5368304,15.0351562 C18.1227708,15.0351562 18.6383906,15.2578103 19.0837054,15.703125 C19.5055825,16.1250021 19.7165179,16.6289033 19.7165179,17.2148438 Z M19.6110491,21.1523438 L19.6110491,32.5078125 C19.6110491,32.5781254 19.5641746,32.683593 19.4704241,32.8242188 C19.3297984,32.9179692 19.2243307,32.9648438 19.1540179,32.9648438 L15.9196429,32.9648438 C15.84933,32.9648438 15.7438623,32.9179692 15.6032366,32.8242188 C15.5094861,32.683593 15.4626116,32.5781254 15.4626116,32.5078125 L15.4626116,21.1523438 C15.4626116,21.0820309 15.5094861,20.9765632 15.6032366,20.8359375 C15.7438623,20.742187 15.84933,20.6953125 15.9196429,20.6953125 L19.1540179,20.6953125 C19.2243307,20.6953125 19.3297984,20.742187 19.4704241,20.8359375 C19.5641746,20.9765632 19.6110491,21.0820309 19.6110491,21.1523438 Z" id="î‰" fill="#FFFFFF"></path>
                    </g>
                </g>
            </g>
        </g>
    </g>
</svg>