<?xml version="1.0" encoding="UTF-8"?>
<svg width="48px" height="48px" viewBox="0 0 48 48" version="1.1" xmlns="http://www.w3.org/2000/svg" xmlns:xlink="http://www.w3.org/1999/xlink">
    <!-- Generator: Sketch 47.1 (45422) - http://www.bohemiancoding.com/sketch -->
    <title>Group 2</title>
    <desc>Created with Sketch.</desc>
    <defs></defs>
    <g id="Blog" stroke="none" stroke-width="1" fill="none" fill-rule="evenodd">
        <g id="Blog-Article" transform="translate(-606.000000, -3445.000000)">
            <g id="Article-Share" transform="translate(443.000000, 3409.000000)">
                <g id="Group-4" transform="translate(163.000000, 36.000000)">
                    <g id="Group-2">
                        <circle id="Oval" fill="#1DA1F2" cx="24" cy="24" r="24"></circle>
                        <path d="M31.5290179,20.34375 L31.5290179,20.8007812 C31.5290179,22.4882897 31.1364437,24.1171796 30.3512835,25.6875 C29.5661233,27.2578204 28.3532448,28.5878852 26.7126116,29.6777344 C25.0719784,30.7675836 23.1735599,31.3125 21.0172991,31.3125 C18.9313512,31.3125 17.0446513,30.7617243 15.3571429,29.6601562 C15.5446438,29.6835939 15.8376096,29.6953125 16.2360491,29.6953125 C17.9938704,29.6953125 19.5290113,29.167974 20.8415179,28.1132812 C20.0446389,28.1132812 19.3298023,27.8730493 18.6969866,27.3925781 C18.064171,26.912107 17.6188629,26.2968787 17.3610491,25.546875 C17.5251124,25.5937502 17.7594851,25.6171875 18.0641741,25.6171875 C18.4157384,25.6171875 18.7438601,25.5820316 19.0485491,25.5117188 C18.2047949,25.3242178 17.5016769,24.8906284 16.9391741,24.2109375 C16.3766713,23.5312466 16.0954241,22.7578168 16.0954241,21.890625 L16.0954241,21.8203125 C16.6344893,22.1250015 17.1852651,22.2773438 17.7477679,22.2773438 C16.6461999,21.5742152 16.0954241,20.5546942 16.0954241,19.21875 C16.0954241,18.609372 16.2712036,17.9882844 16.6227679,17.3554688 C18.5680901,19.7929809 21.0993148,21.0820305 24.2165179,21.2226562 C24.146205,20.9414048 24.1110491,20.6601577 24.1110491,20.3789062 C24.1110491,19.3710887 24.4684674,18.5039099 25.1833147,17.7773438 C25.8981621,17.0507776 26.7712002,16.6875 27.8024554,16.6875 C28.8805858,16.6875 29.7829205,17.0742149 30.5094866,17.8476562 C31.4235537,17.6601553 32.2087021,17.3671895 32.8649554,16.96875 C32.583704,17.8359418 32.0446469,18.5156225 31.2477679,19.0078125 C32.0680845,18.8906244 32.7712024,18.6914077 33.3571429,18.4101562 C32.8649529,19.16016 32.255584,19.8046848 31.5290179,20.34375 Z" id="î€" fill="#FFFFFF"></path>
                    </g>
                </g>
            </g>
        </g>
    </g>
</svg>