<?xml version="1.0" encoding="UTF-8"?>
<svg width="48px" height="48px" viewBox="0 0 48 48" version="1.1" xmlns="http://www.w3.org/2000/svg" xmlns:xlink="http://www.w3.org/1999/xlink">
    <!-- Generator: Sketch 47.1 (45422) - http://www.bohemiancoding.com/sketch -->
    <title>Group 2</title>
    <desc>Created with Sketch.</desc>
    <defs></defs>
    <g id="Blog" stroke="none" stroke-width="1" fill="none" fill-rule="evenodd">
        <g id="Blog-Article" transform="translate(-786.000000, -3445.000000)">
            <g id="Article-Share" transform="translate(443.000000, 3409.000000)">
                <g id="Group-4" transform="translate(163.000000, 36.000000)">
                    <g id="Group-2" transform="translate(180.000000, 0.000000)">
                        <circle id="Oval" fill="#EE4056" cx="24" cy="24" r="24"></circle>
                        <path d="M33.3571429,18.09375 L33.3571429,22.7695312 C33.3571429,23.8710993 33.2282379,24.8554644 32.9704241,25.7226562 C32.4313589,27.4336023 31.470431,28.8398382 30.0876116,29.9414062 C28.5876041,31.1836 26.8884024,31.8749993 24.9899554,32.015625 C23.0446331,32.1562507 21.2282451,31.699224 19.5407366,30.6445312 C18.0172915,29.6601513 16.8805841,28.3711017 16.1305804,26.7773438 C15.7087033,25.8164014 15.462612,24.8789108 15.3922991,23.9648438 C15.3688615,23.6132795 15.3571429,22.5703212 15.3571429,20.8359375 L15.3571429,17.671875 C15.3571429,16.7812455 15.7555764,16.2187512 16.5524554,15.984375 C16.6930811,15.9374998 16.9157351,15.9140625 17.2204241,15.9140625 L24.3571429,15.9140625 C25.0602714,15.9140625 26.1208077,15.9199218 27.5387835,15.9316406 C28.9567593,15.9433594 30.0172956,15.9492188 30.7204241,15.9492188 C31.3766774,15.9023435 31.86886,15.9257808 32.1969866,16.0195312 C32.5719885,16.1367193 32.8766729,16.371092 33.1110491,16.7226562 C33.2751124,16.9570324 33.3571429,17.4140591 33.3571429,18.09375 Z M29.7712054,22.171875 C29.9118311,21.7734355 29.8415193,21.3867206 29.5602679,21.0117188 C29.2321412,20.6601545 28.8454263,20.5195309 28.4001116,20.5898438 C28.2594859,20.6132814 28.1247216,20.6660152 27.9958147,20.7480469 C27.8669078,20.8300785 27.7614402,20.9062496 27.6794085,20.9765625 C27.5973768,21.0468754 27.4919091,21.1464837 27.3630022,21.2753906 L27.0993304,21.5390625 C25.8805743,22.7109434 24.9665209,23.5781222 24.3571429,24.140625 C24.3337052,24.1171874 23.5485569,23.3671949 22.0016741,21.890625 C21.7438603,21.6328112 21.5446436,21.4453131 21.4040179,21.328125 C21.2868298,21.1874993 21.087613,21.0000012 20.8063616,20.765625 C20.4547974,20.5312488 20.0680825,20.4960929 19.6462054,20.6601562 C19.2243283,20.8242196 18.9840963,21.128904 18.9255022,21.5742188 C18.8669082,22.0195335 18.9899538,22.3945297 19.2946429,22.6992188 C19.8337081,23.2382839 20.6422937,24.0234323 21.7204241,25.0546875 C21.8610498,25.1718756 22.0602666,25.3593737 22.3180804,25.6171875 C22.5758942,25.8750013 22.7751109,26.0624994 22.9157366,26.1796875 C23.4548018,26.7187527 23.8415167,27.0117185 24.0758929,27.0585938 C24.49777,27.1523442 24.8844849,27.0468765 25.2360491,26.7421875 C25.5173005,26.4843737 25.9274527,26.0859402 26.4665179,25.546875 C27.0055831,25.054685 27.8141687,24.2929739 28.8922991,23.2617188 C28.9391744,23.2148435 29.0212048,23.1386724 29.1383929,23.0332031 C29.255581,22.9277338 29.34933,22.8398441 29.4196429,22.7695312 C29.4899557,22.6992184 29.5602675,22.6113287 29.6305804,22.5058594 C29.7008932,22.4003901 29.7477677,22.2890631 29.7712054,22.171875 Z" id="" fill="#FFFFFF"></path>
                    </g>
                </g>
            </g>
        </g>
    </g>
</svg>